<?xml version="1.0" encoding="utf-8"?>
<!-- Generator: Adobe Illustrator 18.1.0, SVG Export Plug-In . SVG Version: 6.00 Build 0)  -->
<svg version="1.1" id="Calque_1" xmlns="http://www.w3.org/2000/svg" xmlns:xlink="http://www.w3.org/1999/xlink" x="0px" y="0px"
	 viewBox="0 0 350 400" enable-background="new 0 0 350 400" xml:space="preserve">
<g id="screwdriver">
	<polygon fill="#0094FF" points="121,202.1 142.3,195.5 147.1,196.4 153.4,192.1 152.6,188.1 144.2,187.7 141.3,190.3 118.5,197 
		119.5,202.7 	"/>
	<polygon fill="#F04C00" points="71.3,206.5 75.1,203.2 105.1,194.6 108.7,195.5 113.2,195.6 115.1,193.6 117.6,195.2 120.3,204.6 
		119.7,207.3 116.5,206.6 112.5,208.7 110.3,212.1 80.4,220.5 74.3,219.5 69.9,213 	"/>
	<g>
		<path d="M75.8,212.5c0.1,0.3,0.4,0.5,0.8,0.4l25.2-7.4c0.3-0.1,0.5-0.4,0.4-0.8s-0.4-0.5-0.8-0.4l-25.2,7.4
			C75.9,211.9,75.7,212.2,75.8,212.5z"/>
		<path d="M79.1,215.6c0.1,0.3,0.4,0.5,0.7,0.4l23-6.8c0.3-0.1,0.5-0.4,0.4-0.7c-0.1-0.3-0.4-0.5-0.7-0.4l-23,6.8
			C79.2,215,79,215.3,79.1,215.6z"/>
		<path d="M76.9,208.2c0.1,0.3,0.4,0.5,0.7,0.4l23-6.8c0.3-0.1,0.5-0.4,0.4-0.7c-0.1-0.3-0.4-0.5-0.7-0.4l-23,6.8
			C77,207.5,76.8,207.9,76.9,208.2z"/>
		<path d="M81.3,218.9c-4.1,1.2-8.4-1.1-9.5-5.2c-1.2-4.1,1.1-8.4,5.2-9.5l28-8.2l4.3,14.8L81.3,218.9z M116,195.1l3,10.3
			c0.1,0.3-0.1,0.6-0.4,0.7c-0.3,0.1-0.6-0.1-0.7-0.4l-3-10.3c0,0,0-0.1,0-0.2c0,0,0-0.1,0-0.1c0-0.2,0.2-0.4,0.4-0.5
			C115.6,194.7,115.9,194.8,116,195.1z M142.4,191.5l2.1-2.5l7,0l0.7,2.3l-5.9,3.8l-3.2-0.9c-0.2-0.1-0.5-0.1-0.7,0l-22.3,6.5
			l-0.7-2.3l22.3-6.5C142,191.8,142.2,191.7,142.4,191.5z M111.2,197.1c0.5,0,1,0,1.5-0.2l2.6,8.8c-0.5,0.2-0.9,0.4-1.4,0.7
			L111.2,197.1z M110,197l3,10.1c-0.6,0.5-1.2,1.1-1.6,1.6l-3.6-12.2C108.5,196.7,109.2,196.9,110,197z M111.3,212.8
			c0.3-0.1,0.6-0.3,0.7-0.6c0,0,0,0,0-0.1c0,0,0-0.1,0.1-0.1c0.4-0.6,2-3.3,4.5-4.1c0.7,0.6,1.8,0.9,2.8,0.6c1.6-0.5,2.5-2.1,2-3.7
			l-0.5-1.6l21.9-6.4l3.3,1c0.3,0.1,0.7,0,1-0.1l7.2-4.6c0.5-0.3,0.7-0.8,0.5-1.4l-1.2-4.1c-0.2-0.5-0.6-0.9-1.2-0.9l-8.5,0
			c-0.4,0-0.7,0.2-0.9,0.4l-2.3,2.7l-21.9,6.4l-0.5-1.6c-0.5-1.6-2.2-2.5-3.8-2.1c-1,0.3-1.8,1.1-2,2c-2.6,0.7-5.6-0.8-6-1.1
			c-0.3-0.2-0.6-0.2-0.9-0.2c0,0-0.1,0-0.1,0c0,0,0,0,0,0l-29.2,8.6c-5.4,1.6-8.5,7.3-6.9,12.7c1.6,5.4,7.3,8.5,12.7,6.9l29.1-8.5
			C111.2,212.8,111.2,212.8,111.3,212.8z"/>
		<path d="M149.7,190.9c0.3,0,0.6-0.3,0.6-0.6c0-0.3-0.3-0.6-0.6-0.6l-3.9,0c-0.3,0-0.6,0.3-0.6,0.6c0,0.1,0,0.1,0,0.2
			c0.1,0.3,0.3,0.4,0.6,0.4L149.7,190.9z"/>
	</g>
</g>
<g id="screw">
	<path fill="#0094FF" d="M64.9,133.4l-4.7-0.6l-5.1,2.7l-0.8,3.6l0.8,4.1l-18.7,32.9l-6.6,5.7l-2.7,4.2l0.7,6.7l1.3,0.6l1.1-6.2
		l5,0.7l3.3,2.2l-1.2,5.9l3.3-0.7l3.7-6.2l-1.5-8.8L61,146.8l5.9-2.2l1.4-6.5L64.9,133.4z M64,142.9l-2.5,0.7l-3-0.7l-1.4-3l0.9-1.7
		l1.9-1.9h2.7l1.9,1.9l0.4,2L64,142.9z"/>
	<g>
		<path d="M62.7,137.2c1.5,0.8,2,2.7,1.2,4.2c-0.8,1.5-2.7,2-4.2,1.2c-1.5-0.8-2-2.7-1.2-4.2C59.4,136.9,61.2,136.4,62.7,137.2z
			 M59.2,143.6c2.1,1.1,4.7,0.4,5.8-1.7c1.1-2.1,0.4-4.7-1.7-5.8c-2.1-1.1-4.7-0.4-5.8,1.7C56.3,139.8,57.1,142.5,59.2,143.6z"/>
		<rect x="45.4" y="158.7" transform="matrix(-0.8748 -0.4845 0.4845 -0.8748 4.3531 338.3693)" width="1" height="19.9"/>
		<rect x="54.5" y="148.6" transform="matrix(-0.8748 -0.4845 0.4845 -0.8748 29.5086 311.8322)" width="1" height="7"/>
		<path d="M41,193.2c-1.1,1-1.8,1.6-2.3,2c0.1-0.2,0.1-0.4,0.2-0.5c0.7-1.8,1.5-3.8,0.7-5.1c-0.4-0.6-1.1-1.2-2.1-1.8
			c-1.8-1-4.7-1.8-6.4-1.5c-1.6,0.4-2.4,2.2-2.8,4c-0.2-2-0.3-5.7,1.9-7.5c1-0.9,1.9-1.5,2.7-2c0.1-0.1,0.2-0.1,0.3-0.2
			c2.4-1,4.5-1.2,6.1-0.6c1.2,0.5,2.2,1.5,3,3c0,0.9,0.2,1.9,0.5,2.8C43.5,187.8,43.4,190.9,41,193.2z M56.3,146
			C56.3,146,56.3,146,56.3,146c0.4,0.3,0.8,0.6,1.2,0.8c0.3,0.2,0.7,0.3,1.1,0.5c0,0,0.1,0,0.1,0c0.4,0.1,0.8,0.3,1.2,0.3l0,0
			l-16.4,29.7c-0.1,0.1-0.8,1.7-1,3.9c-0.8-1-1.7-1.7-2.7-2.1c-1.2-0.5-2.6-0.6-4.2-0.2c0.9-0.8,1.8-1.9,2.8-3.4l17.1-30.3
			c0,0,0,0,0,0C55.6,145.4,55.9,145.7,56.3,146z M56.2,137.1c1.5-2.8,5.1-3.8,7.8-2.2c2.8,1.5,3.8,5.1,2.3,7.8
			c-1,1.7-2.7,2.8-4.5,2.9l-0.3,0c-2.2,0.1-4.3-1.1-5.3-3l-0.1-0.2C55.3,140.8,55.2,138.8,56.2,137.1z M44.8,185.1
			c-1.1-3.2,0.5-6.8,0.5-6.8l16.9-30.6c2.4-0.3,4.7-1.7,6-4c2.1-3.8,0.7-8.6-3.1-10.7s-8.6-0.7-10.7,3.1c-1.2,2.3-1.3,4.9-0.3,7.1
			l-17.6,31.2c-1.7,2.6-2.9,3.4-4.7,4.8c-0.8,0.6-1.7,1.2-2.8,2.1c-3.9,3.1-2.8,9.6-2.5,10.9c0,0,0.7,2.9,1.8,3.5
			c0.4,0.2,0.8,0.2,1.2,0c0.6-0.4,0.6-1.2,0.6-1.5c0-2.5,0.8-5.6,1.6-5.7c0.9-0.2,3.2,0.3,4.9,1.2c0.9,0.5,1.2,0.9,1.3,1
			c0.3,0.5-0.5,2.4-0.8,3.3c-0.6,1.6-1.2,3.1,0,3.7l0.2,0.1c1.5,0.5,2.3-0.1,5.4-2.9C45.7,191.8,45.7,187.7,44.8,185.1z"/>
	</g>
</g>
<g id="hammer">
	<polygon fill="#0094FF" points="266.2,142.4 330.4,201.8 322.1,211.1 258.9,149.3 	"/>
	<polygon fill="#F04C00" points="277.3,139.6 282.8,140.4 294.2,133.6 298.6,138 266.9,170.8 256.1,161.1 	"/>
	<g>
		<path d="M278.7,162.6c-0.3-0.3-0.9-0.3-1.2,0c-0.2,0.2-0.2,0.4-0.2,0.6c0,0.2,0.1,0.4,0.2,0.6l11.8,11.4c0.2,0.1,0.4,0.2,0.6,0.2
			c0.2,0,0.4-0.1,0.6-0.2c0.3-0.3,0.3-0.8,0-1.2L278.7,162.6z"/>
		<path d="M331.4,201.3c-0.1-0.1-0.1-0.1-0.2-0.1L282.8,156l16.7-17.3c0.5-0.5,0.5-1.3,0-1.8c-3.9-3.9-4.7-4.7-5.4-4.7
			c-0.4,0-0.6,0.2-0.8,0.4c-4.9,4.7-9.8,6.4-12.5,6.4c-1.2,0-2.1-0.3-2.6-0.8c-0.5-0.5-1.4-0.5-1.8,0l-5.9,6.1l-3.3-3.1
			c-0.5-0.5-1.3-0.4-1.8,0.1l-7.1,7.4c-0.5,0.5-0.5,1.3,0,1.8l3.2,3.2l-6.3,6.6c-0.5,0.5-0.5,1.3,0,1.8l10.4,10.1
			c0.5,0.5,1.4,0.5,1.8,0l6.1-6.4l47,46.9c0.2,0.2,0.6,0.4,0.9,0.4h0c0.4,0,0.7-0.2,0.9-0.4l9.2-9.5
			C331.9,202.6,331.9,201.8,331.4,201.3z M296.7,137.9l-30.4,31.5l-8.6-8.3l19.6-20.3c0.9,0.5,2,0.8,3.3,0.8c4,0,9.1-2.4,13.5-6.2
			C294.8,136,295.8,136.9,296.7,137.9z M260.8,149.6l5.3-5.5l2.3,2.2l-5.4,5.6L260.8,149.6z M275.2,163.9l5.8-6l47.6,44.4l-7.3,7.6
			L275.2,163.9z M321.3,212.7L321.3,212.7L321.3,212.7L321.3,212.7z"/>
		<path d="M310.1,195.5c-0.3-0.3-0.9-0.3-1.2,0c-0.3,0.3-0.3,0.8,0,1.2l11.8,11.4c0.2,0.1,0.4,0.2,0.6,0.2c0.2,0,0.4-0.1,0.6-0.2
			c0.3-0.3,0.3-0.8,0-1.2L310.1,195.5z"/>
		<path d="M324.6,200.5L297,174.9c-0.3-0.3-0.8-0.3-1.2,0c-0.2,0.2-0.2,0.4-0.2,0.6c0,0.2,0.1,0.4,0.3,0.6l27.6,25.6
			c0.2,0.2,0.4,0.2,0.6,0.2c0.2,0,0.4-0.1,0.6-0.2c0.1-0.1,0.2-0.3,0.2-0.6C324.9,200.9,324.8,200.7,324.6,200.5z"/>
	</g>
</g>
<g id="box">
	<polygon fill="#F04C00" points="158.3,45.7 173.4,29 172.3,13.3 175.8,9.3 178.4,9.3 182.1,12.4 182.1,30.6 194.7,45.7 194.7,50.4 
		204.5,96.5 229.4,96.5 221.1,141.2 183.4,141.2 130.3,139.1 124.3,102.9 166.8,85.5 	"/>
	<polygon fill="#0094FF" points="71.4,54.6 126.3,54.6 132.6,45.3 136.7,48.3 133.9,59.9 130.3,76.9 127.9,85.6 145.6,85.6 
		148.3,107.2 142.8,105.8 138.2,102.9 133.9,104.3 133.5,109 138.1,114 144.1,119.8 137.3,124.7 133.6,127.6 133.7,131.9 
		136.7,133.5 141.1,132.8 150.3,126 154.1,129.5 159.6,133.5 164.1,131.7 164.1,127.6 159.6,122.5 175,120.5 193.3,120.7 
		192.8,123.8 189.4,127.6 189.5,131.8 193.8,133.5 202.7,125.6 208.9,128.9 215,133.5 218.6,131.6 219.8,126.8 211.9,121.7 
		216.4,111.7 220.2,107.2 217.6,102.9 211.8,103.5 207.6,107.7 206.3,85.3 225.7,85.2 220.6,67.1 217.6,47.8 219.8,43.9 226.6,55.4 
		281.2,55.9 281.2,84.1 261.7,85.4 261.9,110.6 262.1,115.7 227.9,116.2 229.8,166.2 124.9,167.2 124.8,115.6 90,115.7 91,85.4 
		72.3,85.6 	"/>
	<polygon fill="#004F88" points="73.8,51.7 80.3,21.5 106.1,14.6 104.8,19.7 99.4,33.1 101.4,35.5 132.3,35.9 132.3,43.9 
		138.2,47.3 174,46.8 175.8,52 176.3,69.8 176.3,84.6 173.6,99 169,102.9 152.2,114.7 146.3,108.5 146.3,84.8 130.3,84.2 
		132.1,68.4 135.6,49 131,47.7 127.6,54.3 73.8,54.6 	"/>
	<polygon fill="#004F88" points="183.8,46.9 216.4,46.9 219.8,43.9 220.6,34.9 253.3,34.9 247,14.6 272.7,22.1 278.9,48.8 
		281.2,54.6 227.4,55.4 221.6,46.9 218,50.2 222.2,72.8 224.1,85.2 207.6,85.2 205.8,108.5 204.1,112.4 199.4,112.4 182.1,101.6 
		185.4,79.6 	"/>
	<polygon fill="#004F88" points="176.5,108.5 189.8,116.7 193.3,120.7 167.6,119.3 163.4,116.6 	"/>
	<polygon fill="#F04C00" points="84.5,73.3 97.3,86.9 104.8,94.4 109.5,94.4 112.1,91.5 111,87.1 90.3,67.2 87.2,63.5 73.8,63.5 
		73.1,71.9 	"/>
	<polygon fill="#F04C00" points="240.8,91.5 242.9,86.2 262.4,67.1 265.9,63.5 279.9,63.5 281.2,72.9 268.5,72.8 253.3,88.9 
		247,95.4 	"/>
	<g>
		<path d="M158.2,53c0,1.8-2.7,1.8-2.7,0C155.5,51.2,158.2,51.2,158.2,53"/>
		<path d="M166.8,53c0,1.8-2.7,1.8-2.7,0C164.1,51.2,166.8,51.2,166.8,53"/>
		<path d="M189.8,53c0,1.8-2.7,1.8-2.7,0C187.1,51.2,189.8,51.2,189.8,53"/>
		<path d="M198.4,53c0,1.8-2.7,1.8-2.7,0C195.7,51.2,198.4,51.2,198.4,53"/>
		<path d="M160.9,129c0,1.8-2.7,1.8-2.7,0C158.3,127.2,160.9,127.2,160.9,129"/>
		<path d="M144.2,53.3c0,1.8-2.7,1.8-2.7,0C141.5,51.5,144.2,51.5,144.2,53.3"/>
		<path d="M139.5,129c0,1.8-2.7,1.8-2.7,0C136.8,127.2,139.5,127.2,139.5,129"/>
		<path d="M216.4,128.2c0,1.8-2.7,1.8-2.7,0C213.7,126.4,216.4,126.4,216.4,128.2"/>
		<path d="M178.4,102.9c0,1.8-2.7,1.8-2.7,0C175.8,101.1,178.4,101.1,178.4,102.9"/>
		<path d="M136.4,98.4c0,0.8,0.7,1.5,1.5,1.5s1.5-0.7,1.5-1.5v-3.7c0-0.8-0.7-1.5-1.5-1.5h-15.2c-0.8,0-1.5,0.7-1.5,1.5
			c0,0.8,0.7,1.5,1.5,1.5h13.7V98.4z"/>
		<path d="M139.4,107.2c0,1.8-2.7,1.8-2.7,0C136.7,105.4,139.4,105.4,139.4,107.2"/>
		<path d="M108.8,90.2c0,1.8-2.7,1.8-2.7,0C106.1,88.4,108.8,88.4,108.8,90.2"/>
		<path d="M87.2,68.4c0,1.8-2.7,1.8-2.7,0C84.5,66.6,87.2,66.6,87.2,68.4"/>
		<path d="M106.1,41.4c0,1.8-2.7,1.8-2.7,0C103.4,39.6,106.1,39.6,106.1,41.4"/>
		<path d="M93.6,25.7c0.5-0.4,0.7-1.3,0.5-1.8c-0.2-0.5-0.8-0.6-1.3-0.2c-0.5,0.4-0.7,1.3-0.5,1.8C92.5,26.1,93.1,26.1,93.6,25.7z"
			/>
		<path d="M230.4,93.1h-15.2c-0.8,0-1.5,0.7-1.5,1.5v3.7c0,0.8,0.7,1.5,1.5,1.5s1.5-0.7,1.5-1.5v-2.2h13.7c0.8,0,1.5-0.7,1.5-1.5
			C231.9,93.8,231.2,93.1,230.4,93.1z"/>
		<path d="M216.4,107.2c0,1.8-2.7,1.8-2.7,0C213.7,105.4,216.4,105.4,216.4,107.2"/>
		<path d="M277.8,62.3l-10.3,0c-0.9,0-1.8,0.2-2.6,0.6c-0.6,0.3-1.1,0.6-1.6,1.1l-18.5,18.6h-17V58h50L277.8,62.3L277.8,62.3z
			 M277.8,71l-10.3,0c-1.6,0-2.9-1.3-2.9-2.9c0-0.8,0.3-1.5,0.8-2c0.5-0.5,1.3-0.8,2-0.8l10.3,0V71z M277.8,82.6h-16.4L270,74h7.9
			V82.6z M242.4,90.6c0-0.8,0.3-1.5,0.8-2l18.7-18.9c0.5,2,2.1,3.5,4,4.1l-18.7,18.9c-1.1,1.1-3,1.1-4,0
			C242.7,92.1,242.4,91.4,242.4,90.6z M259.2,113.3h-41.9l2.2-2.2c2.3-2.3,2.3-6,0-8.3c-2.2-2.2-6.1-2.2-8.3,0l-2,2V88.6h30.5
			c-0.2,0.6-0.4,1.3-0.4,2c0,1.6,0.6,3,1.7,4.1c1.1,1.1,2.6,1.7,4.1,1.7c1.6,0,3-0.6,4.1-1.7l6.1-6.1h3.7V113.3z M226,163.9h-98.3
			v-40.2h8.2l-2.3,1.6c-2.3,2.3-2.3,6,0,8.3c1.1,1.1,2.6,1.7,4.1,1.7s3-0.6,3.9-1.5l8.6-5.9l5.7,5.7c1.1,1.1,2.6,1.7,4.1,1.7
			c1.6,0,3-0.6,4.1-1.7c1.1-1.1,1.7-2.6,1.7-4.2c0-1.6-0.6-3-1.7-4.1l-1.6-1.6h27.9l-1.6,1.6c-1.1,1.1-1.7,2.6-1.7,4.1
			c0,1.6,0.6,3,1.7,4.2c1.1,1.1,2.6,1.7,4.1,1.7c1.6,0,3-0.6,4.1-1.7l6-6.1l8.1,5.4c1.1,1,2.5,1.6,4,1.6c1.6,0,3-0.6,4.1-1.7
			c2.3-2.3,2.3-6,0-8.3c-0.1-0.1-0.1-0.1-0.2-0.2l-0.9-0.6h7.7V163.9z M93.9,113.3V88.6h3.7l6.1,6.1c1.1,1.1,2.6,1.7,4.1,1.7
			s3-0.6,4.1-1.7c1.1-1.1,1.7-2.6,1.7-4.1c0-0.7-0.1-1.4-0.4-2h30.5v16.1l-2-2c-2.2-2.2-6.1-2.2-8.3,0c-2.3,2.3-2.3,6,0,8.3l2.2,2.2
			H93.9z M90.9,82.6H75.2V74h7.9l8.5,8.6H90.9z M75.2,65.3l10.3,0c0.8,0,1.5,0.3,2,0.8c0.5,0.5,0.8,1.3,0.8,2c0,1.6-1.3,2.9-2.9,2.9
			l-10.3,0V65.3z M110.7,90.6c0,0.8-0.3,1.5-0.8,2c-1.1,1.1-3,1.1-4,0L87.1,73.8c2-0.6,3.5-2.1,4-4.1l18.7,18.9
			C110.4,89.1,110.7,89.9,110.7,90.6z M75.2,58h50v24.6h-17L89.7,64c-0.5-0.5-1-0.8-1.6-1.1c-0.8-0.4-1.7-0.6-2.6-0.6l-10.3,0
			L75.2,58L75.2,58z M97,38.5v6.8L92.8,52h-16L97,38.5z M82.6,25.2l6.3-2.1l-0.4,1.3C88,26.3,88.2,28,89,29.3
			c0.6,0.9,1.6,1.5,2.6,1.6c0.1,0,0.4,0,0.5,0c2.3,0,4.6-2,5.4-4.9l1.9-6.4l2-0.7l-5.6,15.6c-0.1,0.4-0.2,0.8-0.1,1.2L77,48.3
			L82.6,25.2z M91.4,25.3l1.5-5.1l3.6-1.2l-1.8,6.2c-0.5,1.6-1.7,2.7-2.6,2.7H92c-0.1,0-0.3-0.1-0.5-0.3
			C91.2,27.2,91.1,26.4,91.4,25.3z M124,47.4h2.8l0.5,0.3l-0.4,1.5L124,47.4z M118.3,47.4h2.8l5.3,3.3l-0.4,1.3h-0.3L118.3,47.4z
			 M112.7,47.4h2.8l7.4,4.6h-2.8L112.7,47.4z M107,47.4h2.8l7.4,4.6h-2.8L107,47.4z M101.3,47.4h2.8l7.4,4.6h-2.8L101.3,47.4z
			 M100.3,52h-2.8l-0.6-0.4l0.8-1.3L100.3,52z M98.4,49.1l0.8-1.3l6.7,4.2h-2.8L98.4,49.1z M130,38.6l-1.6,5.5h-28.2v-5.5H130z
			 M131.2,55.9l1.6-5.6c0.2,0,0.4,0.1,0.6,0.1h0.4l-2.6,15.1V55.9z M144.9,74.7l-0.2,1.6l-11.1-6.9l0.3-1.6L144.9,74.7z M134.5,64.7
			l10.7,6.7l-0.2,1.6l-10.8-6.8L134.5,64.7z M138.1,63.4l7.6,4.7l-0.2,1.6l-10.2-6.4H138.1z M137,50.4h10.4l-1,10h-11.1L137,50.4z
			 M145.8,66.4l-4.9-3h2.8l2.2,1.4L145.8,66.4z M133.2,72.7l0.3-1.6l11.1,6.9l-0.2,1.7L133.2,72.7z M132.6,75.9l0.3-1.6l11.3,7.1
			l-0.1,1.3h-0.6L132.6,75.9z M135,82.6h-2.8l-0.6-0.4l0.3-1.6L135,82.6z M132.1,79.1l0.3-1.6l8.3,5.2h-2.8L132.1,79.1z
			 M144.5,117.8l-8.8-8.9c-1.1-1.1-1.1-2.9,0-4.1c0.5-0.5,1.3-0.8,2-0.8c0.8,0,1.5,0.3,2,0.8l9.6,9.7L144.5,117.8z M149.8,108.4
			l4.5,2.8l-2.4,1.7l-2-2.1V108.4z M149.8,104.9l7.2,4.5l-1.4,0.9l-5.8-3.6V104.9z M149.8,101.3l9.9,6.2l-1.4,0.9l-8.5-5.3V101.3z
			 M149.8,97.8l12.6,7.8l-1.4,0.9l-11.2-7V97.8z M149.8,94.3l15.3,9.5l-1.4,0.9l-14-8.7V94.3z M149.8,90.8l18,11.2l-1.4,0.9
			l-16.7-10.4V90.8z M149.8,87.2l20.7,12.9l-1.4,0.9L149.8,89V87.2z M150,83.8l22.3,13.9l-0.2,1.4l-0.2,0.1l-22-13.7L150,83.8z
			 M151.2,81.1l21.6,13.4l-0.3,1.6l-22.1-13.7C150.7,81.9,151,81.5,151.2,81.1z M153,78.6l20.3,12.7l-0.3,1.6l-21-13.1
			C152.4,79.4,152.7,79,153,78.6z M152.3,62l1.2-11.6h20.3l1.3,18.7h-22.7V62z M172.5,31.5l0.5,8.1l-4,4.8h-7.3L172.5,31.5z
			 M173.3,44.4h-0.4l0.4-0.5L173.3,44.4z M177.1,10.8c1.6,0,2.9,1.3,2.9,3l4.3,64.9l-4.3,24.8c0,1.6-1.3,2.9-2.9,2.9
			c-1.6,0-2.9-1.3-2.9-2.6l4.3-25.2c0-0.1,0-0.2,0-0.3l-4.3-64.5C174.3,12.1,175.6,10.8,177.1,10.8z M191.7,44.4H185l-0.6-8.6
			L191.7,44.4z M199.6,50.4l1.8,17.8v0.9h-14.8l-1.2-18.7H199.6z M190.7,72.1h1.1c2.4,1.2,5.6,3.1,8.3,5.8L190.7,72.1z M202.8,81.5
			l0.2,1.8l-16.1-10l-0.1-1.2h1l14.8,9.2C202.8,81.4,202.8,81.5,202.8,81.5z M203.3,85.8V87l-16.1-10l-0.1-1.8l16.2,10.1L203.3,85.8
			z M203.3,109.9v0.8l-1.1,1.1L183.6,100l0.4-2.1L203.3,109.9z M203.3,106.4v1.8l-19-11.9l0.3-1.6L203.3,106.4z M203.3,102.9v1.8
			l-18.5-11.5l0.3-1.6L203.3,102.9z M203.3,99.4v1.8l-17.9-11.2l0.3-1.6L203.3,99.4z M203.3,95.8v1.8l-17.4-10.8l0.3-1.6L203.3,95.8
			z M187,80.4l0.2-1.4c0-0.1,0-0.1,0-0.2l16,10v1.8L187,80.4z M203.3,92.3v1.8l-16.8-10.5l0.3-1.6L203.3,92.3z M174.5,111.4l1.4-0.9
			l11.5,7.2h-2.8L174.5,111.4z M171.7,113.2l1.4-0.9l8.5,5.3h-2.8L171.7,113.2z M169,115.1l1.4-0.9l5.6,3.5h-2.8L169,115.1z
			 M167.7,116l2.6,1.6h-2.8l-1.1-0.7L167.7,116z M173.9,88.1l-0.3,1.6l-19.6-12.2c0.4-0.4,0.8-0.7,1.1-1.1L173.9,88.1z M174.5,84.9
			l-0.3,1.6l-17.7-11c0.4-0.3,0.9-0.6,1.3-0.9L174.5,84.9z M175,81.7l-0.3,1.6l-15.6-9.7c0.5-0.3,1-0.6,1.5-0.8L175,81.7z
			 M175.5,78.6l-0.3,1.6l-12.9-8h2.8L175.5,78.6z M173.7,72.1h1.5l0.1,1L173.7,72.1z M175.4,74.9l0.1,1.8l-7.4-4.6h2.8L175.4,74.9z
			 M162,127.4c0.5,0.5,0.8,1.3,0.8,2c0,0.8-0.3,1.5-0.8,2c-1.1,1.1-3,1.1-4,0l-5.2-5.3l4.8-3.3L162,127.4z M139.7,131.4
			c-1.1,1.1-3,1.1-4,0c-1.1-1.1-1.1-2.9-0.2-3.9l35.9-24.4l0,0.3c0,2,1,3.8,2.5,4.8L139.7,131.4z M200.7,125.8l-5.6,5.6
			c-1.1,1.1-3,1.1-4,0c-0.5-0.5-0.8-1.3-0.8-2c0-0.8,0.3-1.5,0.8-2l3.7-3.7h2.7L200.7,125.8z M180.1,108.5c1.7-1,2.8-2.7,2.9-4.6
			c0-0.1,0-0.2,0-0.3l0-0.1c0,0.1,0,0.2,0,0.3l34.5,22.9c1,1.1,1,2.9-0.1,4c-1.1,1.1-3,1.1-4,0c-0.1-0.1-0.1-0.1-0.2-0.2
			L180.1,108.5z M204.3,114l9-9.1c0.5-0.5,1.3-0.8,2-0.8s1.5,0.3,2,0.8c1.1,1.1,1.1,2.9,0,4.1l-8.4,8.5l-4.7-3.1
			C204.3,114.2,204.3,114.1,204.3,114z M216.1,50.4l1.7,10h-11.1l-1-10H216.1z M207.3,66.4l-0.2-1.6l2.2-1.4h2.8L207.3,66.4z
			 M207.6,69.7l-0.2-1.6l7.6-4.7h2.8L207.6,69.7z M218.8,66.3L208,73.1l-0.2-1.6l10.7-6.7L218.8,66.3z M219.3,69.5l-11.1,6.9
			l-0.2-1.6l10.9-6.8L219.3,69.5z M221.3,80.6l0.3,1.6l-0.6,0.4h-2.8L221.3,80.6z M220.7,77.5l0.3,1.6l-5.8,3.6h-2.8L220.7,77.5z
			 M208.6,79.7l-0.2-1.7l11.1-6.9l0.3,1.6L208.6,79.7z M220.2,74.3l0.3,1.6l-10.9,6.8H209l-0.1-1.3L220.2,74.3z M219.7,50.4
			c0.2,0,0.5-0.1,0.7-0.1l1.5,5.5v9.7l-2.6-15.1H219.7z M252.9,38.6v5.5h-28l-1.5-5.5H252.9z M253.7,19.6l1.9,6.4
			c0.8,2.8,3.1,4.9,5.4,4.9c0.1,0,0.4,0,0.5,0c1.1-0.1,2-0.7,2.6-1.6c0.8-1.3,1-3,0.5-4.8l-0.4-1.3l6.3,2.1l5.7,23.1l-18.6-12.5
			c0-0.4,0-0.8-0.1-1.2L251.7,19L253.7,19.6z M260.2,20.3l1.5,5.1c0.3,1.1,0.1,1.9-0.1,2.3c-0.2,0.3-0.4,0.3-0.5,0.3l-0.1,0
			c-0.9,0-2.1-1.1-2.6-2.7l-1.8-6.2L260.2,20.3z M256.1,45.3v-6.8L276.3,52h-16L256.1,45.3z M255.5,50.4l0.8,1.3l-0.6,0.4h-2.8
			L255.5,50.4z M253.9,47.8l0.8,1.3L250,52h-2.8L253.9,47.8z M248.9,47.4h2.8l-7.4,4.6h-2.8L248.9,47.4z M243.2,47.4h2.8l-7.4,4.6
			h-2.8L243.2,47.4z M237.6,47.4h2.8L233,52h-2.8L237.6,47.4z M226.3,49.1l-0.4-1.5l0.4-0.2h2.8L226.3,49.1z M231.9,47.4h2.8
			l-7.4,4.6h-0.2l-0.4-1.4L231.9,47.4z M283.7,54.7c0-0.1,0-0.3,0-0.4l-7.9-32.1c-0.2-1-1-1.8-1.9-2.1l-26.1-8.8
			c-1.1-0.4-2.3-0.1-3.1,0.7c-0.8,0.8-1.1,2-0.7,3.1l6.2,17.4h-30.6c-1.6,0-3,1.3-3,3v8.8H203h0h-7.4l-11.5-13.6L183,13.7
			c0-3.2-2.6-5.9-5.8-5.9c-3.2,0-5.8,2.6-5.8,6l0.9,13.5c-0.2,0.2-0.5,0.5-0.7,0.8l-13.7,16.4h-7h0h-14.4v-8.8c0-1.7-1.3-3-3-3
			h-30.6l6.2-17.4c0.4-1.1,0.1-2.3-0.7-3.1c-0.8-0.8-2-1.1-3.1-0.7l-26.1,8.7c-1,0.3-1.7,1.1-1.9,2.1l-7.9,32.1c0,0.1,0,0.3,0,0.4
			c0,0.1-0.1,0.2-0.1,0.3v30.6c0,1.7,1.3,3,3,3h15.7v27.6c0,1.6,1.3,3,3,3h31.2c-0.2,0.4-0.4,0.9-0.4,1.4v46.2c0,1.6,1.3,3,3,3H229
			c1.6,0,3-1.3,3-3v-46.2c0-0.5-0.1-1-0.4-1.4h30.6c1.7,0,3-1.3,3-3V88.6h15.7c1.6,0,3-1.3,3-3V55C283.8,54.9,283.8,54.8,283.7,54.7
			z"/>
		<path d="M247,90.2c0,1.8-2.7,1.8-2.7,0C244.3,88.4,247,88.4,247,90.2"/>
		<path d="M268.5,68.4c0,1.8-2.7,1.8-2.7,0C265.9,66.6,268.5,66.6,268.5,68.4"/>
		<path d="M249.7,41.4c0,1.8-2.7,1.8-2.7,0C247,39.6,249.7,39.6,249.7,41.4"/>
		<path d="M260.8,25.5c0.2-0.5,0-1.3-0.5-1.8c-0.5-0.4-1.1-0.4-1.3,0.2c-0.2,0.5,0,1.3,0.5,1.8C260,26.1,260.6,26.1,260.8,25.5z"/>
		<path d="M194.7,129c0,1.8-2.7,1.8-2.7,0C192,127.2,194.7,127.2,194.7,129"/>
		<path d="M233.9,71.9c0.8,0,1.5-0.7,1.5-1.5v-4.9h3.1c0.8,0,1.5-0.7,1.5-1.5c0-0.8-0.7-1.5-1.5-1.5h-4.6c-0.8,0-1.5,0.7-1.5,1.5
			v6.4C232.4,71.2,233.1,71.9,233.9,71.9z"/>
		<path d="M114.4,65.5h3.1v4.9c0,0.8,0.7,1.5,1.5,1.5c0.8,0,1.5-0.7,1.5-1.5V64c0-0.8-0.7-1.5-1.5-1.5h-4.6c-0.8,0-1.5,0.7-1.5,1.5
			C112.9,64.9,113.5,65.5,114.4,65.5z"/>
		<path d="M185.7,155.6h-14.8c-0.8,0-1.5,0.7-1.5,1.5c0,0.8,0.7,1.5,1.5,1.5h14.8c0.8,0,1.5-0.7,1.5-1.5
			C187.2,156.3,186.5,155.6,185.7,155.6z"/>
		<path d="M218.3,147.6c-0.8,0-1.5,0.7-1.5,1.5v6.5h-20c-0.8,0-1.5,0.7-1.5,1.5c0,0.8,0.7,1.5,1.5,1.5h21.5c0.8,0,1.5-0.7,1.5-1.5
			v-8C219.8,148.3,219.2,147.6,218.3,147.6z"/>
	</g>
</g>
<g>
	<g>
		<g>
			<path d="M55.9,259.2c-1.7,0.4-3-0.6-3.6-2.2c-0.6-1.3-1-2.6-1.3-3.9c-3.4,0.1-6.9,0.3-10.3,0.4c-1.6,0.1-3.2,0.6-4.7,0.9
				c0.4,3.7,1.1,7.5,1.4,11.1c0.3,3.9,0.4,7.6,0.4,11.5c0.1,4.7,0.1,9.6,0,14.4c0,5.2-0.1,10.5-0.1,15.7c0,3.3,0.1,6.6,0.1,9.9
				c-0.1,3.4-0.4,6.8-0.6,10.2c0,1.4,0.1,2.7,0.1,4c0.1,4.6,0.1,9.1,0.4,13.5c0.1,1.6-0.4,2.9-1,4c-0.7,1.1-3.3,1.7-4.5,1
				c-1.6-0.9-3-1.9-4.5-2.9c-1.1-0.7-1.3-2-1.4-3.2c0-2,0.3-4,0.3-6c0.1-7.3,0.3-14.7,0.4-22c0.1-4.6,0.3-9.3,0.3-14.1
				c0.1-4.3,0-8.5,0-12.8c0-3.7,0.1-7.5,0.3-11.2c0.1-6.5,0-12.9-0.6-19.4c0-0.3-0.1-0.7-0.1-1.1c-0.1-1-0.6-1.4-1.7-1.6
				c-2.3,0-4.5-0.4-6.6-0.3c-1,0-1.9-0.4-2.6-1c-0.3,1-0.7,2-1,2.9c-0.4,1-0.9,2.2-1.4,3.2c-1.3,2.6-5.6,0.7-4.7-2
				c0.7-2.3,1.6-4.5,2.4-6.6c0-0.6,0.3-1,0.6-1.6c0.7-1,2-1.4,3.2-1.1c1.7,0,3.4,0.1,5.2,0.1c0.9,0.1,1.9,0.1,2.9,0
				c3.4-0.7,7-1.4,10.5-1.9c2.2-0.4,4.5-0.4,6.8-0.6c2.2-0.3,4.5-0.6,6.8-1.1c1-0.1,2.3,0.3,3-0.7c0-0.1,0.4,0,0.6,0
				c0.6,0.4,1.1,0.7,1.7,0.9c0.1,0,0.1,0,0.3,0c0.4-0.3,1.1-0.3,1.7-0.1c0.1,0,0.1,0.1,0.1,0.1c1.1,0.3,1.7,1,2,2
				c0.4,0.4,0.6,1,0.6,1.7c0,0.6-0.1,1.1-0.4,1.6c0.4,1.6,0.9,3.2,1.1,4.6C58.5,257,57.3,258.7,55.9,259.2z"/>
		</g>
		<g>
			<path d="M61,313.8c-0.1-2.4-0.1-4.9-0.1-7.3c-0.1-5-0.3-10.1-0.3-15.1c0-2.9,0.3-5.7,0.4-8.6c0.1-2.9,0.4-5.6,0.6-8.5
				c0.3-2.7,0.1-5.5,1-8c0.7-1.9,0.9-4,1.1-6c0.9-4.5,2.4-8.6,4.9-12.4c1.3-2,3.3-3.4,6-3.4c1.9,0,3.9,0.4,5.7,1
				c2,0.6,3.9,1.3,5.9,1.1c0.6,0,1,0.1,1.6,0.4c0.4,0.1,1,0.4,1.4,0.6c3.4,0.6,5.7,2.9,8.2,5.2c0.7,0.6,1.1,1.7,1.6,2.7
				c1,2.9,1.9,5.9,2.7,8.8c0.3,0.9,0.1,1.9,0.3,2.9c0,3.2,0,6.3-0.1,9.6c0,3.2-0.1,6.5-0.1,9.8c0,1.3,0.1,2.6,0.1,3.7
				c0.1,2.9,0.4,5.7,0.4,8.5c0,2.9,0,5.6-0.1,8.3c-0.3,3.3-0.4,6.6-0.9,9.9c-0.9,6.3-0.9,12.9-2.7,19c-0.3,1.1-1.1,2.2-1.3,3.4
				c-0.3,1.9-1.6,3.3-2.4,4.9c-1.4,3-3.4,5.5-6.6,6.6c-1.3,0.4-2.4,0.7-3.6,1.3c-1.6,0.7-3.4,0.7-5.2,0.3c-2.4-0.6-4.9-1.3-6.9-2.6
				c-3.2-1.9-5.9-4.3-7-8c-0.7-2.3-1.9-4.6-2.6-6.9c-0.4-1.7-0.3-3.4-0.6-5.2c0-0.4,0-0.7,0-1.1c0,0,0,0-0.1,0
				C61.8,323.7,61.4,318.8,61,313.8z M74.8,258c-1.1,4.2-2.2,8.5-2.9,12.8c-0.6,4.5-0.6,8.9-0.9,13.4c-0.4,6.9-0.9,13.9-0.1,21
				c0.1,2.2,0,4.5,0.1,6.8c0.1,2.7,0.3,5.5,0.6,8.2c0.3,2.6,0.9,5.2,0.9,7.8c0,2.3,0.4,4.5,0.9,6.6c0.1,1.3,0.6,2.4,0.7,3.6
				c0.3,2,1.3,3.7,2.4,5.3c1.4,2,4,2.7,5.6,1.3c1.6-1.6,3.2-3.3,4.2-5.2c2.3-3.7,3.2-8.2,3.9-12.5c0.9-5.3,1.4-10.6,1.9-15.9
				c0.4-5.5,1.1-10.9,0.6-16.5c-0.4-3.7-0.3-7.5-0.3-11.2c0-5,0-10.2,0.1-15.2c0.1-3.4-0.4-6.8-1.6-10.1c-0.4-1.4-1.4-2.9-2.2-4.2
				c-0.3-0.4-0.9-0.9-1.3-1c-1.7-0.1-3.4-0.7-4.9,0.4c-0.9,0.7-1.9,0.9-2.9,0.6c-0.7-0.3-1.6-0.3-2.4-0.6
				C76.3,255,75.2,256.3,74.8,258z"/>
		</g>
		<g>
			<path d="M110.7,313.8c-0.1-2.4-0.1-4.9-0.1-7.3c-0.1-5-0.3-10.1-0.3-15.1c0-2.9,0.3-5.7,0.4-8.6c0.1-2.9,0.4-5.6,0.6-8.5
				c0.3-2.7,0.1-5.5,1-8c0.7-1.9,0.9-4,1.1-6c0.9-4.5,2.4-8.6,4.9-12.4c1.3-2,3.3-3.4,6-3.4c1.9,0,3.9,0.4,5.7,1
				c2,0.6,3.9,1.3,5.9,1.1c0.6,0,1,0.1,1.6,0.4c0.4,0.1,1,0.4,1.4,0.6c3.4,0.6,5.7,2.9,8.2,5.2c0.7,0.6,1.1,1.7,1.6,2.7
				c1,2.9,1.9,5.9,2.7,8.8c0.3,0.9,0.1,1.9,0.3,2.9c0,3.2,0,6.3-0.1,9.6c0,3.2-0.1,6.5-0.1,9.8c0,1.3,0.1,2.6,0.1,3.7
				c0.1,2.9,0.4,5.7,0.4,8.5c0,2.9,0,5.6-0.1,8.3c-0.3,3.3-0.4,6.6-0.9,9.9c-0.9,6.3-0.9,12.9-2.7,19c-0.3,1.1-1.1,2.2-1.3,3.4
				c-0.3,1.9-1.6,3.3-2.4,4.9c-1.4,3-3.4,5.5-6.6,6.6c-1.3,0.4-2.4,0.7-3.6,1.3c-1.6,0.7-3.4,0.7-5.2,0.3c-2.4-0.6-4.9-1.3-6.9-2.6
				c-3.2-1.9-5.9-4.3-7-8c-0.7-2.3-1.9-4.6-2.6-6.9c-0.4-1.7-0.3-3.4-0.6-5.2c0-0.4,0-0.7,0-1.1c0,0,0,0-0.1,0
				C111.6,323.7,111.1,318.8,110.7,313.8z M124.5,258c-1.1,4.2-2.2,8.5-2.9,12.8c-0.6,4.5-0.6,8.9-0.9,13.4
				c-0.4,6.9-0.9,13.9-0.1,21c0.1,2.2,0,4.5,0.1,6.8c0.1,2.7,0.3,5.5,0.6,8.2c0.3,2.6,0.9,5.2,0.9,7.8c0,2.3,0.4,4.5,0.9,6.6
				c0.1,1.3,0.6,2.4,0.7,3.6c0.3,2,1.3,3.7,2.4,5.3c1.4,2,4,2.7,5.6,1.3c1.6-1.6,3.2-3.3,4.2-5.2c2.3-3.7,3.2-8.2,3.9-12.5
				c0.9-5.3,1.4-10.6,1.9-15.9c0.4-5.5,1.1-10.9,0.6-16.5c-0.4-3.7-0.3-7.5-0.3-11.2c0-5,0-10.2,0.1-15.2c0.1-3.4-0.4-6.8-1.6-10.1
				c-0.4-1.4-1.4-2.9-2.2-4.2c-0.3-0.4-0.9-0.9-1.3-1c-1.7-0.1-3.4-0.7-4.9,0.4c-0.9,0.7-1.9,0.9-2.9,0.6c-0.7-0.3-1.6-0.3-2.4-0.6
				C126.1,255,124.9,256.3,124.5,258z"/>
		</g>
		<g>
			<path d="M190.9,345.9c0.1,2.3-1.6,4.5-4,4.7c-3,0.4-5.9,0.7-8.9,1.1c-1.1,0.3-2.3,0.7-3.4,0.9c-1.9,0.1-3.7,0.3-5.6,0.6
				c-1.3,0.1-2.6,0.3-3.9,0.6c-0.3,0.1-0.6,0.1-0.7,0.1c-2.9,0.4-6,1-8.8,0.7c-2.9-0.3-3.7-4.2-0.7-5c0.4-0.1,0.9-0.3,1.3-0.4
				c0.3-0.6,1-1.1,2-1.1c0.6,0,1-0.1,1.6-0.3v-0.1c0-2.6,0.4-5.2,0.6-7.8c0.6-6,1-11.9,1.3-17.8c0.3-5,0.1-10.1,0.1-15.1
				c0.1-3.9,0.3-7.9,0.4-11.8c0-3.2,0-6.3,0.1-9.5c0.3-4.9,0.6-9.6,0.9-14.5c0-2.9,0-5.7,0.1-8.6c0.1-5.6,0.4-11.2,0.6-16.8
				c-1.6-0.1-3.2-0.1-4.7-0.1c-2.9-0.1-2.9-4.5,0-4.5c4.5-0.1,8.9-0.3,13.4-0.3c0.4,0,0.7,0.1,1,0.3c0.6,0,1.3,0,1.9,0
				c3,0,3,4.9,0,4.9c-1.3,0-2.4-0.1-3.6-0.1c0,1,0,2.2,0,3.2c-0.1,6-0.1,12.1-0.3,18.1c0,1.6-0.1,3.2-0.1,4.7c0,4.3,0,8.8-0.1,13.2
				c-0.1,2.9-0.4,5.9-0.6,8.9c-0.1,1-0.1,2.2-0.1,3.2c0.1,8.3,0,16.8-0.1,25.1c-0.1,2.6-0.6,5.3-0.7,7.9c-0.4,4-0.9,8-1.3,12.1
				c-0.1,1.1,0.1,2.3,0.3,3.9c1.9-0.3,3.9-0.6,5.9-0.9c3.3-0.7,6.8-1.6,10.1-2c0.3-0.1,0.4-0.1,0.6-0.1c-0.3-2.2-0.4-4.5,0.6-6.5
				c0.1-0.1,0.3-0.3,0.4-0.4c0.1-2.2,3.4-3.3,4.5-1.1C192.2,338.6,191.6,342.4,190.9,345.9z"/>
		</g>
		<g>
			<path d="M238.7,327.3c0,1-0.3,2.2-0.6,3.3c-0.3,2-0.9,4-1.3,6.2c-0.4,2.7-1.4,5.5-2.7,7.9c-0.9,1.4-2.3,2.4-3.3,3.9
				c-2.9,3.7-7.2,5.2-11.2,7.2c-1.6,0.7-3,1.6-4.7,1.3c-0.7-0.1-1.4-0.1-2.2-0.3c-1.1-0.3-2.3-0.6-3.7-0.3c-0.1,0-0.4,0-0.7,0
				c-3.6,0.6-7.8-0.4-11.4-0.7c-3.6-0.4-3.6-5.3,0-5.6c1.3-0.1,2.4-0.3,3.7,0c-0.1-1-0.3-2-0.3-3c0-1.1-0.1-2.2-0.3-3.3
				c0-2,0-4.2,0-6.2c0-2.3,0.3-4.5,0.3-6.8c0-3.3-0.1-6.8-0.1-10.1c0-3.9,0.3-7.8,0.3-11.5c0.1-3,0.1-6,0-9.1
				c-0.1-5.6,0.3-11.1,0.7-16.7c0.3-5.5,0.7-10.9,1.1-16.4c0.3-4.7,0.6-9.6,0.9-14.5c0.1-2.7,0.1-5.5,0.3-8.2c-0.9,0-1.9,0-2.7-0.1
				c-3.2-0.3-3.2-4.6,0-5c2.7-0.3,5.6-0.1,8.5,0c0.3-0.1,0.6-0.3,0.9-0.3c3,0.1,6.2,0.1,9.2,0.4c1.3,0.1,2.7,0.3,4.2,0.6
				c1.9,0.4,3.4,1.4,5.3,2.2c2.6,0.9,3.9,3.2,5.3,5.2c2.7,4.3,3.9,8.9,3.9,14.1c-0.1,4.9-0.4,9.8-1,14.5c-0.4,3.4-2.2,6.3-4,9.2
				c-1.4,2.2-3.4,3.2-5.7,4.2c0.3,0.4,0.3,0.9,0.6,1c1.4,0.6,2.2,2,3.3,3c1.6,1.4,2.6,3,3.2,5c0.6,1.7,1.4,3.4,2,5.3
				c1.1,4,2,8,2.2,12.4C238.7,319.8,238.7,323.5,238.7,327.3z M229.4,320.2c-0.1-3.9-0.4-7.8-0.6-11.5c-0.1-4.3-1.7-8-3.3-11.9
				c-0.4-1-1.6-2.3-2.4-2.4c-2.6-0.4-5.3-1.1-7.9-0.4c-0.7,0.3-1.4,0.3-2.2-0.4c-0.6-0.9-1.4-1.3-2.6-2.3c-0.1,1.1-0.3,2-0.3,2.9
				c0,7-0.1,14.2-0.1,21.3c0,3.7,0.1,7.3,0.1,11.1c0,3.3,0,6.5,0,9.8c0,2.9,0,5.7,0,8.8c0,0.9-0.1,1.9-0.3,2.9c0.7,0,1.3,0,1.9,0
				c3.4,0.4,8-1.4,10.2-4c1.3-1.4,2.3-3.3,3.4-4.9c1.1-1.4,1.6-2.7,2-4.3C228.7,329.9,229.5,325.1,229.4,320.2z M211.4,275
				c-0.1,3.6-0.4,7.2-0.9,11.5c2.2-0.6,3.7-0.9,5.3-1.4c1.9-0.7,3.9-1.6,5.6-2.7c3.7-2.7,6-6.5,6.5-11.1c0.3-2.6,0.7-5,0.9-7.6
				c0.3-2.2,0.4-4.5,0.3-6.6c0-1.6-0.4-3.2-0.7-4.7c-0.3-2.3-1.6-3.9-3.6-4.7c-4.2-1.7-8.5-2.2-12.8-1.1c0,0.9,0.1,1.6,0.1,2.3
				c-0.1,1.4-0.4,2.7-0.4,4c-0.1,3.3-0.3,6.6-0.4,9.9c0,0.6-0.1,1,0,1.6C212.2,267.8,211.6,271.4,211.4,275z"/>
		</g>
		<g>
			<path d="M246.1,313.8c-0.1-2.4-0.1-4.9-0.1-7.3c-0.1-5-0.3-10.1-0.3-15.1c0-2.9,0.3-5.7,0.4-8.6c0.1-2.9,0.4-5.6,0.6-8.5
				c0.3-2.7,0.1-5.5,1-8c0.7-1.9,0.9-4,1.1-6c0.9-4.5,2.4-8.6,4.9-12.4c1.3-2,3.3-3.4,6-3.4c1.9,0,3.9,0.4,5.7,1
				c2,0.6,3.9,1.3,5.9,1.1c0.6,0,1,0.1,1.6,0.4c0.4,0.1,1,0.4,1.4,0.6c3.4,0.6,5.7,2.9,8.2,5.2c0.7,0.6,1.1,1.7,1.6,2.7
				c1,2.9,1.9,5.9,2.7,8.8c0.3,0.9,0.1,1.9,0.3,2.9c0,3.2,0,6.3-0.1,9.6c0,3.2-0.1,6.5-0.1,9.8c0,1.3,0.1,2.6,0.1,3.7
				c0.1,2.9,0.4,5.7,0.4,8.5c0,2.9,0,5.6-0.1,8.3c-0.3,3.3-0.4,6.6-0.9,9.9c-0.9,6.3-0.9,12.9-2.7,19c-0.3,1.1-1.1,2.2-1.3,3.4
				c-0.3,1.9-1.6,3.3-2.4,4.9c-1.4,3-3.4,5.5-6.6,6.6c-1.3,0.4-2.4,0.7-3.6,1.3c-1.6,0.7-3.4,0.7-5.2,0.3c-2.4-0.6-4.9-1.3-6.9-2.6
				c-3.2-1.9-5.9-4.3-7-8c-0.7-2.3-1.9-4.6-2.6-6.9c-0.4-1.7-0.3-3.4-0.6-5.2c0-0.4,0-0.7,0-1.1c0,0,0,0-0.1,0
				C247,323.7,246.6,318.8,246.1,313.8z M259.9,258c-1.1,4.2-2.2,8.5-2.9,12.8c-0.6,4.5-0.6,8.9-0.9,13.4c-0.4,6.9-0.9,13.9-0.1,21
				c0.1,2.2,0,4.5,0.1,6.8c0.1,2.7,0.3,5.5,0.6,8.2c0.3,2.6,0.9,5.2,0.9,7.8c0,2.3,0.4,4.5,0.9,6.6c0.1,1.3,0.6,2.4,0.7,3.6
				c0.3,2,1.3,3.7,2.4,5.3c1.4,2,4,2.7,5.6,1.3c1.6-1.6,3.2-3.3,4.2-5.2c2.3-3.7,3.2-8.2,3.9-12.5c0.9-5.3,1.4-10.6,1.9-15.9
				c0.4-5.5,1.1-10.9,0.6-16.5c-0.4-3.7-0.3-7.5-0.3-11.2c0-5,0-10.2,0.1-15.2c0.1-3.4-0.4-6.8-1.6-10.1c-0.4-1.4-1.4-2.9-2.2-4.2
				c-0.3-0.4-0.9-0.9-1.3-1c-1.7-0.1-3.4-0.7-4.9,0.4c-0.9,0.7-1.9,0.9-2.9,0.6c-0.7-0.3-1.6-0.3-2.4-0.6
				C261.5,255,260.4,256.3,259.9,258z"/>
		</g>
		<g>
			<path d="M339.5,247.8c-0.4,0-0.9,0.1-1.3,0.1c0,0.3,0,0.6,0,0.9c-0.4,2.2-1,4.3-2,6.3c-1.3,2.9-2.4,5.9-3.6,8.8
				c-1.9,4.7-3.7,9.5-5.6,14.4c-1.3,3.7-2.6,7.5-3.7,11.2c-0.9,2.9-1.4,5.9-2.3,8.8c-0.3,1.3-1,2.4-1.4,3.7
				c-0.7,1.7-0.9,3.3-0.3,5.2c0.9,3.4,1.6,6.9,2.4,10.3c0.3,1.4,0.7,2.9,1.1,4.3c0.6,2.6,1.3,5.3,2,8c0.3,1,0.7,2,1.1,3.2
				c1.3,3.6,2.7,7.2,4.2,10.8c0.3,0.6,0.3,1.1,0.6,1.7c0.1,0.3,0.1,0.4,0.3,0.7c1.6,0,3.3,0,4.9,0c3.4,0,3.4,5.3,0,5.3
				c-5.6,0.4-11.4,0.6-17,0.7c-3.7,0.1-3.7-5.6,0-5.7c0.6,0,1.1,0,1.6,0c0-0.1,0-0.4,0-0.6c-1.1-3.7-2.3-7.5-3.4-11.1
				c-1.4-4.3-2.7-8.5-4.2-12.8c-1,0.6-1.1,1.4-1.4,2.4c-1,3.7-2,7.5-3,11.2c-0.4,1.6-1.3,3-1.9,4.5c-0.3,0.6-0.6,1.1-0.7,1.7
				c-0.6,1.3-1,2.7-1.6,4.2c-0.1,0.3-0.1,0.6-0.3,0.9c0.7,0,1.3-0.1,2-0.1c3.6-0.1,3.4,5,0,5.5c-1.9,0.3-3.9,0.4-5.7,0.6
				c-0.3,0.1-0.6,0.3-1,0.3c-0.3,0-0.6,0-0.9-0.1c-3,0.3-6,0.4-9.1,0.6c-3.7,0.1-3.7-5.7,0-5.7c1.1-0.1,2.2-0.1,3.3-0.3
				c0-0.3,0.1-0.7,0.4-1.3c0.4-1.3,1.1-2.6,1.6-3.9c1.4-3.6,2.4-7.3,4-10.8c2-4,2.3-8.6,4-12.6c1.6-3.4,2.7-6.9,3.9-10.3
				c0.4-0.9,0.4-1.7,0.9-2.4c1.3-2.6,1.1-5.3,0.4-7.9c-1.3-5.3-2.7-10.5-3.9-15.8c-1.3-5.9-2.7-11.9-3.6-18
				c-0.3-1.9-0.9-3.7-1.3-5.5c-0.6-2.9-1.1-5.6-1.9-8.3c-0.3-0.9-0.6-1.7-1-2.6c-0.7,0-1.4,0-2.2,0c-3.6-0.1-3.4-5.3,0-5.5
				c2.3-0.1,4.7-0.3,7.2-0.1c1.4,0,3-0.1,4.6-0.1c2.9,0,3.6,4.6,0.7,5.3c-0.7,0-1.4,0.1-2,0.1c0.1,0.4,0.3,0.7,0.6,1
				c1.7,3.3,2.3,7,3.3,10.5c1.6,5.3,2.4,10.8,3.3,16.4c0.4,2.7,1.4,5.5,2.2,8.5c0.4-0.6,0.7-1,0.9-1.3c2.4-6.6,4.7-13.1,7.3-19.7
				c1.3-3.2,2.9-6.3,4.3-9.6c0.6-1.6,1.4-3.2,1.9-5c-2.2,0-4.5,0-6.5-0.4c-2.2-0.3-2.3-3.3-0.9-4.5c0-0.1,0.1-0.1,0.1-0.1
				c0.3-0.3,0.6-0.4,1.1-0.4c0.1,0,0.1,0,0.3,0c5.3-1.1,11.5-0.7,17-0.9C343.1,242.2,342.9,247.7,339.5,247.8z"/>
		</g>
	</g>
	<g>
		<g>
			<path fill="#F04C00" d="M53.9,256c-1.7,0.4-3-0.6-3.6-2.2c-0.6-1.3-1-2.6-1.3-3.9c-3.4,0.1-6.9,0.3-10.3,0.4
				c-1.6,0.1-3.2,0.6-4.7,0.9c0.4,3.7,1.1,7.5,1.4,11.1c0.3,3.9,0.4,7.6,0.4,11.5c0.1,4.7,0.1,9.6,0,14.4c0,5.2-0.1,10.5-0.1,15.7
				c0,3.3,0.1,6.6,0.1,9.9c-0.1,3.4-0.4,6.8-0.6,10.2c0,1.4,0.1,2.7,0.1,4c0.1,4.6,0.1,9.1,0.4,13.5c0.1,1.6-0.4,2.9-1,4
				c-0.7,1.1-3.3,1.7-4.5,1c-1.6-0.9-3-1.9-4.5-2.9c-1.1-0.7-1.3-2-1.4-3.2c0-2,0.3-4,0.3-6c0.1-7.3,0.3-14.7,0.4-22
				c0.1-4.6,0.3-9.3,0.3-14.1c0.1-4.3,0-8.5,0-12.8c0-3.7,0.1-7.5,0.3-11.2c0.1-6.5,0-12.9-0.6-19.4c0-0.3-0.1-0.7-0.1-1.1
				c-0.1-1-0.6-1.4-1.7-1.6c-2.3,0-4.5-0.4-6.6-0.3c-1,0-1.9-0.4-2.6-1c-0.3,1-0.7,2-1,2.9c-0.4,1-0.9,2.2-1.4,3.2
				c-1.3,2.6-5.6,0.7-4.7-2c0.7-2.3,1.6-4.5,2.4-6.6c0-0.6,0.3-1,0.6-1.6c0.7-1,2-1.4,3.2-1.1c1.7,0,3.4,0.1,5.2,0.1
				c0.9,0.1,1.9,0.1,2.9,0c3.4-0.7,7-1.4,10.5-1.9c2.2-0.4,4.5-0.4,6.8-0.6c2.2-0.3,4.5-0.6,6.8-1.1c1-0.1,2.3,0.3,3-0.7
				c0-0.1,0.4,0,0.6,0c0.6,0.4,1.1,0.7,1.7,0.9c0.1,0,0.1,0,0.3,0c0.4-0.3,1.1-0.3,1.7-0.1c0.1,0,0.1,0.1,0.1,0.1c1.1,0.3,1.7,1,2,2
				c0.4,0.4,0.6,1,0.6,1.7c0,0.6-0.1,1.1-0.4,1.6c0.4,1.6,0.9,3.2,1.1,4.6C56.5,253.9,55.3,255.6,53.9,256z"/>
		</g>
		<g>
			<path fill="#F04C00" d="M59,310.6c-0.1-2.4-0.1-4.9-0.1-7.3c-0.1-5-0.3-10.1-0.3-15.1c0-2.9,0.3-5.7,0.4-8.6
				c0.1-2.9,0.4-5.6,0.6-8.5c0.3-2.7,0.1-5.5,1-8c0.7-1.9,0.9-4,1.1-6c0.9-4.5,2.4-8.6,4.9-12.4c1.3-2,3.3-3.4,6-3.4
				c1.9,0,3.9,0.4,5.7,1c2,0.6,3.9,1.3,5.9,1.1c0.6,0,1,0.1,1.6,0.4c0.4,0.1,1,0.4,1.4,0.6c3.4,0.6,5.7,2.9,8.2,5.2
				c0.7,0.6,1.1,1.7,1.6,2.7c1,2.9,1.9,5.9,2.7,8.8c0.3,0.9,0.1,1.9,0.3,2.9c0,3.2,0,6.3-0.1,9.6c0,3.2-0.1,6.5-0.1,9.8
				c0,1.3,0.1,2.6,0.1,3.7c0.1,2.9,0.4,5.7,0.4,8.5c0,2.9,0,5.6-0.1,8.3c-0.3,3.3-0.4,6.6-0.9,9.9c-0.9,6.3-0.9,12.9-2.7,19
				c-0.3,1.1-1.1,2.2-1.3,3.4c-0.3,1.9-1.6,3.3-2.4,4.9c-1.4,3-3.4,5.5-6.6,6.6c-1.3,0.4-2.4,0.7-3.6,1.3c-1.6,0.7-3.4,0.7-5.2,0.3
				c-2.4-0.6-4.9-1.3-6.9-2.6c-3.2-1.9-5.9-4.3-7-8c-0.7-2.3-1.9-4.6-2.6-6.9c-0.4-1.7-0.3-3.4-0.6-5.2c0-0.4,0-0.7,0-1.1
				c0,0,0,0-0.1,0C59.8,320.5,59.4,315.6,59,310.6z M72.8,254.9c-1.1,4.2-2.2,8.5-2.9,12.8c-0.6,4.5-0.6,8.9-0.9,13.4
				c-0.4,6.9-0.9,13.9-0.1,21c0.1,2.2,0,4.5,0.1,6.8c0.1,2.7,0.3,5.5,0.6,8.2c0.3,2.6,0.9,5.2,0.9,7.8c0,2.3,0.4,4.5,0.9,6.6
				c0.1,1.3,0.6,2.4,0.7,3.6c0.3,2,1.3,3.7,2.4,5.3c1.4,2,4,2.7,5.6,1.3c1.6-1.6,3.2-3.3,4.2-5.2c2.3-3.7,3.2-8.2,3.9-12.5
				c0.9-5.3,1.4-10.6,1.9-15.9c0.4-5.5,1.1-10.9,0.6-16.5c-0.4-3.7-0.3-7.5-0.3-11.2c0-5,0-10.2,0.1-15.2c0.1-3.4-0.4-6.8-1.6-10.1
				c-0.4-1.4-1.4-2.9-2.2-4.2c-0.3-0.4-0.9-0.9-1.3-1c-1.7-0.1-3.4-0.7-4.9,0.4c-0.9,0.7-1.9,0.9-2.9,0.6c-0.7-0.3-1.6-0.3-2.4-0.6
				C74.3,251.9,73.2,253.1,72.8,254.9z"/>
		</g>
		<g>
			<path fill="#F04C00" d="M108.7,310.6c-0.1-2.4-0.1-4.9-0.1-7.3c-0.1-5-0.3-10.1-0.3-15.1c0-2.9,0.3-5.7,0.4-8.6
				c0.1-2.9,0.4-5.6,0.6-8.5c0.3-2.7,0.1-5.5,1-8c0.7-1.9,0.9-4,1.1-6c0.9-4.5,2.4-8.6,4.9-12.4c1.3-2,3.3-3.4,6-3.4
				c1.9,0,3.9,0.4,5.7,1c2,0.6,3.9,1.3,5.9,1.1c0.6,0,1,0.1,1.6,0.4c0.4,0.1,1,0.4,1.4,0.6c3.4,0.6,5.7,2.9,8.2,5.2
				c0.7,0.6,1.1,1.7,1.6,2.7c1,2.9,1.9,5.9,2.7,8.8c0.3,0.9,0.1,1.9,0.3,2.9c0,3.2,0,6.3-0.1,9.6c0,3.2-0.1,6.5-0.1,9.8
				c0,1.3,0.1,2.6,0.1,3.7c0.1,2.9,0.4,5.7,0.4,8.5c0,2.9,0,5.6-0.1,8.3c-0.3,3.3-0.4,6.6-0.9,9.9c-0.9,6.3-0.9,12.9-2.7,19
				c-0.3,1.1-1.1,2.2-1.3,3.4c-0.3,1.9-1.6,3.3-2.4,4.9c-1.4,3-3.4,5.5-6.6,6.6c-1.3,0.4-2.4,0.7-3.6,1.3c-1.6,0.7-3.4,0.7-5.2,0.3
				c-2.4-0.6-4.9-1.3-6.9-2.6c-3.2-1.9-5.9-4.3-7-8c-0.7-2.3-1.9-4.6-2.6-6.9c-0.4-1.7-0.3-3.4-0.6-5.2c0-0.4,0-0.7,0-1.1
				c0,0,0,0-0.1,0C109.6,320.5,109.1,315.6,108.7,310.6z M122.5,254.9c-1.1,4.2-2.2,8.5-2.9,12.8c-0.6,4.5-0.6,8.9-0.9,13.4
				c-0.4,6.9-0.9,13.9-0.1,21c0.1,2.2,0,4.5,0.1,6.8c0.1,2.7,0.3,5.5,0.6,8.2c0.3,2.6,0.9,5.2,0.9,7.8c0,2.3,0.4,4.5,0.9,6.6
				c0.1,1.3,0.6,2.4,0.7,3.6c0.3,2,1.3,3.7,2.4,5.3c1.4,2,4,2.7,5.6,1.3c1.6-1.6,3.2-3.3,4.2-5.2c2.3-3.7,3.2-8.2,3.9-12.5
				c0.9-5.3,1.4-10.6,1.9-15.9c0.4-5.5,1.1-10.9,0.6-16.5c-0.4-3.7-0.3-7.5-0.3-11.2c0-5,0-10.2,0.1-15.2c0.1-3.4-0.4-6.8-1.6-10.1
				c-0.4-1.4-1.4-2.9-2.2-4.2c-0.3-0.4-0.9-0.9-1.3-1c-1.7-0.1-3.4-0.7-4.9,0.4c-0.9,0.7-1.9,0.9-2.9,0.6c-0.7-0.3-1.6-0.3-2.4-0.6
				C124.1,251.9,122.9,253.1,122.5,254.9z"/>
		</g>
		<g>
			<path fill="#F04C00" d="M188.9,342.8c0.1,2.3-1.6,4.5-4,4.7c-3,0.4-5.9,0.7-8.9,1.1c-1.1,0.3-2.3,0.7-3.4,0.9
				c-1.9,0.1-3.7,0.3-5.6,0.6c-1.3,0.1-2.6,0.3-3.9,0.6c-0.3,0.1-0.6,0.1-0.7,0.1c-2.9,0.4-6,1-8.8,0.7c-2.9-0.3-3.7-4.2-0.7-5
				c0.4-0.1,0.9-0.3,1.3-0.4c0.3-0.6,1-1.1,2-1.1c0.6,0,1-0.1,1.6-0.3v-0.1c0-2.6,0.4-5.2,0.6-7.8c0.6-6,1-11.9,1.3-17.8
				c0.3-5,0.1-10.1,0.1-15.1c0.1-3.9,0.3-7.9,0.4-11.8c0-3.2,0-6.3,0.1-9.5c0.3-4.9,0.6-9.6,0.9-14.5c0-2.9,0-5.7,0.1-8.6
				c0.1-5.6,0.4-11.2,0.6-16.8c-1.6-0.1-3.2-0.1-4.7-0.1c-2.9-0.1-2.9-4.5,0-4.5c4.5-0.1,8.9-0.3,13.4-0.3c0.4,0,0.7,0.1,1,0.3
				c0.6,0,1.3,0,1.9,0c3,0,3,4.9,0,4.9c-1.3,0-2.4-0.1-3.6-0.1c0,1,0,2.2,0,3.2c-0.1,6-0.1,12.1-0.3,18.1c0,1.6-0.1,3.2-0.1,4.7
				c0,4.3,0,8.8-0.1,13.2c-0.1,2.9-0.4,5.9-0.6,8.9c-0.1,1-0.1,2.2-0.1,3.2c0.1,8.3,0,16.8-0.1,25.1c-0.1,2.6-0.6,5.3-0.7,7.9
				c-0.4,4-0.9,8-1.3,12.1c-0.1,1.1,0.1,2.3,0.3,3.9c1.9-0.3,3.9-0.6,5.9-0.9c3.3-0.7,6.8-1.6,10.1-2c0.3-0.1,0.4-0.1,0.6-0.1
				c-0.3-2.2-0.4-4.5,0.6-6.5c0.1-0.1,0.3-0.3,0.4-0.4c0.1-2.2,3.4-3.3,4.5-1.1C190.2,335.5,189.6,339.2,188.9,342.8z"/>
		</g>
		<g>
			<path fill="#F04C00" d="M236.7,324.1c0,1-0.3,2.2-0.6,3.3c-0.3,2-0.9,4-1.3,6.2c-0.4,2.7-1.4,5.5-2.7,7.9
				c-0.9,1.4-2.3,2.4-3.3,3.9c-2.9,3.7-7.2,5.2-11.2,7.2c-1.6,0.7-3,1.6-4.7,1.3c-0.7-0.1-1.4-0.1-2.2-0.3c-1.1-0.3-2.3-0.6-3.7-0.3
				c-0.1,0-0.4,0-0.7,0c-3.6,0.6-7.8-0.4-11.4-0.7c-3.6-0.4-3.6-5.3,0-5.6c1.3-0.1,2.4-0.3,3.7,0c-0.1-1-0.3-2-0.3-3
				c0-1.1-0.1-2.2-0.3-3.3c0-2,0-4.2,0-6.2c0-2.3,0.3-4.5,0.3-6.8c0-3.3-0.1-6.8-0.1-10.1c0-3.9,0.3-7.8,0.3-11.5c0.1-3,0.1-6,0-9.1
				c-0.1-5.6,0.3-11.1,0.7-16.7c0.3-5.5,0.7-10.9,1.1-16.4c0.3-4.7,0.6-9.6,0.9-14.5c0.1-2.7,0.1-5.5,0.3-8.2c-0.9,0-1.9,0-2.7-0.1
				c-3.2-0.3-3.2-4.6,0-5c2.7-0.3,5.6-0.1,8.5,0c0.3-0.1,0.6-0.3,0.9-0.3c3,0.1,6.2,0.1,9.2,0.4c1.3,0.1,2.7,0.3,4.2,0.6
				c1.9,0.4,3.4,1.4,5.3,2.2c2.6,0.9,3.9,3.2,5.3,5.2c2.7,4.3,3.9,8.9,3.9,14.1c-0.1,4.9-0.4,9.8-1,14.5c-0.4,3.4-2.2,6.3-4,9.2
				c-1.4,2.2-3.4,3.2-5.7,4.2c0.3,0.4,0.3,0.9,0.6,1c1.4,0.6,2.2,2,3.3,3c1.6,1.4,2.6,3,3.2,5c0.6,1.7,1.4,3.4,2,5.3
				c1.1,4,2,8,2.2,12.4C236.7,316.7,236.7,320.4,236.7,324.1z M227.4,317.1c-0.1-3.9-0.4-7.8-0.6-11.5c-0.1-4.3-1.7-8-3.3-11.9
				c-0.4-1-1.6-2.3-2.4-2.4c-2.6-0.4-5.3-1.1-7.9-0.4c-0.7,0.3-1.4,0.3-2.2-0.4c-0.6-0.9-1.4-1.3-2.6-2.3c-0.1,1.1-0.3,2-0.3,2.9
				c0,7-0.1,14.2-0.1,21.3c0,3.7,0.1,7.3,0.1,11.1c0,3.3,0,6.5,0,9.8c0,2.9,0,5.7,0,8.8c0,0.9-0.1,1.9-0.3,2.9c0.7,0,1.3,0,1.9,0
				c3.4,0.4,8-1.4,10.2-4c1.3-1.4,2.3-3.3,3.4-4.9c1.1-1.4,1.6-2.7,2-4.3C226.7,326.7,227.5,322,227.4,317.1z M209.4,271.8
				c-0.1,3.6-0.4,7.2-0.9,11.5c2.2-0.6,3.7-0.9,5.3-1.4c1.9-0.7,3.9-1.6,5.6-2.7c3.7-2.7,6-6.5,6.5-11.1c0.3-2.6,0.7-5,0.9-7.6
				c0.3-2.2,0.4-4.5,0.3-6.6c0-1.6-0.4-3.2-0.7-4.7c-0.3-2.3-1.6-3.9-3.6-4.7c-4.2-1.7-8.5-2.2-12.8-1.1c0,0.9,0.1,1.6,0.1,2.3
				c-0.1,1.4-0.4,2.7-0.4,4c-0.1,3.3-0.3,6.6-0.4,9.9c0,0.6-0.1,1,0,1.6C210.2,264.6,209.6,268.2,209.4,271.8z"/>
		</g>
		<g>
			<path fill="#F04C00" d="M244.1,310.6c-0.1-2.4-0.1-4.9-0.1-7.3c-0.1-5-0.3-10.1-0.3-15.1c0-2.9,0.3-5.7,0.4-8.6
				c0.1-2.9,0.4-5.6,0.6-8.5c0.3-2.7,0.1-5.5,1-8c0.7-1.9,0.9-4,1.1-6c0.9-4.5,2.4-8.6,4.9-12.4c1.3-2,3.3-3.4,6-3.4
				c1.9,0,3.9,0.4,5.7,1c2,0.6,3.9,1.3,5.9,1.1c0.6,0,1,0.1,1.6,0.4c0.4,0.1,1,0.4,1.4,0.6c3.4,0.6,5.7,2.9,8.2,5.2
				c0.7,0.6,1.1,1.7,1.6,2.7c1,2.9,1.9,5.9,2.7,8.8c0.3,0.9,0.1,1.9,0.3,2.9c0,3.2,0,6.3-0.1,9.6c0,3.2-0.1,6.5-0.1,9.8
				c0,1.3,0.1,2.6,0.1,3.7c0.1,2.9,0.4,5.7,0.4,8.5c0,2.9,0,5.6-0.1,8.3c-0.3,3.3-0.4,6.6-0.9,9.9c-0.9,6.3-0.9,12.9-2.7,19
				c-0.3,1.1-1.1,2.2-1.3,3.4c-0.3,1.9-1.6,3.3-2.4,4.9c-1.4,3-3.4,5.5-6.6,6.6c-1.3,0.4-2.4,0.7-3.6,1.3c-1.6,0.7-3.4,0.7-5.2,0.3
				c-2.4-0.6-4.9-1.3-6.9-2.6c-3.2-1.9-5.9-4.3-7-8c-0.7-2.3-1.9-4.6-2.6-6.9c-0.4-1.7-0.3-3.4-0.6-5.2c0-0.4,0-0.7,0-1.1
				c0,0,0,0-0.1,0C245,320.5,244.6,315.6,244.1,310.6z M257.9,254.9c-1.1,4.2-2.2,8.5-2.9,12.8c-0.6,4.5-0.6,8.9-0.9,13.4
				c-0.4,6.9-0.9,13.9-0.1,21c0.1,2.2,0,4.5,0.1,6.8c0.1,2.7,0.3,5.5,0.6,8.2c0.3,2.6,0.9,5.2,0.9,7.8c0,2.3,0.4,4.5,0.9,6.6
				c0.1,1.3,0.6,2.4,0.7,3.6c0.3,2,1.3,3.7,2.4,5.3c1.4,2,4,2.7,5.6,1.3c1.6-1.6,3.2-3.3,4.2-5.2c2.3-3.7,3.2-8.2,3.9-12.5
				c0.9-5.3,1.4-10.6,1.9-15.9c0.4-5.5,1.1-10.9,0.6-16.5c-0.4-3.7-0.3-7.5-0.3-11.2c0-5,0-10.2,0.1-15.2c0.1-3.4-0.4-6.8-1.6-10.1
				c-0.4-1.4-1.4-2.9-2.2-4.2c-0.3-0.4-0.9-0.9-1.3-1c-1.7-0.1-3.4-0.7-4.9,0.4c-0.9,0.7-1.9,0.9-2.9,0.6c-0.7-0.3-1.6-0.3-2.4-0.6
				C259.5,251.9,258.4,253.1,257.9,254.9z"/>
		</g>
		<g>
			<path fill="#F04C00" d="M337.5,244.7c-0.4,0-0.9,0.1-1.3,0.1c0,0.3,0,0.6,0,0.9c-0.4,2.2-1,4.3-2,6.3c-1.3,2.9-2.4,5.9-3.6,8.8
				c-1.9,4.7-3.7,9.5-5.6,14.4c-1.3,3.7-2.6,7.5-3.7,11.2c-0.9,2.9-1.4,5.9-2.3,8.8c-0.3,1.3-1,2.4-1.4,3.7
				c-0.7,1.7-0.9,3.3-0.3,5.2c0.9,3.4,1.6,6.9,2.4,10.3c0.3,1.4,0.7,2.9,1.1,4.3c0.6,2.6,1.3,5.3,2,8c0.3,1,0.7,2,1.1,3.2
				c1.3,3.6,2.7,7.2,4.2,10.8c0.3,0.6,0.3,1.1,0.6,1.7c0.1,0.3,0.1,0.4,0.3,0.7c1.6,0,3.3,0,4.9,0c3.4,0,3.4,5.3,0,5.3
				c-5.6,0.4-11.4,0.6-17,0.7c-3.7,0.1-3.7-5.6,0-5.7c0.6,0,1.1,0,1.6,0c0-0.1,0-0.4,0-0.6c-1.1-3.7-2.3-7.5-3.4-11.1
				c-1.4-4.3-2.7-8.5-4.2-12.8c-1,0.6-1.1,1.4-1.4,2.4c-1,3.7-2,7.5-3,11.2c-0.4,1.6-1.3,3-1.9,4.5c-0.3,0.6-0.6,1.1-0.7,1.7
				c-0.6,1.3-1,2.7-1.6,4.2c-0.1,0.3-0.1,0.6-0.3,0.9c0.7,0,1.3-0.1,2-0.1c3.6-0.1,3.4,5,0,5.5c-1.9,0.3-3.9,0.4-5.7,0.6
				c-0.3,0.1-0.6,0.3-1,0.3c-0.3,0-0.6,0-0.9-0.1c-3,0.3-6,0.4-9.1,0.6c-3.7,0.1-3.7-5.7,0-5.7c1.1-0.1,2.2-0.1,3.3-0.3
				c0-0.3,0.1-0.7,0.4-1.3c0.4-1.3,1.1-2.6,1.6-3.9c1.4-3.6,2.4-7.3,4-10.8c2-4,2.3-8.6,4-12.6c1.6-3.4,2.7-6.9,3.9-10.3
				c0.4-0.9,0.4-1.7,0.9-2.4c1.3-2.6,1.1-5.3,0.4-7.9c-1.3-5.3-2.7-10.5-3.9-15.8c-1.3-5.9-2.7-11.9-3.6-18
				c-0.3-1.9-0.9-3.7-1.3-5.5c-0.6-2.9-1.1-5.6-1.9-8.3c-0.3-0.9-0.6-1.7-1-2.6c-0.7,0-1.4,0-2.2,0c-3.6-0.1-3.4-5.3,0-5.5
				c2.3-0.1,4.7-0.3,7.2-0.1c1.4,0,3-0.1,4.6-0.1c2.9,0,3.6,4.6,0.7,5.3c-0.7,0-1.4,0.1-2,0.1c0.1,0.4,0.3,0.7,0.6,1
				c1.7,3.3,2.3,7,3.3,10.5c1.6,5.3,2.4,10.8,3.3,16.4c0.4,2.7,1.4,5.5,2.2,8.5c0.4-0.6,0.7-1,0.9-1.3c2.4-6.6,4.7-13.1,7.3-19.7
				c1.3-3.2,2.9-6.3,4.3-9.6c0.6-1.6,1.4-3.2,1.9-5c-2.2,0-4.5,0-6.5-0.4c-2.2-0.3-2.3-3.3-0.9-4.5c0-0.1,0.1-0.1,0.1-0.1
				c0.3-0.3,0.6-0.4,1.1-0.4c0.1,0,0.1,0,0.3,0c5.3-1.1,11.5-0.7,17-0.9C341.1,239.1,340.9,244.5,337.5,244.7z"/>
		</g>
	</g>
</g>
<g>
	<path fill="#0094FF" d="M27.8,376.7v8.6h-2.4v-8.6h-3v-2.1h8.5v2.1H27.8z"/>
	<path fill="#0094FF" d="M39.2,374.7h2.4v10.7h-2.4v-4.2H35v4.2h-2.4v-10.7H35v4.5h4.3V374.7z"/>
	<path fill="#0094FF" d="M52,374.7v2.1h-5.3v2.2h4.8v2h-4.8v2.2h5.5v2.1h-7.9v-10.7H52z"/>
	<path fill="#0094FF" d="M61.2,382.6c0.4,0.5,0.9,0.7,1.6,0.7c0.7,0,1.2-0.2,1.6-0.7c0.4-0.5,0.6-1.2,0.6-2v-5.9h2.4v6
		c0,1.6-0.4,2.7-1.3,3.6c-0.9,0.8-2,1.2-3.3,1.2c-1.3,0-2.4-0.4-3.3-1.3c-0.9-0.8-1.3-2-1.3-3.6v-6h2.4v5.9
		C60.6,381.4,60.8,382.1,61.2,382.6z"/>
	<path fill="#0094FF" d="M69.8,385.4v-10.7h2.4v8.6h4.6v2.1H69.8z"/>
	<path fill="#0094FF" d="M82.1,376.7v8.6h-2.4v-8.6h-3v-2.1h8.5v2.1H82.1z"/>
	<path fill="#0094FF" d="M86.9,374.7h2.4v10.7h-2.4V374.7z"/>
	<path fill="#0094FF" d="M101.5,378.6l-2.9,5.9h-1.4l-2.9-5.9v6.7H92v-10.7h3.2l2.8,5.9l2.8-5.9h3.2v10.7h-2.4V378.6z"/>
	<path fill="#0094FF" d="M114.2,385.4l-1-2.3h-4.5l-1,2.3h-2.5l4.6-10.7h2.3l4.6,10.7H114.2z M111,377.9l-1.3,3.1h2.7L111,377.9z"/>
	<path fill="#0094FF" d="M121.8,376.7v8.6h-2.4v-8.6h-3v-2.1h8.5v2.1H121.8z"/>
	<path fill="#0094FF" d="M134.3,374.7v2.1h-5.3v2.2h4.8v2h-4.8v2.2h5.5v2.1h-7.9v-10.7H134.3z"/>
	<path fill="#0094FF" d="M148,374.7v2.1h-5v2.3h4.7v2.1H143v4.2h-2.4v-10.7H148z"/>
	<path fill="#0094FF" d="M158.7,378.2c0,1.7-0.7,2.8-2,3.3l2.7,3.8h-2.9L154,382h-1.7v3.4H150v-10.7h4.1c1.7,0,2.9,0.3,3.6,0.8
		C158.3,376.1,158.7,377,158.7,378.2z M155.8,379.5c0.3-0.3,0.4-0.7,0.4-1.3s-0.2-1-0.5-1.2c-0.3-0.2-0.8-0.3-1.6-0.3h-1.8v3.2h1.7
		C154.9,379.9,155.5,379.8,155.8,379.5z"/>
	<path fill="#0094FF" d="M170,383.9c-1.1,1.1-2.4,1.6-4,1.6s-2.9-0.5-4-1.6c-1.1-1.1-1.6-2.4-1.6-3.9c0-1.6,0.5-2.9,1.6-3.9
		c1.1-1.1,2.4-1.6,4-1.6s2.9,0.5,4,1.6c1.1,1.1,1.6,2.4,1.6,3.9C171.7,381.5,171.1,382.8,170,383.9z M169.2,380c0-1-0.3-1.8-0.9-2.4
		s-1.4-1-2.3-1c-0.9,0-1.6,0.3-2.3,1s-0.9,1.5-0.9,2.4s0.3,1.8,0.9,2.4s1.4,1,2.3,1c0.9,0,1.6-0.3,2.3-1S169.2,380.9,169.2,380z"/>
	<path fill="#0094FF" d="M181.2,374.7h2.4v10.7h-2.4l-5.1-6.7v6.7h-2.4v-10.7h2.2l5.3,6.9V374.7z"/>
	<path fill="#0094FF" d="M190.8,376.7v8.6h-2.4v-8.6h-3v-2.1h8.5v2.1H190.8z"/>
	<path fill="#0094FF" d="M203.3,374.7v2.1h-5.3v2.2h4.8v2h-4.8v2.2h5.5v2.1h-7.9v-10.7H203.3z"/>
	<path fill="#0094FF" d="M213.1,374.7h2.4v10.7h-2.4l-5.1-6.7v6.7h-2.4v-10.7h2.2l5.3,6.9V374.7z"/>
	<path fill="#0094FF" d="M226.3,376.1c1,0.9,1.5,2.2,1.5,3.9s-0.5,3-1.5,4c-1,1-2.5,1.5-4.6,1.5h-3.7v-10.7h3.8
		C223.8,374.7,225.2,375.1,226.3,376.1z M224.5,382.4c0.6-0.6,0.9-1.4,0.9-2.4s-0.3-1.9-0.9-2.4c-0.6-0.6-1.5-0.9-2.7-0.9h-1.3v6.5
		h1.5C223.1,383.3,223.9,383,224.5,382.4z"/>
	<path fill="#0094FF" d="M241.2,379.9h2.4v3.8c-1.1,1.2-2.5,1.8-4.4,1.8c-1.6,0-2.9-0.5-4-1.6c-1.1-1-1.6-2.4-1.6-3.9
		c0-1.6,0.5-2.9,1.6-4c1.1-1.1,2.4-1.6,3.9-1.6s2.9,0.5,4,1.5l-1.2,1.8c-0.5-0.4-0.9-0.7-1.3-0.9c-0.4-0.2-0.8-0.2-1.3-0.2
		c-0.9,0-1.7,0.3-2.3,0.9c-0.6,0.6-0.9,1.4-0.9,2.4s0.3,1.8,0.9,2.4c0.6,0.6,1.3,0.9,2.1,0.9c0.8,0,1.5-0.2,2.1-0.5V379.9z"/>
	<path fill="#0094FF" d="M253.4,374.7v2.1h-5.3v2.2h4.8v2h-4.8v2.2h5.5v2.1h-7.9v-10.7H253.4z"/>
	<path fill="#0094FF" d="M263.2,374.7h2.4v10.7h-2.4l-5.1-6.7v6.7h-2.4v-10.7h2.2l5.3,6.9V374.7z"/>
	<path fill="#0094FF" d="M276,374.7v2.1h-5.3v2.2h4.8v2h-4.8v2.2h5.5v2.1h-7.9v-10.7H276z"/>
	<path fill="#0094FF" d="M287,378.2c0,1.7-0.7,2.8-2,3.3l2.7,3.8h-2.9l-2.4-3.4h-1.7v3.4h-2.4v-10.7h4.1c1.7,0,2.9,0.3,3.6,0.8
		C286.6,376.1,287,377,287,378.2z M284.1,379.5c0.3-0.3,0.4-0.7,0.4-1.3s-0.2-1-0.5-1.2c-0.3-0.2-0.8-0.3-1.6-0.3h-1.8v3.2h1.7
		C283.3,379.9,283.8,379.8,284.1,379.5z"/>
	<path fill="#0094FF" d="M297.1,385.4l-1-2.3h-4.5l-1,2.3H288l4.6-10.7h2.3l4.6,10.7H297.1z M293.8,377.9l-1.3,3.1h2.7L293.8,377.9z
		"/>
	<path fill="#0094FF" d="M304.6,376.7v8.6h-2.4v-8.6h-3v-2.1h8.5v2.1H304.6z"/>
	<path fill="#0094FF" d="M318.1,383.9c-1.1,1.1-2.4,1.6-4,1.6s-2.9-0.5-4-1.6s-1.6-2.4-1.6-3.9c0-1.6,0.5-2.9,1.6-3.9s2.4-1.6,4-1.6
		s2.9,0.5,4,1.6s1.6,2.4,1.6,3.9C319.7,381.5,319.2,382.8,318.1,383.9z M317.3,380c0-1-0.3-1.8-0.9-2.4s-1.4-1-2.3-1s-1.6,0.3-2.3,1
		c-0.6,0.7-0.9,1.5-0.9,2.4s0.3,1.8,0.9,2.4c0.6,0.7,1.4,1,2.3,1s1.6-0.3,2.3-1S317.3,380.9,317.3,380z"/>
	<path fill="#0094FF" d="M330.5,378.2c0,1.7-0.7,2.8-2,3.3l2.7,3.8h-2.9l-2.4-3.4h-1.7v3.4h-2.4v-10.7h4.1c1.7,0,2.9,0.3,3.6,0.8
		C330.1,376.1,330.5,377,330.5,378.2z M327.6,379.5c0.3-0.3,0.4-0.7,0.4-1.3s-0.2-1-0.5-1.2c-0.3-0.2-0.8-0.3-1.6-0.3h-1.8v3.2h1.7
		C326.7,379.9,327.3,379.8,327.6,379.5z"/>
</g>
</svg>
