<svg id="Calque_1" xmlns="http://www.w3.org/2000/svg" viewBox="0 0 350 400"><g id="screwdriver"><path fill="#0094FF" d="M121 202.1l21.3-6.6 4.8.9 6.3-4.3-.8-4-8.4-.4-2.9 2.6-22.8 6.7 1 5.7z"/><path fill="#F04C00" d="M71.3 206.5l3.8-3.3 30-8.6 3.6.9 4.5.1 1.9-2 2.5 1.6 2.7 9.4-.6 2.7-3.2-.7-4 2.1-2.2 3.4-29.9 8.4-6.1-1-4.4-6.5z"/><path d="M75.8 212.5c.1.3.4.5.8.4l25.2-7.4c.3-.1.5-.4.4-.8s-.4-.5-.8-.4l-25.2 7.4c-.3.2-.5.5-.4.8zM79.1 215.6c.1.3.4.5.7.4l23-6.8c.3-.1.5-.4.4-.7-.1-.3-.4-.5-.7-.4l-23 6.8c-.3.1-.5.4-.4.7zM76.9 208.2c.1.3.4.5.7.4l23-6.8c.3-.1.5-.4.4-.7-.1-.3-.4-.5-.7-.4l-23 6.8c-.3 0-.5.4-.4.7z"/><path d="M81.3 218.9c-4.1 1.2-8.4-1.1-9.5-5.2-1.2-4.1 1.1-8.4 5.2-9.5l28-8.2 4.3 14.8-28 8.1zm34.7-23.8l3 10.3c.1.3-.1.6-.4.7-.3.1-.6-.1-.7-.4l-3-10.3v-.2-.1c0-.2.2-.4.4-.5.3.1.6.2.7.5zm26.4-3.6l2.1-2.5h7l.7 2.3-5.9 3.8-3.2-.9c-.2-.1-.5-.1-.7 0l-22.3 6.5-.7-2.3 22.3-6.5c.3-.1.5-.2.7-.4zm-31.2 5.6c.5 0 1 0 1.5-.2l2.6 8.8c-.5.2-.9.4-1.4.7l-2.7-9.3zm-1.2-.1l3 10.1c-.6.5-1.2 1.1-1.6 1.6l-3.6-12.2c.7.2 1.4.4 2.2.5zm1.3 15.8c.3-.1.6-.3.7-.6v-.1s0-.1.1-.1c.4-.6 2-3.3 4.5-4.1.7.6 1.8.9 2.8.6 1.6-.5 2.5-2.1 2-3.7l-.5-1.6 21.9-6.4 3.3 1c.3.1.7 0 1-.1l7.2-4.6c.5-.3.7-.8.5-1.4l-1.2-4.1c-.2-.5-.6-.9-1.2-.9h-8.5c-.4 0-.7.2-.9.4l-2.3 2.7-21.9 6.4-.5-1.6c-.5-1.6-2.2-2.5-3.8-2.1-1 .3-1.8 1.1-2 2-2.6.7-5.6-.8-6-1.1-.3-.2-.6-.2-.9-.2h-.1l-29.2 8.6c-5.4 1.6-8.5 7.3-6.9 12.7 1.6 5.4 7.3 8.5 12.7 6.9l29.1-8.5c0-.1 0-.1.1-.1z"/><path d="M149.7 190.9c.3 0 .6-.3.6-.6s-.3-.6-.6-.6h-3.9c-.3 0-.6.3-.6.6v.2c.1.3.3.4.6.4h3.9z"/></g><g id="screw"><path fill="#0094FF" d="M64.9 133.4l-4.7-.6-5.1 2.7-.8 3.6.8 4.1-18.7 32.9-6.6 5.7-2.7 4.2.7 6.7 1.3.6 1.1-6.2 5 .7 3.3 2.2-1.2 5.9 3.3-.7 3.7-6.2-1.5-8.8L61 146.8l5.9-2.2 1.4-6.5-3.4-4.7zm-.9 9.5l-2.5.7-3-.7-1.4-3 .9-1.7 1.9-1.9h2.7l1.9 1.9.4 2-.9 2.7z"/><path d="M62.7 137.2c1.5.8 2 2.7 1.2 4.2s-2.7 2-4.2 1.2-2-2.7-1.2-4.2c.9-1.5 2.7-2 4.2-1.2zm-3.5 6.4c2.1 1.1 4.7.4 5.8-1.7 1.1-2.1.4-4.7-1.7-5.8-2.1-1.1-4.7-.4-5.8 1.7-1.2 2-.4 4.7 1.7 5.8zM41.527 177.542l-.874-.484 9.64-17.41.876.486zM53.83 155.432l-.876-.485 3.39-6.123.876.484z"/><path d="M41 193.2c-1.1 1-1.8 1.6-2.3 2 .1-.2.1-.4.2-.5.7-1.8 1.5-3.8.7-5.1-.4-.6-1.1-1.2-2.1-1.8-1.8-1-4.7-1.8-6.4-1.5-1.6.4-2.4 2.2-2.8 4-.2-2-.3-5.7 1.9-7.5 1-.9 1.9-1.5 2.7-2 .1-.1.2-.1.3-.2 2.4-1 4.5-1.2 6.1-.6 1.2.5 2.2 1.5 3 3 0 .9.2 1.9.5 2.8.7 2 .6 5.1-1.8 7.4zM56.3 146c.4.3.8.6 1.2.8.3.2.7.3 1.1.5h.1c.4.1.8.3 1.2.3l-16.4 29.7c-.1.1-.8 1.7-1 3.9-.8-1-1.7-1.7-2.7-2.1-1.2-.5-2.6-.6-4.2-.2.9-.8 1.8-1.9 2.8-3.4l17.1-30.3c.1.2.4.5.8.8zm-.1-8.9c1.5-2.8 5.1-3.8 7.8-2.2 2.8 1.5 3.8 5.1 2.3 7.8-1 1.7-2.7 2.8-4.5 2.9h-.3c-2.2.1-4.3-1.1-5.3-3l-.1-.2c-.8-1.6-.9-3.6.1-5.3zm-11.4 48c-1.1-3.2.5-6.8.5-6.8l16.9-30.6c2.4-.3 4.7-1.7 6-4 2.1-3.8.7-8.6-3.1-10.7s-8.6-.7-10.7 3.1c-1.2 2.3-1.3 4.9-.3 7.1l-17.6 31.2c-1.7 2.6-2.9 3.4-4.7 4.8-.8.6-1.7 1.2-2.8 2.1-3.9 3.1-2.8 9.6-2.5 10.9 0 0 .7 2.9 1.8 3.5.4.2.8.2 1.2 0 .6-.4.6-1.2.6-1.5 0-2.5.8-5.6 1.6-5.7.9-.2 3.2.3 4.9 1.2.9.5 1.2.9 1.3 1 .3.5-.5 2.4-.8 3.3-.6 1.6-1.2 3.1 0 3.7l.2.1c1.5.5 2.3-.1 5.4-2.9 3-3.1 3-7.2 2.1-9.8z"/></g><g id="hammer"><path fill="#0094FF" d="M266.2 142.4l64.2 59.4-8.3 9.3-63.2-61.8z"/><path fill="#F04C00" d="M277.3 139.6l5.5.8 11.4-6.8 4.4 4.4-31.7 32.8-10.8-9.7z"/><path d="M278.7 162.6c-.3-.3-.9-.3-1.2 0-.2.2-.2.4-.2.6 0 .2.1.4.2.6l11.8 11.4c.2.1.4.2.6.2.2 0 .4-.1.6-.2.3-.3.3-.8 0-1.2l-11.8-11.4z"/><path d="M331.4 201.3c-.1-.1-.1-.1-.2-.1L282.8 156l16.7-17.3c.5-.5.5-1.3 0-1.8-3.9-3.9-4.7-4.7-5.4-4.7-.4 0-.6.2-.8.4-4.9 4.7-9.8 6.4-12.5 6.4-1.2 0-2.1-.3-2.6-.8s-1.4-.5-1.8 0l-5.9 6.1-3.3-3.1c-.5-.5-1.3-.4-1.8.1l-7.1 7.4c-.5.5-.5 1.3 0 1.8l3.2 3.2-6.3 6.6c-.5.5-.5 1.3 0 1.8l10.4 10.1c.5.5 1.4.5 1.8 0l6.1-6.4 47 46.9c.2.2.6.4.9.4.4 0 .7-.2.9-.4l9.2-9.5c.4-.6.4-1.4-.1-1.9zm-34.7-63.4l-30.4 31.5-8.6-8.3 19.6-20.3c.9.5 2 .8 3.3.8 4 0 9.1-2.4 13.5-6.2.7.6 1.7 1.5 2.6 2.5zm-35.9 11.7l5.3-5.5 2.3 2.2-5.4 5.6-2.2-2.3zm14.4 14.3l5.8-6 47.6 44.4-7.3 7.6-46.1-46zm46.1 48.8z"/><path d="M310.1 195.5c-.3-.3-.9-.3-1.2 0-.3.3-.3.8 0 1.2l11.8 11.4c.2.1.4.2.6.2.2 0 .4-.1.6-.2.3-.3.3-.8 0-1.2l-11.8-11.4zM324.6 200.5L297 174.9c-.3-.3-.8-.3-1.2 0-.2.2-.2.4-.2.6 0 .2.1.4.3.6l27.6 25.6c.2.2.4.2.6.2.2 0 .4-.1.6-.2.1-.1.2-.3.2-.6 0-.2-.1-.4-.3-.6z"/></g><g id="box"><path fill="#F04C00" d="M158.3 45.7L173.4 29l-1.1-15.7 3.5-4h2.6l3.7 3.1v18.2l12.6 15.1v4.7l9.8 46.1h24.9l-8.3 44.7h-37.7l-53.1-2.1-6-36.2 42.5-17.4z"/><path fill="#0094FF" d="M71.4 54.6h54.9l6.3-9.3 4.1 3-2.8 11.6-3.6 17-2.4 8.7h17.7l2.7 21.6-5.5-1.4-4.6-2.9-4.3 1.4-.4 4.7 4.6 5 6 5.8-6.8 4.9-3.7 2.9.1 4.3 3 1.6 4.4-.7 9.2-6.8 3.8 3.5 5.5 4 4.5-1.8v-4.1l-4.5-5.1 15.4-2 18.3.2-.5 3.1-3.4 3.8.1 4.2 4.3 1.7 8.9-7.9 6.2 3.3 6.1 4.6 3.6-1.9 1.2-4.8-7.9-5.1 4.5-10 3.8-4.5-2.6-4.3-5.8.6-4.2 4.2-1.3-22.4 19.4-.1-5.1-18.1-3-19.3 2.2-3.9 6.8 11.5 54.6.5v28.2l-19.5 1.3.2 25.2.2 5.1-34.2.5 1.9 50-104.9 1-.1-51.6-34.8.1 1-30.3-18.7.2z"/><path fill="#004F88" d="M73.8 51.7l6.5-30.2 25.8-6.9-1.3 5.1-5.4 13.4 2 2.4 30.9.4v8l5.9 3.4 35.8-.5 1.8 5.2.5 17.8v14.8L173.6 99l-4.6 3.9-16.8 11.8-5.9-6.2V84.8l-16-.6 1.8-15.8 3.5-19.4-4.6-1.3-3.4 6.6-53.8.3zM183.8 46.9h32.6l3.4-3 .8-9h32.7L247 14.6l25.7 7.5 6.2 26.7 2.3 5.8-53.8.8-5.8-8.5-3.6 3.3 4.2 22.6 1.9 12.4h-16.5l-1.8 23.3-1.7 3.9h-4.7l-17.3-10.8 3.3-22zM176.5 108.5l13.3 8.2 3.5 4-25.7-1.4-4.2-2.7z"/><path fill="#F04C00" d="M84.5 73.3l12.8 13.6 7.5 7.5h4.7l2.6-2.9-1.1-4.4-20.7-19.9-3.1-3.7H73.8l-.7 8.4zM240.8 91.5l2.1-5.3 19.5-19.1 3.5-3.6h14l1.3 9.4-12.7-.1-15.2 16.1-6.3 6.5z"/><path d="M158.2 53c0 1.8-2.7 1.8-2.7 0s2.7-1.8 2.7 0M166.8 53c0 1.8-2.7 1.8-2.7 0s2.7-1.8 2.7 0M189.8 53c0 1.8-2.7 1.8-2.7 0s2.7-1.8 2.7 0M198.4 53c0 1.8-2.7 1.8-2.7 0s2.7-1.8 2.7 0M160.9 129c0 1.8-2.7 1.8-2.7 0 .1-1.8 2.7-1.8 2.7 0M144.2 53.3c0 1.8-2.7 1.8-2.7 0s2.7-1.8 2.7 0M139.5 129c0 1.8-2.7 1.8-2.7 0s2.7-1.8 2.7 0M216.4 128.2c0 1.8-2.7 1.8-2.7 0s2.7-1.8 2.7 0M178.4 102.9c0 1.8-2.7 1.8-2.7 0 .1-1.8 2.7-1.8 2.7 0M136.4 98.4c0 .8.7 1.5 1.5 1.5s1.5-.7 1.5-1.5v-3.7c0-.8-.7-1.5-1.5-1.5h-15.2c-.8 0-1.5.7-1.5 1.5s.7 1.5 1.5 1.5h13.7v2.2zM139.4 107.2c0 1.8-2.7 1.8-2.7 0s2.7-1.8 2.7 0M108.8 90.2c0 1.8-2.7 1.8-2.7 0s2.7-1.8 2.7 0M87.2 68.4c0 1.8-2.7 1.8-2.7 0s2.7-1.8 2.7 0M106.1 41.4c0 1.8-2.7 1.8-2.7 0s2.7-1.8 2.7 0M93.6 25.7c.5-.4.7-1.3.5-1.8-.2-.5-.8-.6-1.3-.2-.5.4-.7 1.3-.5 1.8.2.6.8.6 1.3.2zM230.4 93.1h-15.2c-.8 0-1.5.7-1.5 1.5v3.7c0 .8.7 1.5 1.5 1.5s1.5-.7 1.5-1.5v-2.2h13.7c.8 0 1.5-.7 1.5-1.5s-.7-1.5-1.5-1.5zM216.4 107.2c0 1.8-2.7 1.8-2.7 0s2.7-1.8 2.7 0"/><path d="M277.8 62.3h-10.3c-.9 0-1.8.2-2.6.6-.6.3-1.1.6-1.6 1.1l-18.5 18.6h-17V58h50v4.3zm0 8.7h-10.3c-1.6 0-2.9-1.3-2.9-2.9 0-.8.3-1.5.8-2s1.3-.8 2-.8h10.3V71zm0 11.6h-16.4L270 74h7.9v8.6zm-35.4 8c0-.8.3-1.5.8-2l18.7-18.9c.5 2 2.1 3.5 4 4.1l-18.7 18.9c-1.1 1.1-3 1.1-4 0-.5-.6-.8-1.3-.8-2.1zm16.8 22.7h-41.9l2.2-2.2c2.3-2.3 2.3-6 0-8.3-2.2-2.2-6.1-2.2-8.3 0l-2 2V88.6h30.5c-.2.6-.4 1.3-.4 2 0 1.6.6 3 1.7 4.1 1.1 1.1 2.6 1.7 4.1 1.7 1.6 0 3-.6 4.1-1.7l6.1-6.1h3.7v24.7zM226 163.9h-98.3v-40.2h8.2l-2.3 1.6c-2.3 2.3-2.3 6 0 8.3 1.1 1.1 2.6 1.7 4.1 1.7s3-.6 3.9-1.5l8.6-5.9 5.7 5.7c1.1 1.1 2.6 1.7 4.1 1.7 1.6 0 3-.6 4.1-1.7 1.1-1.1 1.7-2.6 1.7-4.2s-.6-3-1.7-4.1l-1.6-1.6h27.9l-1.6 1.6c-1.1 1.1-1.7 2.6-1.7 4.1 0 1.6.6 3 1.7 4.2 1.1 1.1 2.6 1.7 4.1 1.7 1.6 0 3-.6 4.1-1.7l6-6.1 8.1 5.4c1.1 1 2.5 1.6 4 1.6 1.6 0 3-.6 4.1-1.7 2.3-2.3 2.3-6 0-8.3l-.2-.2-.9-.6h7.7v40.2zM93.9 113.3V88.6h3.7l6.1 6.1c1.1 1.1 2.6 1.7 4.1 1.7s3-.6 4.1-1.7c1.1-1.1 1.7-2.6 1.7-4.1 0-.7-.1-1.4-.4-2h30.5v16.1l-2-2c-2.2-2.2-6.1-2.2-8.3 0-2.3 2.3-2.3 6 0 8.3l2.2 2.2H93.9zm-3-30.7H75.2V74h7.9l8.5 8.6h-.7zM75.2 65.3h10.3c.8 0 1.5.3 2 .8s.8 1.3.8 2c0 1.6-1.3 2.9-2.9 2.9H75.1v-5.7zm35.5 25.3c0 .8-.3 1.5-.8 2-1.1 1.1-3 1.1-4 0L87.1 73.8c2-.6 3.5-2.1 4-4.1l18.7 18.9c.6.5.9 1.3.9 2zM75.2 58h50v24.6h-17L89.7 64c-.5-.5-1-.8-1.6-1.1-.8-.4-1.7-.6-2.6-.6H75.2V58zM97 38.5v6.8L92.8 52h-16L97 38.5zM82.6 25.2l6.3-2.1-.4 1.3c-.5 1.9-.3 3.6.5 4.9.6.9 1.6 1.5 2.6 1.6h.5c2.3 0 4.6-2 5.4-4.9l1.9-6.4 2-.7-5.6 15.6c-.1.4-.2.8-.1 1.2L77 48.3l5.6-23.1zm8.8.1l1.5-5.1 3.6-1.2-1.8 6.2c-.5 1.6-1.7 2.7-2.6 2.7H92c-.1 0-.3-.1-.5-.3-.3-.4-.4-1.2-.1-2.3zM124 47.4h2.8l.5.3-.4 1.5-2.9-1.8zm-5.7 0h2.8l5.3 3.3-.4 1.3h-.3l-7.4-4.6zm-5.6 0h2.8l7.4 4.6h-2.8l-7.4-4.6zm-5.7 0h2.8l7.4 4.6h-2.8l-7.4-4.6zm-5.7 0h2.8l7.4 4.6h-2.8l-7.4-4.6zm-1 4.6h-2.8l-.6-.4.8-1.3 2.6 1.7zm-1.9-2.9l.8-1.3 6.7 4.2h-2.8l-4.7-2.9zM130 38.6l-1.6 5.5h-28.2v-5.5H130zm1.2 17.3l1.6-5.6c.2 0 .4.1.6.1h.4l-2.6 15.1v-9.6zm13.7 18.8l-.2 1.6-11.1-6.9.3-1.6 11 6.9zm-10.4-10l10.7 6.7-.2 1.6-10.8-6.8.3-1.5zm3.6-1.3l7.6 4.7-.2 1.6-10.2-6.4h2.8zm-1.1-13h10.4l-1 10h-11.1l1.7-10zm8.8 16l-4.9-3h2.8l2.2 1.4-.1 1.6zm-12.6 6.3l.3-1.6 11.1 6.9-.2 1.7-11.2-7zm-.6 3.2l.3-1.6 11.3 7.1-.1 1.3h-.6l-10.9-6.8zm2.4 6.7h-2.8l-.6-.4.3-1.6 3.1 2zm-2.9-3.5l.3-1.6 8.3 5.2h-2.8l-5.8-3.6zm12.4 38.7l-8.8-8.9c-1.1-1.1-1.1-2.9 0-4.1.5-.5 1.3-.8 2-.8.8 0 1.5.3 2 .8l9.6 9.7-4.8 3.3zm5.3-9.4l4.5 2.8-2.4 1.7-2-2.1v-2.4zm0-3.5l7.2 4.5-1.4.9-5.8-3.6v-1.8zm0-3.6l9.9 6.2-1.4.9-8.5-5.3v-1.8zm0-3.5l12.6 7.8-1.4.9-11.2-7v-1.7zm0-3.5l15.3 9.5-1.4.9-14-8.7v-1.7zm0-3.5l18 11.2-1.4.9-16.7-10.4v-1.7zm0-3.6l20.7 12.9-1.4.9-19.3-12v-1.8zm.2-3.4l22.3 13.9-.2 1.4-.2.1-22-13.7.1-1.7zm1.2-2.7l21.6 13.4-.3 1.6-22.1-13.7c.3-.5.6-.9.8-1.3zm1.8-2.5l20.3 12.7-.3 1.6-21-13.1c.4-.4.7-.8 1-1.2zm-.7-16.6l1.2-11.6h20.3l1.3 18.7h-22.7V62zm20.2-30.5l.5 8.1-4 4.8h-7.3l10.8-12.9zm.8 12.9h-.4l.4-.5v.5zm3.8-33.6c1.6 0 2.9 1.3 2.9 3l4.3 64.9-4.3 24.8c0 1.6-1.3 2.9-2.9 2.9-1.6 0-2.9-1.3-2.9-2.6l4.3-25.2v-.3l-4.3-64.5c.1-1.7 1.4-3 2.9-3zm14.6 33.6H185l-.6-8.6 7.3 8.6zm7.9 6l1.8 17.8v.9h-14.8l-1.2-18.7h14.2zm-8.9 21.7h1.1c2.4 1.2 5.6 3.1 8.3 5.8l-9.4-5.8zm12.1 9.4l.2 1.8-16.1-10-.1-1.2h1l14.8 9.2c.2.1.2.2.2.2zm.5 4.3V87l-16.1-10-.1-1.8 16.2 10.1v.5zm0 24.1v.8l-1.1 1.1-18.6-11.8.4-2.1 19.3 12zm0-3.5v1.8l-19-11.9.3-1.6 18.7 11.7zm0-3.5v1.8l-18.5-11.5.3-1.6 18.2 11.3zm0-3.5v1.8L185.4 90l.3-1.6 17.6 11zm0-3.6v1.8l-17.4-10.8.3-1.6 17.1 10.6zM187 80.4l.2-1.4v-.2l16 10v1.8L187 80.4zm16.3 11.9v1.8l-16.8-10.5.3-1.6 16.5 10.3zm-28.8 19.1l1.4-.9 11.5 7.2h-2.8l-10.1-6.3zm-2.8 1.8l1.4-.9 8.5 5.3h-2.8l-7.1-4.4zm-2.7 1.9l1.4-.9 5.6 3.5h-2.8l-4.2-2.6zm-1.3.9l2.6 1.6h-2.8l-1.1-.7 1.3-.9zm6.2-27.9l-.3 1.6L154 77.5c.4-.4.8-.7 1.1-1.1l18.8 11.7zm.6-3.2l-.3 1.6-17.7-11c.4-.3.9-.6 1.3-.9l16.7 10.3zm.5-3.2l-.3 1.6-15.6-9.7c.5-.3 1-.6 1.5-.8l14.4 8.9zm.5-3.1l-.3 1.6-12.9-8h2.8l10.4 6.4zm-1.8-6.5h1.5l.1 1-1.6-1zm1.7 2.8l.1 1.8-7.4-4.6h2.8l4.5 2.8zM162 127.4c.5.5.8 1.3.8 2 0 .8-.3 1.5-.8 2-1.1 1.1-3 1.1-4 0l-5.2-5.3 4.8-3.3 4.4 4.6zm-22.3 4c-1.1 1.1-3 1.1-4 0-1.1-1.1-1.1-2.9-.2-3.9l35.9-24.4v.3c0 2 1 3.8 2.5 4.8l-34.2 23.2zm61-5.6l-5.6 5.6c-1.1 1.1-3 1.1-4 0-.5-.5-.8-1.3-.8-2 0-.8.3-1.5.8-2l3.7-3.7h2.7l3.2 2.1zm-20.6-17.3c1.7-1 2.8-2.7 2.9-4.6v-.4.3l34.5 22.9c1 1.1 1 2.9-.1 4s-3 1.1-4 0l-.2-.2-33.1-22zm24.2 5.5l9-9.1c.5-.5 1.3-.8 2-.8s1.5.3 2 .8c1.1 1.1 1.1 2.9 0 4.1l-8.4 8.5-4.7-3.1c.1-.2.1-.3.1-.4zm11.8-63.6l1.7 10h-11.1l-1-10h10.4zm-8.8 16l-.2-1.6 2.2-1.4h2.8l-4.8 3zm.3 3.3l-.2-1.6 7.6-4.7h2.8l-10.2 6.3zm11.2-3.4L208 73.1l-.2-1.6 10.7-6.7.3 1.5zm.5 3.2l-11.1 6.9-.2-1.6 10.9-6.8.4 1.5zm2 11.1l.3 1.6-.6.4h-2.8l3.1-2zm-.6-3.1l.3 1.6-5.8 3.6h-2.8l8.3-5.2zm-12.1 2.2l-.2-1.7 11.1-6.9.3 1.6-11.2 7zm11.6-5.4l.3 1.6-10.9 6.8h-.6l-.1-1.3 11.3-7.1zm-.5-23.9c.2 0 .5-.1.7-.1l1.5 5.5v9.7l-2.6-15.1h.4zm33.2-11.8v5.5h-28l-1.5-5.5h29.5zm.8-19l1.9 6.4c.8 2.8 3.1 4.9 5.4 4.9h.5c1.1-.1 2-.7 2.6-1.6.8-1.3 1-3 .5-4.8l-.4-1.3 6.3 2.1 5.7 23.1-18.6-12.5c0-.4 0-.8-.1-1.2L251.7 19l2 .6zm6.5.7l1.5 5.1c.3 1.1.1 1.9-.1 2.3-.2.3-.4.3-.5.3h-.1c-.9 0-2.1-1.1-2.6-2.7l-1.8-6.2 3.6 1.2zm-4.1 25v-6.8L276.3 52h-16l-4.2-6.7zm-.6 5.1l.8 1.3-.6.4h-2.8l2.6-1.7zm-1.6-2.6l.8 1.3L250 52h-2.8l6.7-4.2zm-5-.4h2.8l-7.4 4.6h-2.8l7.4-4.6zm-5.7 0h2.8l-7.4 4.6h-2.8l7.4-4.6zm-5.6 0h2.8L233 52h-2.8l7.4-4.6zm-11.3 1.7l-.4-1.5.4-.2h2.8l-2.8 1.7zm5.6-1.7h2.8l-7.4 4.6h-.2l-.4-1.4 5.2-3.2zm51.8 7.3v-.4l-7.9-32.1c-.2-1-1-1.8-1.9-2.1l-26.1-8.8c-1.1-.4-2.3-.1-3.1.7-.8.8-1.1 2-.7 3.1l6.2 17.4h-30.6c-1.6 0-3 1.3-3 3v8.8h-21l-11.5-13.6-1.1-17c0-3.2-2.6-5.9-5.8-5.9-3.2 0-5.8 2.6-5.8 6l.9 13.5c-.2.2-.5.5-.7.8l-13.7 16.4h-21.4v-8.8c0-1.7-1.3-3-3-3h-30.6l6.2-17.4c.4-1.1.1-2.3-.7-3.1-.8-.8-2-1.1-3.1-.7l-26.1 8.7c-1 .3-1.7 1.1-1.9 2.1l-7.9 32.1v.4c0 .1-.1.2-.1.3v30.6c0 1.7 1.3 3 3 3H88v27.6c0 1.6 1.3 3 3 3h31.2c-.2.4-.4.9-.4 1.4v46.2c0 1.6 1.3 3 3 3H229c1.6 0 3-1.3 3-3v-46.2c0-.5-.1-1-.4-1.4h30.6c1.7 0 3-1.3 3-3V88.6h15.7c1.6 0 3-1.3 3-3V55c-.1-.1-.1-.2-.2-.3z"/><path d="M247 90.2c0 1.8-2.7 1.8-2.7 0s2.7-1.8 2.7 0M268.5 68.4c0 1.8-2.7 1.8-2.7 0 .1-1.8 2.7-1.8 2.7 0M249.7 41.4c0 1.8-2.7 1.8-2.7 0s2.7-1.8 2.7 0M260.8 25.5c.2-.5 0-1.3-.5-1.8-.5-.4-1.1-.4-1.3.2-.2.5 0 1.3.5 1.8.5.4 1.1.4 1.3-.2zM194.7 129c0 1.8-2.7 1.8-2.7 0s2.7-1.8 2.7 0M233.9 71.9c.8 0 1.5-.7 1.5-1.5v-4.9h3.1c.8 0 1.5-.7 1.5-1.5s-.7-1.5-1.5-1.5h-4.6c-.8 0-1.5.7-1.5 1.5v6.4c0 .8.7 1.5 1.5 1.5zM114.4 65.5h3.1v4.9c0 .8.7 1.5 1.5 1.5s1.5-.7 1.5-1.5V64c0-.8-.7-1.5-1.5-1.5h-4.6c-.8 0-1.5.7-1.5 1.5 0 .9.6 1.5 1.5 1.5zM185.7 155.6h-14.8c-.8 0-1.5.7-1.5 1.5s.7 1.5 1.5 1.5h14.8c.8 0 1.5-.7 1.5-1.5s-.7-1.5-1.5-1.5zM218.3 147.6c-.8 0-1.5.7-1.5 1.5v6.5h-20c-.8 0-1.5.7-1.5 1.5s.7 1.5 1.5 1.5h21.5c.8 0 1.5-.7 1.5-1.5v-8c0-.8-.6-1.5-1.5-1.5z"/></g><path d="M55.9 259.2c-1.7.4-3-.6-3.6-2.2-.6-1.3-1-2.6-1.3-3.9-3.4.1-6.9.3-10.3.4-1.6.1-3.2.6-4.7.9.4 3.7 1.1 7.5 1.4 11.1.3 3.9.4 7.6.4 11.5.1 4.7.1 9.6 0 14.4 0 5.2-.1 10.5-.1 15.7 0 3.3.1 6.6.1 9.9-.1 3.4-.4 6.8-.6 10.2 0 1.4.1 2.7.1 4 .1 4.6.1 9.1.4 13.5.1 1.6-.4 2.9-1 4-.7 1.1-3.3 1.7-4.5 1-1.6-.9-3-1.9-4.5-2.9-1.1-.7-1.3-2-1.4-3.2 0-2 .3-4 .3-6 .1-7.3.3-14.7.4-22 .1-4.6.3-9.3.3-14.1.1-4.3 0-8.5 0-12.8 0-3.7.1-7.5.3-11.2.1-6.5 0-12.9-.6-19.4 0-.3-.1-.7-.1-1.1-.1-1-.6-1.4-1.7-1.6-2.3 0-4.5-.4-6.6-.3-1 0-1.9-.4-2.6-1-.3 1-.7 2-1 2.9-.4 1-.9 2.2-1.4 3.2-1.3 2.6-5.6.7-4.7-2 .7-2.3 1.6-4.5 2.4-6.6 0-.6.3-1 .6-1.6.7-1 2-1.4 3.2-1.1 1.7 0 3.4.1 5.2.1.9.1 1.9.1 2.9 0 3.4-.7 7-1.4 10.5-1.9 2.2-.4 4.5-.4 6.8-.6 2.2-.3 4.5-.6 6.8-1.1 1-.1 2.3.3 3-.7 0-.1.4 0 .6 0 .6.4 1.1.7 1.7.9h.3c.4-.3 1.1-.3 1.7-.1.1 0 .1.1.1.1 1.1.3 1.7 1 2 2 .4.4.6 1 .6 1.7 0 .6-.1 1.1-.4 1.6.4 1.6.9 3.2 1.1 4.6.5 1.5-.7 3.2-2.1 3.7zM61 313.8c-.1-2.4-.1-4.9-.1-7.3-.1-5-.3-10.1-.3-15.1 0-2.9.3-5.7.4-8.6.1-2.9.4-5.6.6-8.5.3-2.7.1-5.5 1-8 .7-1.9.9-4 1.1-6 .9-4.5 2.4-8.6 4.9-12.4 1.3-2 3.3-3.4 6-3.4 1.9 0 3.9.4 5.7 1 2 .6 3.9 1.3 5.9 1.1.6 0 1 .1 1.6.4.4.1 1 .4 1.4.6 3.4.6 5.7 2.9 8.2 5.2.7.6 1.1 1.7 1.6 2.7 1 2.9 1.9 5.9 2.7 8.8.3.9.1 1.9.3 2.9 0 3.2 0 6.3-.1 9.6 0 3.2-.1 6.5-.1 9.8 0 1.3.1 2.6.1 3.7.1 2.9.4 5.7.4 8.5 0 2.9 0 5.6-.1 8.3-.3 3.3-.4 6.6-.9 9.9-.9 6.3-.9 12.9-2.7 19-.3 1.1-1.1 2.2-1.3 3.4-.3 1.9-1.6 3.3-2.4 4.9-1.4 3-3.4 5.5-6.6 6.6-1.3.4-2.4.7-3.6 1.3-1.6.7-3.4.7-5.2.3-2.4-.6-4.9-1.3-6.9-2.6-3.2-1.9-5.9-4.3-7-8-.7-2.3-1.9-4.6-2.6-6.9-.4-1.7-.3-3.4-.6-5.2v-1.1h-.1c-.5-5-.9-9.9-1.3-14.9zM74.8 258c-1.1 4.2-2.2 8.5-2.9 12.8-.6 4.5-.6 8.9-.9 13.4-.4 6.9-.9 13.9-.1 21 .1 2.2 0 4.5.1 6.8.1 2.7.3 5.5.6 8.2.3 2.6.9 5.2.9 7.8 0 2.3.4 4.5.9 6.6.1 1.3.6 2.4.7 3.6.3 2 1.3 3.7 2.4 5.3 1.4 2 4 2.7 5.6 1.3 1.6-1.6 3.2-3.3 4.2-5.2 2.3-3.7 3.2-8.2 3.9-12.5.9-5.3 1.4-10.6 1.9-15.9.4-5.5 1.1-10.9.6-16.5-.4-3.7-.3-7.5-.3-11.2 0-5 0-10.2.1-15.2.1-3.4-.4-6.8-1.6-10.1-.4-1.4-1.4-2.9-2.2-4.2-.3-.4-.9-.9-1.3-1-1.7-.1-3.4-.7-4.9.4-.9.7-1.9.9-2.9.6-.7-.3-1.6-.3-2.4-.6-.9 1.6-2 2.9-2.4 4.6zM110.7 313.8c-.1-2.4-.1-4.9-.1-7.3-.1-5-.3-10.1-.3-15.1 0-2.9.3-5.7.4-8.6.1-2.9.4-5.6.6-8.5.3-2.7.1-5.5 1-8 .7-1.9.9-4 1.1-6 .9-4.5 2.4-8.6 4.9-12.4 1.3-2 3.3-3.4 6-3.4 1.9 0 3.9.4 5.7 1 2 .6 3.9 1.3 5.9 1.1.6 0 1 .1 1.6.4.4.1 1 .4 1.4.6 3.4.6 5.7 2.9 8.2 5.2.7.6 1.1 1.7 1.6 2.7 1 2.9 1.9 5.9 2.7 8.8.3.9.1 1.9.3 2.9 0 3.2 0 6.3-.1 9.6 0 3.2-.1 6.5-.1 9.8 0 1.3.1 2.6.1 3.7.1 2.9.4 5.7.4 8.5 0 2.9 0 5.6-.1 8.3-.3 3.3-.4 6.6-.9 9.9-.9 6.3-.9 12.9-2.7 19-.3 1.1-1.1 2.2-1.3 3.4-.3 1.9-1.6 3.3-2.4 4.9-1.4 3-3.4 5.5-6.6 6.6-1.3.4-2.4.7-3.6 1.3-1.6.7-3.4.7-5.2.3-2.4-.6-4.9-1.3-6.9-2.6-3.2-1.9-5.9-4.3-7-8-.7-2.3-1.9-4.6-2.6-6.9-.4-1.7-.3-3.4-.6-5.2v-1.1h-.1c-.4-5-.9-9.9-1.3-14.9zm13.8-55.8c-1.1 4.2-2.2 8.5-2.9 12.8-.6 4.5-.6 8.9-.9 13.4-.4 6.9-.9 13.9-.1 21 .1 2.2 0 4.5.1 6.8.1 2.7.3 5.5.6 8.2.3 2.6.9 5.2.9 7.8 0 2.3.4 4.5.9 6.6.1 1.3.6 2.4.7 3.6.3 2 1.3 3.7 2.4 5.3 1.4 2 4 2.7 5.6 1.3 1.6-1.6 3.2-3.3 4.2-5.2 2.3-3.7 3.2-8.2 3.9-12.5.9-5.3 1.4-10.6 1.9-15.9.4-5.5 1.1-10.9.6-16.5-.4-3.7-.3-7.5-.3-11.2 0-5 0-10.2.1-15.2.1-3.4-.4-6.8-1.6-10.1-.4-1.4-1.4-2.9-2.2-4.2-.3-.4-.9-.9-1.3-1-1.7-.1-3.4-.7-4.9.4-.9.7-1.9.9-2.9.6-.7-.3-1.6-.3-2.4-.6-.8 1.6-2 2.9-2.4 4.6zM190.9 345.9c.1 2.3-1.6 4.5-4 4.7-3 .4-5.9.7-8.9 1.1-1.1.3-2.3.7-3.4.9-1.9.1-3.7.3-5.6.6-1.3.1-2.6.3-3.9.6-.3.1-.6.1-.7.1-2.9.4-6 1-8.8.7-2.9-.3-3.7-4.2-.7-5 .4-.1.9-.3 1.3-.4.3-.6 1-1.1 2-1.1.6 0 1-.1 1.6-.3v-.1c0-2.6.4-5.2.6-7.8.6-6 1-11.9 1.3-17.8.3-5 .1-10.1.1-15.1.1-3.9.3-7.9.4-11.8 0-3.2 0-6.3.1-9.5.3-4.9.6-9.6.9-14.5 0-2.9 0-5.7.1-8.6.1-5.6.4-11.2.6-16.8-1.6-.1-3.2-.1-4.7-.1-2.9-.1-2.9-4.5 0-4.5 4.5-.1 8.9-.3 13.4-.3.4 0 .7.1 1 .3h1.9c3 0 3 4.9 0 4.9-1.3 0-2.4-.1-3.6-.1v3.2c-.1 6-.1 12.1-.3 18.1 0 1.6-.1 3.2-.1 4.7 0 4.3 0 8.8-.1 13.2-.1 2.9-.4 5.9-.6 8.9-.1 1-.1 2.2-.1 3.2.1 8.3 0 16.8-.1 25.1-.1 2.6-.6 5.3-.7 7.9-.4 4-.9 8-1.3 12.1-.1 1.1.1 2.3.3 3.9 1.9-.3 3.9-.6 5.9-.9 3.3-.7 6.8-1.6 10.1-2 .3-.1.4-.1.6-.1-.3-2.2-.4-4.5.6-6.5l.4-.4c.1-2.2 3.4-3.3 4.5-1.1 1.2 3.3.6 7.1-.1 10.6zM238.7 327.3c0 1-.3 2.2-.6 3.3-.3 2-.9 4-1.3 6.2-.4 2.7-1.4 5.5-2.7 7.9-.9 1.4-2.3 2.4-3.3 3.9-2.9 3.7-7.2 5.2-11.2 7.2-1.6.7-3 1.6-4.7 1.3-.7-.1-1.4-.1-2.2-.3-1.1-.3-2.3-.6-3.7-.3h-.7c-3.6.6-7.8-.4-11.4-.7-3.6-.4-3.6-5.3 0-5.6 1.3-.1 2.4-.3 3.7 0-.1-1-.3-2-.3-3 0-1.1-.1-2.2-.3-3.3v-6.2c0-2.3.3-4.5.3-6.8 0-3.3-.1-6.8-.1-10.1 0-3.9.3-7.8.3-11.5.1-3 .1-6 0-9.1-.1-5.6.3-11.1.7-16.7.3-5.5.7-10.9 1.1-16.4.3-4.7.6-9.6.9-14.5.1-2.7.1-5.5.3-8.2-.9 0-1.9 0-2.7-.1-3.2-.3-3.2-4.6 0-5 2.7-.3 5.6-.1 8.5 0 .3-.1.6-.3.9-.3 3 .1 6.2.1 9.2.4 1.3.1 2.7.3 4.2.6 1.9.4 3.4 1.4 5.3 2.2 2.6.9 3.9 3.2 5.3 5.2 2.7 4.3 3.9 8.9 3.9 14.1-.1 4.9-.4 9.8-1 14.5-.4 3.4-2.2 6.3-4 9.2-1.4 2.2-3.4 3.2-5.7 4.2.3.4.3.9.6 1 1.4.6 2.2 2 3.3 3 1.6 1.4 2.6 3 3.2 5 .6 1.7 1.4 3.4 2 5.3 1.1 4 2 8 2.2 12.4v11.2zm-9.3-7.1c-.1-3.9-.4-7.8-.6-11.5-.1-4.3-1.7-8-3.3-11.9-.4-1-1.6-2.3-2.4-2.4-2.6-.4-5.3-1.1-7.9-.4-.7.3-1.4.3-2.2-.4-.6-.9-1.4-1.3-2.6-2.3-.1 1.1-.3 2-.3 2.9 0 7-.1 14.2-.1 21.3 0 3.7.1 7.3.1 11.1v18.6c0 .9-.1 1.9-.3 2.9h1.9c3.4.4 8-1.4 10.2-4 1.3-1.4 2.3-3.3 3.4-4.9 1.1-1.4 1.6-2.7 2-4.3 1.4-5 2.2-9.8 2.1-14.7zm-18-45.2c-.1 3.6-.4 7.2-.9 11.5 2.2-.6 3.7-.9 5.3-1.4 1.9-.7 3.9-1.6 5.6-2.7 3.7-2.7 6-6.5 6.5-11.1.3-2.6.7-5 .9-7.6.3-2.2.4-4.5.3-6.6 0-1.6-.4-3.2-.7-4.7-.3-2.3-1.6-3.9-3.6-4.7-4.2-1.7-8.5-2.2-12.8-1.1 0 .9.1 1.6.1 2.3-.1 1.4-.4 2.7-.4 4-.1 3.3-.3 6.6-.4 9.9 0 .6-.1 1 0 1.6.9 3.4.3 7 .1 10.6zM246.1 313.8c-.1-2.4-.1-4.9-.1-7.3-.1-5-.3-10.1-.3-15.1 0-2.9.3-5.7.4-8.6.1-2.9.4-5.6.6-8.5.3-2.7.1-5.5 1-8 .7-1.9.9-4 1.1-6 .9-4.5 2.4-8.6 4.9-12.4 1.3-2 3.3-3.4 6-3.4 1.9 0 3.9.4 5.7 1 2 .6 3.9 1.3 5.9 1.1.6 0 1 .1 1.6.4.4.1 1 .4 1.4.6 3.4.6 5.7 2.9 8.2 5.2.7.6 1.1 1.7 1.6 2.7 1 2.9 1.9 5.9 2.7 8.8.3.9.1 1.9.3 2.9 0 3.2 0 6.3-.1 9.6 0 3.2-.1 6.5-.1 9.8 0 1.3.1 2.6.1 3.7.1 2.9.4 5.7.4 8.5 0 2.9 0 5.6-.1 8.3-.3 3.3-.4 6.6-.9 9.9-.9 6.3-.9 12.9-2.7 19-.3 1.1-1.1 2.2-1.3 3.4-.3 1.9-1.6 3.3-2.4 4.9-1.4 3-3.4 5.5-6.6 6.6-1.3.4-2.4.7-3.6 1.3-1.6.7-3.4.7-5.2.3-2.4-.6-4.9-1.3-6.9-2.6-3.2-1.9-5.9-4.3-7-8-.7-2.3-1.9-4.6-2.6-6.9-.4-1.7-.3-3.4-.6-5.2v-1.1h-.1c-.4-5-.8-9.9-1.3-14.9zm13.8-55.8c-1.1 4.2-2.2 8.5-2.9 12.8-.6 4.5-.6 8.9-.9 13.4-.4 6.9-.9 13.9-.1 21 .1 2.2 0 4.5.1 6.8.1 2.7.3 5.5.6 8.2.3 2.6.9 5.2.9 7.8 0 2.3.4 4.5.9 6.6.1 1.3.6 2.4.7 3.6.3 2 1.3 3.7 2.4 5.3 1.4 2 4 2.7 5.6 1.3 1.6-1.6 3.2-3.3 4.2-5.2 2.3-3.7 3.2-8.2 3.9-12.5.9-5.3 1.4-10.6 1.9-15.9.4-5.5 1.1-10.9.6-16.5-.4-3.7-.3-7.5-.3-11.2 0-5 0-10.2.1-15.2.1-3.4-.4-6.8-1.6-10.1-.4-1.4-1.4-2.9-2.2-4.2-.3-.4-.9-.9-1.3-1-1.7-.1-3.4-.7-4.9.4-.9.7-1.9.9-2.9.6-.7-.3-1.6-.3-2.4-.6-.8 1.6-1.9 2.9-2.4 4.6zM339.5 247.8c-.4 0-.9.1-1.3.1v.9c-.4 2.2-1 4.3-2 6.3-1.3 2.9-2.4 5.9-3.6 8.8-1.9 4.7-3.7 9.5-5.6 14.4-1.3 3.7-2.6 7.5-3.7 11.2-.9 2.9-1.4 5.9-2.3 8.8-.3 1.3-1 2.4-1.4 3.7-.7 1.7-.9 3.3-.3 5.2.9 3.4 1.6 6.9 2.4 10.3.3 1.4.7 2.9 1.1 4.3.6 2.6 1.3 5.3 2 8 .3 1 .7 2 1.1 3.2 1.3 3.6 2.7 7.2 4.2 10.8.3.6.3 1.1.6 1.7.1.3.1.4.3.7h4.9c3.4 0 3.4 5.3 0 5.3-5.6.4-11.4.6-17 .7-3.7.1-3.7-5.6 0-5.7h1.6v-.6c-1.1-3.7-2.3-7.5-3.4-11.1-1.4-4.3-2.7-8.5-4.2-12.8-1 .6-1.1 1.4-1.4 2.4-1 3.7-2 7.5-3 11.2-.4 1.6-1.3 3-1.9 4.5-.3.6-.6 1.1-.7 1.7-.6 1.3-1 2.7-1.6 4.2-.1.3-.1.6-.3.9.7 0 1.3-.1 2-.1 3.6-.1 3.4 5 0 5.5-1.9.3-3.9.4-5.7.6-.3.1-.6.3-1 .3-.3 0-.6 0-.9-.1-3 .3-6 .4-9.1.6-3.7.1-3.7-5.7 0-5.7 1.1-.1 2.2-.1 3.3-.3 0-.3.1-.7.4-1.3.4-1.3 1.1-2.6 1.6-3.9 1.4-3.6 2.4-7.3 4-10.8 2-4 2.3-8.6 4-12.6 1.6-3.4 2.7-6.9 3.9-10.3.4-.9.4-1.7.9-2.4 1.3-2.6 1.1-5.3.4-7.9-1.3-5.3-2.7-10.5-3.9-15.8-1.3-5.9-2.7-11.9-3.6-18-.3-1.9-.9-3.7-1.3-5.5-.6-2.9-1.1-5.6-1.9-8.3-.3-.9-.6-1.7-1-2.6h-2.2c-3.6-.1-3.4-5.3 0-5.5 2.3-.1 4.7-.3 7.2-.1 1.4 0 3-.1 4.6-.1 2.9 0 3.6 4.6.7 5.3-.7 0-1.4.1-2 .1.1.4.3.7.6 1 1.7 3.3 2.3 7 3.3 10.5 1.6 5.3 2.4 10.8 3.3 16.4.4 2.7 1.4 5.5 2.2 8.5.4-.6.7-1 .9-1.3 2.4-6.6 4.7-13.1 7.3-19.7 1.3-3.2 2.9-6.3 4.3-9.6.6-1.6 1.4-3.2 1.9-5-2.2 0-4.5 0-6.5-.4-2.2-.3-2.3-3.3-.9-4.5 0-.1.1-.1.1-.1.3-.3.6-.4 1.1-.4h.3c5.3-1.1 11.5-.7 17-.9 3.8-.3 3.6 5.2.2 5.3z"/><g><path fill="#F04C00" d="M53.9 256c-1.7.4-3-.6-3.6-2.2-.6-1.3-1-2.6-1.3-3.9-3.4.1-6.9.3-10.3.4-1.6.1-3.2.6-4.7.9.4 3.7 1.1 7.5 1.4 11.1.3 3.9.4 7.6.4 11.5.1 4.7.1 9.6 0 14.4 0 5.2-.1 10.5-.1 15.7 0 3.3.1 6.6.1 9.9-.1 3.4-.4 6.8-.6 10.2 0 1.4.1 2.7.1 4 .1 4.6.1 9.1.4 13.5.1 1.6-.4 2.9-1 4-.7 1.1-3.3 1.7-4.5 1-1.6-.9-3-1.9-4.5-2.9-1.1-.7-1.3-2-1.4-3.2 0-2 .3-4 .3-6 .1-7.3.3-14.7.4-22 .1-4.6.3-9.3.3-14.1.1-4.3 0-8.5 0-12.8 0-3.7.1-7.5.3-11.2.1-6.5 0-12.9-.6-19.4 0-.3-.1-.7-.1-1.1-.1-1-.6-1.4-1.7-1.6-2.3 0-4.5-.4-6.6-.3-1 0-1.9-.4-2.6-1-.3 1-.7 2-1 2.9-.4 1-.9 2.2-1.4 3.2-1.3 2.6-5.6.7-4.7-2 .7-2.3 1.6-4.5 2.4-6.6 0-.6.3-1 .6-1.6.7-1 2-1.4 3.2-1.1 1.7 0 3.4.1 5.2.1.9.1 1.9.1 2.9 0 3.4-.7 7-1.4 10.5-1.9 2.2-.4 4.5-.4 6.8-.6 2.2-.3 4.5-.6 6.8-1.1 1-.1 2.3.3 3-.7 0-.1.4 0 .6 0 .6.4 1.1.7 1.7.9h.3c.4-.3 1.1-.3 1.7-.1.1 0 .1.1.1.1 1.1.3 1.7 1 2 2 .4.4.6 1 .6 1.7 0 .6-.1 1.1-.4 1.6.4 1.6.9 3.2 1.1 4.6.5 1.6-.7 3.3-2.1 3.7zM59 310.6c-.1-2.4-.1-4.9-.1-7.3-.1-5-.3-10.1-.3-15.1 0-2.9.3-5.7.4-8.6.1-2.9.4-5.6.6-8.5.3-2.7.1-5.5 1-8 .7-1.9.9-4 1.1-6 .9-4.5 2.4-8.6 4.9-12.4 1.3-2 3.3-3.4 6-3.4 1.9 0 3.9.4 5.7 1 2 .6 3.9 1.3 5.9 1.1.6 0 1 .1 1.6.4.4.1 1 .4 1.4.6 3.4.6 5.7 2.9 8.2 5.2.7.6 1.1 1.7 1.6 2.7 1 2.9 1.9 5.9 2.7 8.8.3.9.1 1.9.3 2.9 0 3.2 0 6.3-.1 9.6 0 3.2-.1 6.5-.1 9.8 0 1.3.1 2.6.1 3.7.1 2.9.4 5.7.4 8.5 0 2.9 0 5.6-.1 8.3-.3 3.3-.4 6.6-.9 9.9-.9 6.3-.9 12.9-2.7 19-.3 1.1-1.1 2.2-1.3 3.4-.3 1.9-1.6 3.3-2.4 4.9-1.4 3-3.4 5.5-6.6 6.6-1.3.4-2.4.7-3.6 1.3-1.6.7-3.4.7-5.2.3-2.4-.6-4.9-1.3-6.9-2.6-3.2-1.9-5.9-4.3-7-8-.7-2.3-1.9-4.6-2.6-6.9-.4-1.7-.3-3.4-.6-5.2v-1.1h-.1c-.5-5-.9-9.9-1.3-14.9zm13.8-55.7c-1.1 4.2-2.2 8.5-2.9 12.8-.6 4.5-.6 8.9-.9 13.4-.4 6.9-.9 13.9-.1 21 .1 2.2 0 4.5.1 6.8.1 2.7.3 5.5.6 8.2.3 2.6.9 5.2.9 7.8 0 2.3.4 4.5.9 6.6.1 1.3.6 2.4.7 3.6.3 2 1.3 3.7 2.4 5.3 1.4 2 4 2.7 5.6 1.3 1.6-1.6 3.2-3.3 4.2-5.2 2.3-3.7 3.2-8.2 3.9-12.5.9-5.3 1.4-10.6 1.9-15.9.4-5.5 1.1-10.9.6-16.5-.4-3.7-.3-7.5-.3-11.2 0-5 0-10.2.1-15.2.1-3.4-.4-6.8-1.6-10.1-.4-1.4-1.4-2.9-2.2-4.2-.3-.4-.9-.9-1.3-1-1.7-.1-3.4-.7-4.9.4-.9.7-1.9.9-2.9.6-.7-.3-1.6-.3-2.4-.6-.9 1.6-2 2.8-2.4 4.6zM108.7 310.6c-.1-2.4-.1-4.9-.1-7.3-.1-5-.3-10.1-.3-15.1 0-2.9.3-5.7.4-8.6.1-2.9.4-5.6.6-8.5.3-2.7.1-5.5 1-8 .7-1.9.9-4 1.1-6 .9-4.5 2.4-8.6 4.9-12.4 1.3-2 3.3-3.4 6-3.4 1.9 0 3.9.4 5.7 1 2 .6 3.9 1.3 5.9 1.1.6 0 1 .1 1.6.4.4.1 1 .4 1.4.6 3.4.6 5.7 2.9 8.2 5.2.7.6 1.1 1.7 1.6 2.7 1 2.9 1.9 5.9 2.7 8.8.3.9.1 1.9.3 2.9 0 3.2 0 6.3-.1 9.6 0 3.2-.1 6.5-.1 9.8 0 1.3.1 2.6.1 3.7.1 2.9.4 5.7.4 8.5 0 2.9 0 5.6-.1 8.3-.3 3.3-.4 6.6-.9 9.9-.9 6.3-.9 12.9-2.7 19-.3 1.1-1.1 2.2-1.3 3.4-.3 1.9-1.6 3.3-2.4 4.9-1.4 3-3.4 5.5-6.6 6.6-1.3.4-2.4.7-3.6 1.3-1.6.7-3.4.7-5.2.3-2.4-.6-4.9-1.3-6.9-2.6-3.2-1.9-5.9-4.3-7-8-.7-2.3-1.9-4.6-2.6-6.9-.4-1.7-.3-3.4-.6-5.2v-1.1h-.1c-.4-5-.9-9.9-1.3-14.9zm13.8-55.7c-1.1 4.2-2.2 8.5-2.9 12.8-.6 4.5-.6 8.9-.9 13.4-.4 6.9-.9 13.9-.1 21 .1 2.2 0 4.5.1 6.8.1 2.7.3 5.5.6 8.2.3 2.6.9 5.2.9 7.8 0 2.3.4 4.5.9 6.6.1 1.3.6 2.4.7 3.6.3 2 1.3 3.7 2.4 5.3 1.4 2 4 2.7 5.6 1.3 1.6-1.6 3.2-3.3 4.2-5.2 2.3-3.7 3.2-8.2 3.9-12.5.9-5.3 1.4-10.6 1.9-15.9.4-5.5 1.1-10.9.6-16.5-.4-3.7-.3-7.5-.3-11.2 0-5 0-10.2.1-15.2.1-3.4-.4-6.8-1.6-10.1-.4-1.4-1.4-2.9-2.2-4.2-.3-.4-.9-.9-1.3-1-1.7-.1-3.4-.7-4.9.4-.9.7-1.9.9-2.9.6-.7-.3-1.6-.3-2.4-.6-.8 1.6-2 2.8-2.4 4.6zM188.9 342.8c.1 2.3-1.6 4.5-4 4.7-3 .4-5.9.7-8.9 1.1-1.1.3-2.3.7-3.4.9-1.9.1-3.7.3-5.6.6-1.3.1-2.6.3-3.9.6-.3.1-.6.1-.7.1-2.9.4-6 1-8.8.7-2.9-.3-3.7-4.2-.7-5 .4-.1.9-.3 1.3-.4.3-.6 1-1.1 2-1.1.6 0 1-.1 1.6-.3v-.1c0-2.6.4-5.2.6-7.8.6-6 1-11.9 1.3-17.8.3-5 .1-10.1.1-15.1.1-3.9.3-7.9.4-11.8 0-3.2 0-6.3.1-9.5.3-4.9.6-9.6.9-14.5 0-2.9 0-5.7.1-8.6.1-5.6.4-11.2.6-16.8-1.6-.1-3.2-.1-4.7-.1-2.9-.1-2.9-4.5 0-4.5 4.5-.1 8.9-.3 13.4-.3.4 0 .7.1 1 .3h1.9c3 0 3 4.9 0 4.9-1.3 0-2.4-.1-3.6-.1v3.2c-.1 6-.1 12.1-.3 18.1 0 1.6-.1 3.2-.1 4.7 0 4.3 0 8.8-.1 13.2-.1 2.9-.4 5.9-.6 8.9-.1 1-.1 2.2-.1 3.2.1 8.3 0 16.8-.1 25.1-.1 2.6-.6 5.3-.7 7.9-.4 4-.9 8-1.3 12.1-.1 1.1.1 2.3.3 3.9 1.9-.3 3.9-.6 5.9-.9 3.3-.7 6.8-1.6 10.1-2 .3-.1.4-.1.6-.1-.3-2.2-.4-4.5.6-6.5l.4-.4c.1-2.2 3.4-3.3 4.5-1.1 1.2 3.3.6 7-.1 10.6zM236.7 324.1c0 1-.3 2.2-.6 3.3-.3 2-.9 4-1.3 6.2-.4 2.7-1.4 5.5-2.7 7.9-.9 1.4-2.3 2.4-3.3 3.9-2.9 3.7-7.2 5.2-11.2 7.2-1.6.7-3 1.6-4.7 1.3-.7-.1-1.4-.1-2.2-.3-1.1-.3-2.3-.6-3.7-.3h-.7c-3.6.6-7.8-.4-11.4-.7-3.6-.4-3.6-5.3 0-5.6 1.3-.1 2.4-.3 3.7 0-.1-1-.3-2-.3-3 0-1.1-.1-2.2-.3-3.3v-6.2c0-2.3.3-4.5.3-6.8 0-3.3-.1-6.8-.1-10.1 0-3.9.3-7.8.3-11.5.1-3 .1-6 0-9.1-.1-5.6.3-11.1.7-16.7.3-5.5.7-10.9 1.1-16.4.3-4.7.6-9.6.9-14.5.1-2.7.1-5.5.3-8.2-.9 0-1.9 0-2.7-.1-3.2-.3-3.2-4.6 0-5 2.7-.3 5.6-.1 8.5 0 .3-.1.6-.3.9-.3 3 .1 6.2.1 9.2.4 1.3.1 2.7.3 4.2.6 1.9.4 3.4 1.4 5.3 2.2 2.6.9 3.9 3.2 5.3 5.2 2.7 4.3 3.9 8.9 3.9 14.1-.1 4.9-.4 9.8-1 14.5-.4 3.4-2.2 6.3-4 9.2-1.4 2.2-3.4 3.2-5.7 4.2.3.4.3.9.6 1 1.4.6 2.2 2 3.3 3 1.6 1.4 2.6 3 3.2 5 .6 1.7 1.4 3.4 2 5.3 1.1 4 2 8 2.2 12.4v11.2zm-9.3-7c-.1-3.9-.4-7.8-.6-11.5-.1-4.3-1.7-8-3.3-11.9-.4-1-1.6-2.3-2.4-2.4-2.6-.4-5.3-1.1-7.9-.4-.7.3-1.4.3-2.2-.4-.6-.9-1.4-1.3-2.6-2.3-.1 1.1-.3 2-.3 2.9 0 7-.1 14.2-.1 21.3 0 3.7.1 7.3.1 11.1v18.6c0 .9-.1 1.9-.3 2.9h1.9c3.4.4 8-1.4 10.2-4 1.3-1.4 2.3-3.3 3.4-4.9 1.1-1.4 1.6-2.7 2-4.3 1.4-5.1 2.2-9.8 2.1-14.7zm-18-45.3c-.1 3.6-.4 7.2-.9 11.5 2.2-.6 3.7-.9 5.3-1.4 1.9-.7 3.9-1.6 5.6-2.7 3.7-2.7 6-6.5 6.5-11.1.3-2.6.7-5 .9-7.6.3-2.2.4-4.5.3-6.6 0-1.6-.4-3.2-.7-4.7-.3-2.3-1.6-3.9-3.6-4.7-4.2-1.7-8.5-2.2-12.8-1.1 0 .9.1 1.6.1 2.3-.1 1.4-.4 2.7-.4 4-.1 3.3-.3 6.6-.4 9.9 0 .6-.1 1 0 1.6.9 3.4.3 7 .1 10.6zM244.1 310.6c-.1-2.4-.1-4.9-.1-7.3-.1-5-.3-10.1-.3-15.1 0-2.9.3-5.7.4-8.6.1-2.9.4-5.6.6-8.5.3-2.7.1-5.5 1-8 .7-1.9.9-4 1.1-6 .9-4.5 2.4-8.6 4.9-12.4 1.3-2 3.3-3.4 6-3.4 1.9 0 3.9.4 5.7 1 2 .6 3.9 1.3 5.9 1.1.6 0 1 .1 1.6.4.4.1 1 .4 1.4.6 3.4.6 5.7 2.9 8.2 5.2.7.6 1.1 1.7 1.6 2.7 1 2.9 1.9 5.9 2.7 8.8.3.9.1 1.9.3 2.9 0 3.2 0 6.3-.1 9.6 0 3.2-.1 6.5-.1 9.8 0 1.3.1 2.6.1 3.7.1 2.9.4 5.7.4 8.5 0 2.9 0 5.6-.1 8.3-.3 3.3-.4 6.6-.9 9.9-.9 6.3-.9 12.9-2.7 19-.3 1.1-1.1 2.2-1.3 3.4-.3 1.9-1.6 3.3-2.4 4.9-1.4 3-3.4 5.5-6.6 6.6-1.3.4-2.4.7-3.6 1.3-1.6.7-3.4.7-5.2.3-2.4-.6-4.9-1.3-6.9-2.6-3.2-1.9-5.9-4.3-7-8-.7-2.3-1.9-4.6-2.6-6.9-.4-1.7-.3-3.4-.6-5.2v-1.1h-.1c-.4-5-.8-9.9-1.3-14.9zm13.8-55.7c-1.1 4.2-2.2 8.5-2.9 12.8-.6 4.5-.6 8.9-.9 13.4-.4 6.9-.9 13.9-.1 21 .1 2.2 0 4.5.1 6.8.1 2.7.3 5.5.6 8.2.3 2.6.9 5.2.9 7.8 0 2.3.4 4.5.9 6.6.1 1.3.6 2.4.7 3.6.3 2 1.3 3.7 2.4 5.3 1.4 2 4 2.7 5.6 1.3 1.6-1.6 3.2-3.3 4.2-5.2 2.3-3.7 3.2-8.2 3.9-12.5.9-5.3 1.4-10.6 1.9-15.9.4-5.5 1.1-10.9.6-16.5-.4-3.7-.3-7.5-.3-11.2 0-5 0-10.2.1-15.2.1-3.4-.4-6.8-1.6-10.1-.4-1.4-1.4-2.9-2.2-4.2-.3-.4-.9-.9-1.3-1-1.7-.1-3.4-.7-4.9.4-.9.7-1.9.9-2.9.6-.7-.3-1.6-.3-2.4-.6-.8 1.6-1.9 2.8-2.4 4.6zM337.5 244.7c-.4 0-.9.1-1.3.1v.9c-.4 2.2-1 4.3-2 6.3-1.3 2.9-2.4 5.9-3.6 8.8-1.9 4.7-3.7 9.5-5.6 14.4-1.3 3.7-2.6 7.5-3.7 11.2-.9 2.9-1.4 5.9-2.3 8.8-.3 1.3-1 2.4-1.4 3.7-.7 1.7-.9 3.3-.3 5.2.9 3.4 1.6 6.9 2.4 10.3.3 1.4.7 2.9 1.1 4.3.6 2.6 1.3 5.3 2 8 .3 1 .7 2 1.1 3.2 1.3 3.6 2.7 7.2 4.2 10.8.3.6.3 1.1.6 1.7.1.3.1.4.3.7h4.9c3.4 0 3.4 5.3 0 5.3-5.6.4-11.4.6-17 .7-3.7.1-3.7-5.6 0-5.7h1.6v-.6c-1.1-3.7-2.3-7.5-3.4-11.1-1.4-4.3-2.7-8.5-4.2-12.8-1 .6-1.1 1.4-1.4 2.4-1 3.7-2 7.5-3 11.2-.4 1.6-1.3 3-1.9 4.5-.3.6-.6 1.1-.7 1.7-.6 1.3-1 2.7-1.6 4.2-.1.3-.1.6-.3.9.7 0 1.3-.1 2-.1 3.6-.1 3.4 5 0 5.5-1.9.3-3.9.4-5.7.6-.3.1-.6.3-1 .3-.3 0-.6 0-.9-.1-3 .3-6 .4-9.1.6-3.7.1-3.7-5.7 0-5.7 1.1-.1 2.2-.1 3.3-.3 0-.3.1-.7.4-1.3.4-1.3 1.1-2.6 1.6-3.9 1.4-3.6 2.4-7.3 4-10.8 2-4 2.3-8.6 4-12.6 1.6-3.4 2.7-6.9 3.9-10.3.4-.9.4-1.7.9-2.4 1.3-2.6 1.1-5.3.4-7.9-1.3-5.3-2.7-10.5-3.9-15.8-1.3-5.9-2.7-11.9-3.6-18-.3-1.9-.9-3.7-1.3-5.5-.6-2.9-1.1-5.6-1.9-8.3-.3-.9-.6-1.7-1-2.6h-2.2c-3.6-.1-3.4-5.3 0-5.5 2.3-.1 4.7-.3 7.2-.1 1.4 0 3-.1 4.6-.1 2.9 0 3.6 4.6.7 5.3-.7 0-1.4.1-2 .1.1.4.3.7.6 1 1.7 3.3 2.3 7 3.3 10.5 1.6 5.3 2.4 10.8 3.3 16.4.4 2.7 1.4 5.5 2.2 8.5.4-.6.7-1 .9-1.3 2.4-6.6 4.7-13.1 7.3-19.7 1.3-3.2 2.9-6.3 4.3-9.6.6-1.6 1.4-3.2 1.9-5-2.2 0-4.5 0-6.5-.4-2.2-.3-2.3-3.3-.9-4.5 0-.1.1-.1.1-.1.3-.3.6-.4 1.1-.4h.3c5.3-1.1 11.5-.7 17-.9 3.8-.3 3.6 5.1.2 5.3z"/></g><g fill="#0094FF"><path d="M27.8 376.7v8.6h-2.4v-8.6h-3v-2.1h8.5v2.1h-3.1zM39.2 374.7h2.4v10.7h-2.4v-4.2H35v4.2h-2.4v-10.7H35v4.5h4.3v-4.5zM52 374.7v2.1h-5.3v2.2h4.8v2h-4.8v2.2h5.5v2.1h-7.9v-10.7H52zM61.2 382.6c.4.5.9.7 1.6.7.7 0 1.2-.2 1.6-.7.4-.5.6-1.2.6-2v-5.9h2.4v6c0 1.6-.4 2.7-1.3 3.6-.9.8-2 1.2-3.3 1.2-1.3 0-2.4-.4-3.3-1.3-.9-.8-1.3-2-1.3-3.6v-6h2.4v5.9c0 .9.2 1.6.6 2.1zM69.8 385.4v-10.7h2.4v8.6h4.6v2.1h-7zM82.1 376.7v8.6h-2.4v-8.6h-3v-2.1h8.5v2.1h-3.1zM86.9 374.7h2.4v10.7h-2.4v-10.7zM101.5 378.6l-2.9 5.9h-1.4l-2.9-5.9v6.7H92v-10.7h3.2l2.8 5.9 2.8-5.9h3.2v10.7h-2.4v-6.7zM114.2 385.4l-1-2.3h-4.5l-1 2.3h-2.5l4.6-10.7h2.3l4.6 10.7h-2.5zm-3.2-7.5l-1.3 3.1h2.7l-1.4-3.1zM121.8 376.7v8.6h-2.4v-8.6h-3v-2.1h8.5v2.1h-3.1zM134.3 374.7v2.1H129v2.2h4.8v2H129v2.2h5.5v2.1h-7.9v-10.7h7.7zM148 374.7v2.1h-5v2.3h4.7v2.1H143v4.2h-2.4v-10.7h7.4zM158.7 378.2c0 1.7-.7 2.8-2 3.3l2.7 3.8h-2.9L154 382h-1.7v3.4H150v-10.7h4.1c1.7 0 2.9.3 3.6.8.6.6 1 1.5 1 2.7zm-2.9 1.3c.3-.3.4-.7.4-1.3s-.2-1-.5-1.2c-.3-.2-.8-.3-1.6-.3h-1.8v3.2h1.7c.9 0 1.5-.1 1.8-.4zM170 383.9c-1.1 1.1-2.4 1.6-4 1.6s-2.9-.5-4-1.6-1.6-2.4-1.6-3.9c0-1.6.5-2.9 1.6-3.9 1.1-1.1 2.4-1.6 4-1.6s2.9.5 4 1.6 1.6 2.4 1.6 3.9c.1 1.5-.5 2.8-1.6 3.9zm-.8-3.9c0-1-.3-1.8-.9-2.4s-1.4-1-2.3-1c-.9 0-1.6.3-2.3 1s-.9 1.5-.9 2.4.3 1.8.9 2.4 1.4 1 2.3 1c.9 0 1.6-.3 2.3-1s.9-1.5.9-2.4zM181.2 374.7h2.4v10.7h-2.4l-5.1-6.7v6.7h-2.4v-10.7h2.2l5.3 6.9v-6.9zM190.8 376.7v8.6h-2.4v-8.6h-3v-2.1h8.5v2.1h-3.1zM203.3 374.7v2.1H198v2.2h4.8v2H198v2.2h5.5v2.1h-7.9v-10.7h7.7zM213.1 374.7h2.4v10.7h-2.4l-5.1-6.7v6.7h-2.4v-10.7h2.2l5.3 6.9v-6.9zM226.3 376.1c1 .9 1.5 2.2 1.5 3.9s-.5 3-1.5 4-2.5 1.5-4.6 1.5H218v-10.7h3.8c2-.1 3.4.3 4.5 1.3zm-1.8 6.3c.6-.6.9-1.4.9-2.4s-.3-1.9-.9-2.4c-.6-.6-1.5-.9-2.7-.9h-1.3v6.5h1.5c1.1.1 1.9-.2 2.5-.8zM241.2 379.9h2.4v3.8c-1.1 1.2-2.5 1.8-4.4 1.8-1.6 0-2.9-.5-4-1.6-1.1-1-1.6-2.4-1.6-3.9 0-1.6.5-2.9 1.6-4s2.4-1.6 3.9-1.6 2.9.5 4 1.5l-1.2 1.8c-.5-.4-.9-.7-1.3-.9-.4-.2-.8-.2-1.3-.2-.9 0-1.7.3-2.3.9-.6.6-.9 1.4-.9 2.4s.3 1.8.9 2.4c.6.6 1.3.9 2.1.9s1.5-.2 2.1-.5v-2.8zM253.4 374.7v2.1h-5.3v2.2h4.8v2h-4.8v2.2h5.5v2.1h-7.9v-10.7h7.7zM263.2 374.7h2.4v10.7h-2.4l-5.1-6.7v6.7h-2.4v-10.7h2.2l5.3 6.9v-6.9zM276 374.7v2.1h-5.3v2.2h4.8v2h-4.8v2.2h5.5v2.1h-7.9v-10.7h7.7zM287 378.2c0 1.7-.7 2.8-2 3.3l2.7 3.8h-2.9l-2.4-3.4h-1.7v3.4h-2.4v-10.7h4.1c1.7 0 2.9.3 3.6.8.6.7 1 1.6 1 2.8zm-2.9 1.3c.3-.3.4-.7.4-1.3s-.2-1-.5-1.2c-.3-.2-.8-.3-1.6-.3h-1.8v3.2h1.7c1 0 1.5-.1 1.8-.4zM297.1 385.4l-1-2.3h-4.5l-1 2.3H288l4.6-10.7h2.3l4.6 10.7h-2.4zm-3.3-7.5l-1.3 3.1h2.7l-1.4-3.1zM304.6 376.7v8.6h-2.4v-8.6h-3v-2.1h8.5v2.1h-3.1zM318.1 383.9c-1.1 1.1-2.4 1.6-4 1.6s-2.9-.5-4-1.6-1.6-2.4-1.6-3.9c0-1.6.5-2.9 1.6-3.9s2.4-1.6 4-1.6 2.9.5 4 1.6 1.6 2.4 1.6 3.9-.5 2.8-1.6 3.9zm-.8-3.9c0-1-.3-1.8-.9-2.4s-1.4-1-2.3-1-1.6.3-2.3 1c-.6.7-.9 1.5-.9 2.4s.3 1.8.9 2.4c.6.7 1.4 1 2.3 1s1.6-.3 2.3-1 .9-1.5.9-2.4zM330.5 378.2c0 1.7-.7 2.8-2 3.3l2.7 3.8h-2.9l-2.4-3.4h-1.7v3.4h-2.4v-10.7h4.1c1.7 0 2.9.3 3.6.8.6.7 1 1.6 1 2.8zm-2.9 1.3c.3-.3.4-.7.4-1.3s-.2-1-.5-1.2c-.3-.2-.8-.3-1.6-.3h-1.8v3.2h1.7c.9 0 1.5-.1 1.8-.4z"/></g></svg>