<svg id="Calque_1" xmlns="http://www.w3.org/2000/svg" viewBox="0 0 189.5 178.3"><g id="screw"><path fill="#0094FF" d="M170.1 166.7l6.1-13.2-3.1-17.2-9.7-5.8-12.6-1.4-78-84.7L62.4 20 52.7 8.1l-20-4-2.9 3.3 16.9 8.9L40 30.1l-9.4 7.6-16.1-8.9-1.1 10.1L28 55.6l27 3.9 79.9 83.7 1 19.3 17.5 10.2 16.7-6zm-26.5-11.4l.3-7.7 4.7-7.9 10-1.2 4 4.1 3.8 7.3-2.5 7.7-7.3 3.8-6.1-.6-6.9-5.5z"/><path d="M161.2 157c-3.7 3.5-9.7 3.3-13.2-.4-3.5-3.7-3.3-9.6.4-13.2 3.7-3.5 9.6-3.3 13.2.4 3.6 3.8 3.4 9.7-.4 13.2zm-15.3-16.3c-5.2 4.9-5.5 13.2-.6 18.4 4.9 5.2 13.2 5.5 18.4.6 5.2-4.9 5.5-13.2.6-18.4-4.9-5.3-13.1-5.5-18.4-.6zM63.91 57.982l2.258-2.123 41.43 44.092-2.26 2.123zM116.798 114.21l2.26-2.123 14.517 15.45-2.26 2.124z"/><path d="M19.2 41.8c-1.8-4.1-3-6.9-3.7-8.7.5.4.9.7 1.4 1.1C21.3 37.8 26.4 42 31 41c2.2-.5 4.6-1.9 7.1-4.3 4.7-4.4 9.7-12 10.2-17.2.4-4.9-4.2-9-9.1-11.9 6 1.2 16.8 4.5 20 12.6 1.5 3.8 2.5 7 3.4 9.8.1.3.2.7.3 1 .7 8-.6 14.1-3.9 18.2-2.6 3.1-6.4 5.1-11.5 6-2.6-.8-5.5-1.3-8.5-1.2-6.6.1-15.6-2.9-19.8-12.2zm122.6 88.3c-.1.1-.2.1-.3.2-1.1.7-2.1 1.5-3.1 2.4-.9.8-1.7 1.7-2.4 2.6-.1.1-.2.2-.2.3-.8 1-1.5 2.1-2.1 3.2L63 63.5c-.3-.2-4.3-3.8-10.3-6.5 3.6-1.3 6.6-3.2 8.7-5.9 2.6-3.1 4.1-7 4.6-11.9 1.6 3.4 3.7 6.9 7.3 11.2l71.8 77.8s-.1 0-.1.1c-1.1.5-2.2 1.1-3.2 1.8zm25.9 8.1c6.6 7.1 6.3 18.2-.8 24.8-7.1 6.6-18.2 6.3-24.8-.8-4.1-4.4-5.5-10.3-4.3-15.8l.2-.8c1.7-6.4 7.1-11.3 13.6-12.6l.7-.1c5.5-.9 11.3.9 15.4 5.3zM39.1 60.5c10.2-.3 19.4 7.7 19.4 7.7l72.8 77.5c-1.4 7.3.6 15.2 6.1 21 9.1 9.7 24.3 10.1 34 1.1 9.7-9.1 10.1-24.3 1.1-34-5.4-5.7-12.9-8.2-20.2-7.4l-74-80.2c-6-7.2-7.4-11.6-9.4-18.2-.9-2.9-2-6.2-3.5-10.2C59.8 3.7 40 .8 36.1.4 36 .4 27-.3 24.2 2.3c-1 .9-1.4 2.2-1.1 3.4.5 2.2 2.8 3 3.6 3.2 7.3 2.3 15.3 7.6 15.1 9.9-.2 2.8-3.8 9-8.2 13.1-2.3 2.2-3.7 2.6-4.1 2.7-1.6.3-6.5-3.7-8.7-5.5-4.1-3.4-7.7-6.3-10.7-3.5l-.4.5c-3 3.9-1.7 6.6 3.5 18.4 5.5 12.1 17.4 16.2 25.9 16z"/></g><g id="screwdriver"><path fill="#0094FF" d="M116.9 75l42.6-40.8 12.5-3.5 9.9-17.8-6.7-8.5-20.5 9-3.8 9.6-46 42.9 9.1 12.3z"/><path fill="#F04C00" d="M4.2 144.5l5-12.4 61-55.8L80 74l10.7-5 2-6.9 7.9.6 17.5 19.2 1.9 7-8.4 2.3-7.1 9.5-1.3 10.7-60.8 55.5-15.7 4.9-18.3-10.3z"/><path d="M21.9 153.5c.6.7 1.6.7 2.3.1l51-47.4c.7-.6.7-1.6.1-2.3s-1.6-.7-2.3-.1l-51 47.4c-.7.6-.7 1.6-.1 2.3zM33.4 156.8c.6.6 1.6.7 2.2.1l46.6-43.3c.6-.6.7-1.6.1-2.2-.6-.6-1.6-.7-2.2-.1l-46.6 43.3c-.6.6-.7 1.6-.1 2.2zM19.4 141.8c.6.6 1.6.7 2.2.1l46.6-43.3c.6-.6.7-1.6.1-2.2-.6-.6-1.6-.7-2.2-.1l-46.6 43.3c-.6.5-.7 1.5-.1 2.2z"/><path d="M42.6 162.1c-8.2 7.7-21.2 7.2-28.8-1.1-7.7-8.2-7.2-21.2 1.1-28.8l56.7-52.7 27.8 29.9-56.8 52.7zm54.1-97.6l19.4 20.9c.6.6.5 1.6-.1 2.1-.6.6-1.6.5-2.1-.1L94.6 66.6s-.1-.1-.2-.4c0-.1-.1-.2-.2-.3-.2-.5-.1-1.2.4-1.6.6-.4 1.6-.4 2.1.2zM155 24.7l2.1-8.5 16.7-8.3 4.3 4.7-9.5 16.1-8.6 1.5c-.6.1-1.2.4-1.7.8l-45.1 41.9-4.4-4.7 45.1-41.9c.6-.4 1-1 1.1-1.6zm-67.3 50c1.2-.6 2.4-1.3 3.5-2.2l16.5 17.8c-.9 1-1.7 2.1-2.4 3.3L87.7 74.7zm-3 1.3l19 20.5c-.9 1.9-1.5 3.9-1.9 5.7L78.9 77.5c1.8-.3 3.8-.7 5.8-1.5zm21.7 36.1c.7-.6 1-1.5 1-2.3v-.2-.3c.1-2 .8-10.3 5.7-15 2.5.6 5.3 0 7.3-1.9 3.2-3 3.4-8.1.4-11.3l-3.1-3.3 44.4-41.2 9.1-1.6c.9-.2 1.8-.7 2.2-1.5L185 13.8c.8-1.2.6-2.8-.4-3.9L177 1.7c-1-1.1-2.5-1.3-3.8-.7l-20.3 10.1c-.9.4-1.5 1.2-1.7 2.1l-2.3 9-44.4 41.2-3.1-3.3c-3-3.2-8.1-3.4-11.3-.4-2.1 1.9-2.9 4.7-2.4 7.2-5.3 4.8-14.2 4.6-15.6 4.5-.8-.1-1.6.1-2.3.6-.1.1-.2.1-.3.2 0 0-.1 0-.1.1l-59.2 55c-11 10.2-11.6 27.4-1.4 38.3s27.4 11.6 38.3 1.4l59-54.8c.2-.1.3-.1.3-.1z"/><path d="M171.7 14.5c.8-.4 1.1-1.4.7-2.2-.4-.8-1.4-1.1-2.2-.7l-9.3 4.6c-.8.4-1.1 1.4-.7 2.2.1.1.2.3.3.4.5.5 1.3.7 1.9.4l9.3-4.7z"/></g></svg>