<?xml version="1.0" encoding="utf-8"?>
<!-- Generator: Adobe Illustrator 18.1.0, SVG Export Plug-In . SVG Version: 6.00 Build 0)  -->
<svg version="1.1" id="Calque_1" xmlns="http://www.w3.org/2000/svg" xmlns:xlink="http://www.w3.org/1999/xlink" x="0px" y="0px"
	 viewBox="0 0 189.5 178.3" enable-background="new 0 0 189.5 178.3" xml:space="preserve">
<g id="screw">
	<path fill="#0094FF" d="M170.1,166.7l6.1-13.2l-3.1-17.2l-9.7-5.8l-12.6-1.4l-78-84.7L62.4,20L52.7,8.1l-20-4l-2.9,3.3l16.9,8.9
		L40,30.1l-9.4,7.6l-16.1-8.9l-1.1,10.1l14.6,16.7l27,3.9l79.9,83.7l1,19.3l17.5,10.2L170.1,166.7z M143.6,155.3l0.3-7.7l4.7-7.9
		l10-1.2l4,4.1l3.8,7.3l-2.5,7.7l-7.3,3.8l-6.1-0.6L143.6,155.3z"/>
	<g>
		<path d="M161.2,157c-3.7,3.5-9.7,3.3-13.2-0.4c-3.5-3.7-3.3-9.6,0.4-13.2c3.7-3.5,9.6-3.3,13.2,0.4
			C165.2,147.6,165,153.5,161.2,157z M145.9,140.7c-5.2,4.9-5.5,13.2-0.6,18.4c4.9,5.2,13.2,5.5,18.4,0.6c5.2-4.9,5.5-13.2,0.6-18.4
			C159.4,136,151.2,135.8,145.9,140.7z"/>
		<rect x="84.2" y="48.7" transform="matrix(0.7288 -0.6848 0.6848 0.7288 -30.8057 80.1497)" width="3.1" height="60.5"/>
		<rect x="123.6" y="110.3" transform="matrix(0.7288 -0.6848 0.6848 0.7288 -48.8151 118.4646)" width="3.1" height="21.2"/>
		<path d="M19.2,41.8c-1.8-4.1-3-6.9-3.7-8.7c0.5,0.4,0.9,0.7,1.4,1.1C21.3,37.8,26.4,42,31,41c2.2-0.5,4.6-1.9,7.1-4.3
			c4.7-4.4,9.7-12,10.2-17.2c0.4-4.9-4.2-9-9.1-11.9c6,1.2,16.8,4.5,20,12.6c1.5,3.8,2.5,7,3.4,9.8c0.1,0.3,0.2,0.7,0.3,1
			c0.7,8-0.6,14.1-3.9,18.2c-2.6,3.1-6.4,5.1-11.5,6C44.9,54.4,42,53.9,39,54C32.4,54.1,23.4,51.1,19.2,41.8z M141.8,130.1
			c-0.1,0.1-0.2,0.1-0.3,0.2c-1.1,0.7-2.1,1.5-3.1,2.4c-0.9,0.8-1.7,1.7-2.4,2.6c-0.1,0.1-0.2,0.2-0.2,0.3c-0.8,1-1.5,2.1-2.1,3.2
			l0,0L63,63.5c-0.3-0.2-4.3-3.8-10.3-6.5c3.6-1.3,6.6-3.2,8.7-5.9C64,48,65.5,44.1,66,39.2c1.6,3.4,3.7,6.9,7.3,11.2l71.8,77.8
			c0,0-0.1,0-0.1,0.1C143.9,128.8,142.8,129.4,141.8,130.1z M167.7,138.2c6.6,7.1,6.3,18.2-0.8,24.8c-7.1,6.6-18.2,6.3-24.8-0.8
			c-4.1-4.4-5.5-10.3-4.3-15.8l0.2-0.8c1.7-6.4,7.1-11.3,13.6-12.6l0.7-0.1C157.8,132,163.6,133.8,167.7,138.2z M39.1,60.5
			c10.2-0.3,19.4,7.7,19.4,7.7l72.8,77.5c-1.4,7.3,0.6,15.2,6.1,21c9.1,9.7,24.3,10.1,34,1.1c9.7-9.1,10.1-24.3,1.1-34
			c-5.4-5.7-12.9-8.2-20.2-7.4l-74-80.2C72.3,39,70.9,34.6,68.9,28c-0.9-2.9-2-6.2-3.5-10.2C59.8,3.7,40,0.8,36.1,0.4
			C36,0.4,27-0.3,24.2,2.3c-1,0.9-1.4,2.2-1.1,3.4c0.5,2.2,2.8,3,3.6,3.2c7.3,2.3,15.3,7.6,15.1,9.9c-0.2,2.8-3.8,9-8.2,13.1
			c-2.3,2.2-3.7,2.6-4.1,2.7c-1.6,0.3-6.5-3.7-8.7-5.5c-4.1-3.4-7.7-6.3-10.7-3.5l-0.4,0.5c-3,3.9-1.7,6.6,3.5,18.4
			C18.7,56.6,30.6,60.7,39.1,60.5z"/>
	</g>
</g>
<g id="screwdriver">
	<polygon fill="#0094FF" points="116.9,75 159.5,34.2 172,30.7 181.9,12.9 175.2,4.4 154.7,13.4 150.9,23 104.9,65.9 114,78.2 	"/>
	<polygon fill="#F04C00" points="4.2,144.5 9.2,132.1 70.2,76.3 80,74 90.7,69 92.7,62.1 100.6,62.7 118.1,81.9 120,88.9 
		111.6,91.2 104.5,100.7 103.2,111.4 42.4,166.9 26.7,171.8 8.4,161.5 	"/>
	<g>
		<path d="M21.9,153.5c0.6,0.7,1.6,0.7,2.3,0.1l51-47.4c0.7-0.6,0.7-1.6,0.1-2.3s-1.6-0.7-2.3-0.1l-51,47.4
			C21.3,151.8,21.3,152.8,21.9,153.5z"/>
		<path d="M33.4,156.8c0.6,0.6,1.6,0.7,2.2,0.1l46.6-43.3c0.6-0.6,0.7-1.6,0.1-2.2c-0.6-0.6-1.6-0.7-2.2-0.1l-46.6,43.3
			C32.9,155.2,32.8,156.2,33.4,156.8z"/>
		<path d="M19.4,141.8c0.6,0.6,1.6,0.7,2.2,0.1l46.6-43.3c0.6-0.6,0.7-1.6,0.1-2.2c-0.6-0.6-1.6-0.7-2.2-0.1l-46.6,43.3
			C18.9,140.1,18.8,141.1,19.4,141.8z"/>
		<path d="M42.6,162.1c-8.2,7.7-21.2,7.2-28.8-1.1c-7.7-8.2-7.2-21.2,1.1-28.8l56.7-52.7l27.8,29.9L42.6,162.1z M96.7,64.5
			l19.4,20.9c0.6,0.6,0.5,1.6-0.1,2.1c-0.6,0.6-1.6,0.5-2.1-0.1L94.6,66.6c0,0-0.1-0.1-0.2-0.4c0-0.1-0.1-0.2-0.2-0.3
			c-0.2-0.5-0.1-1.2,0.4-1.6C95.2,63.9,96.2,63.9,96.7,64.5z M155,24.7l2.1-8.5l16.7-8.3l4.3,4.7l-9.5,16.1l-8.6,1.5
			c-0.6,0.1-1.2,0.4-1.7,0.8l-45.1,41.9l-4.4-4.7l45.1-41.9C154.5,25.9,154.9,25.3,155,24.7z M87.7,74.7c1.2-0.6,2.4-1.3,3.5-2.2
			l16.5,17.8c-0.9,1-1.7,2.1-2.4,3.3L87.7,74.7z M84.7,76l19,20.5c-0.9,1.9-1.5,3.9-1.9,5.7L78.9,77.5C80.7,77.2,82.7,76.8,84.7,76z
			 M106.4,112.1c0.7-0.6,1-1.5,1-2.3c0-0.1,0-0.1,0-0.2c0-0.1,0-0.2,0-0.3c0.1-2,0.8-10.3,5.7-15c2.5,0.6,5.3,0,7.3-1.9
			c3.2-3,3.4-8.1,0.4-11.3l-3.1-3.3l44.4-41.2l9.1-1.6c0.9-0.2,1.8-0.7,2.2-1.5L185,13.8c0.8-1.2,0.6-2.8-0.4-3.9L177,1.7
			c-1-1.1-2.5-1.3-3.8-0.7l-20.3,10.1c-0.9,0.4-1.5,1.2-1.7,2.1l-2.3,9l-44.4,41.2l-3.1-3.3c-3-3.2-8.1-3.4-11.3-0.4
			c-2.1,1.9-2.9,4.7-2.4,7.2c-5.3,4.8-14.2,4.6-15.6,4.5c-0.8-0.1-1.6,0.1-2.3,0.6c-0.1,0.1-0.2,0.1-0.3,0.2c0,0-0.1,0-0.1,0.1
			l-59.2,55c-11,10.2-11.6,27.4-1.4,38.3s27.4,11.6,38.3,1.4l59-54.8C106.3,112.1,106.4,112.1,106.4,112.1z"/>
		<path d="M171.7,14.5c0.8-0.4,1.1-1.4,0.7-2.2c-0.4-0.8-1.4-1.1-2.2-0.7l-9.3,4.6c-0.8,0.4-1.1,1.4-0.7,2.2
			c0.1,0.1,0.2,0.3,0.3,0.4c0.5,0.5,1.3,0.7,1.9,0.4L171.7,14.5z"/>
	</g>
</g>
</svg>
