<?xml version="1.0" encoding="UTF-8"?>
<svg width="113px" height="113px" viewBox="0 0 113 113" version="1.1" xmlns="http://www.w3.org/2000/svg" xmlns:xlink="http://www.w3.org/1999/xlink">
    <!-- Generator: Sketch 49 (51002) - http://www.bohemiancoding.com/sketch -->
    <title>80-color-pattern-outline-</title>
    <desc>Created with Sketch.</desc>
    <defs></defs>
    <g id="Page-1" stroke="none" stroke-width="1" fill="none" fill-rule="evenodd">
        <g id="Homepage" transform="translate(-650.000000, -3840.000000)" stroke="#ABB2BF" stroke-width="2">
            <g id="80-color-pattern-outline-" transform="translate(651.000000, 3841.000000)">
                <path d="M107.172414,111 L3.82758621,111 C1.71284483,111 0,109.32114 0,107.248359 L0,84.7516413 C0,82.6807353 1.71284483,81 3.82758621,81 L107.172414,81 C109.287155,81 111,82.6676046 111,84.7385106 L111,107.248359 C111,109.32114 109.287155,111 107.172414,111 Z" id="Stroke-466"></path>
                <polygon id="Stroke-467" points="33 103 48 103 48 88 33 88"></polygon>
                <polygon id="Stroke-468" points="58 103 73 103 73 88 58 88"></polygon>
                <polygon id="Stroke-469" points="83 103 98 103 98 88 83 88"></polygon>
                <path d="M73.3858019,82 L103.284491,64.9985549 C105.851745,63.5257883 106.758174,60.2159804 105.310967,57.6053449 L95.3210017,39.5717881 C93.9738671,37.1413316 90.9447388,36.2815649 88.5564617,37.6524913 L11,82 L73.3858019,82 Z" id="Stroke-470"></path>
                <path d="M76.5003065,19.3304033 L60.3063028,8.93837928 C57.5531877,7.1714468 53.8913332,7.97319962 52.1257277,10.7264611 L7,81 L11.0441782,81 L61.6261842,52.6098748 L78.1410324,26.8384243 C79.7587037,24.3120377 79.0247958,20.951213 76.5003065,19.3304033 Z" id="Stroke-471"></path>
                <path d="M23,95.5 C23,99.641875 19.641875,103 15.5,103 C11.358125,103 8,99.641875 8,95.5 C8,91.358125 11.358125,88 15.5,88 C19.641875,88 23,91.358125 23,95.5 Z" id="Stroke-472"></path>
                <path d="M34,37.6148571 L34,3.85714286 C34,1.43485714 32.605,0 30.25,0 L7.75,0 C5.395,0 4,1.43485714 4,3.85714286 L4,81 L6.90625,81 L34,37.6148571 Z" id="Stroke-473"></path>
            </g>
        </g>
    </g>
</svg>