<?xml version="1.0" encoding="UTF-8"?>
<svg width="111px" height="126px" viewBox="0 0 111 126" version="1.1" xmlns="http://www.w3.org/2000/svg" xmlns:xlink="http://www.w3.org/1999/xlink">
    <!-- Generator: Sketch 49 (51002) - http://www.bohemiancoding.com/sketch -->
    <title>230-voltmeter-outline-</title>
    <desc>Created with Sketch.</desc>
    <defs></defs>
    <g id="Page-1" stroke="none" stroke-width="1" fill="none" fill-rule="evenodd">
        <g id="Homepage" transform="translate(-1130.000000, -2787.000000)" stroke="#ABB2BF" stroke-width="2">
            <g id="230-voltmeter-outline-" transform="translate(1131.000000, 2788.000000)">
                <path d="M54.3534444,105 L22.6486944,105 C10.1404722,105 0,95.4064286 0,83.5714286 C5.29802778,56.04 5.68516667,47.58 1.1935,21.2078571 L0,15 C0,6.71571429 7.09897222,0 15.8534444,0 L61.1486944,0 C69.9031667,0 77,6.71571429 77,15 L75.8086389,21.2078571 C71.3255278,48.5978571 71.7212222,57.2571429 77,83.5714286 C77,95.4064286 66.8616667,105 54.3534444,105 Z" id="Stroke-3174"></path>
                <path d="M61.6923077,42 L14.3076923,42 C11.9276923,42 10,40.0906667 10,37.7333333 L10,14.2666667 C10,11.9093333 11.9276923,10 14.3076923,10 L61.6923077,10 C64.0723077,10 66,11.9093333 66,14.2666667 L66,37.7333333 C66,40.0906667 64.0723077,42 61.6923077,42 Z" id="Stroke-3175"></path>
                <path d="M38.5,95 C26.6449,95 17,85.3551 17,73.5 C17,61.6449 26.6449,52 38.5,52 C50.3551,52 60,61.6449 60,73.5 C60,85.3551 50.3551,95 38.5,95 Z" id="Stroke-3176"></path>
                <path d="M24,58 L55,89" id="Stroke-3328"></path>
                <path d="M105,62 L105,115.448276 C105,120.170966 101.16925,124 96.4444444,124 L36.5555556,124 C31.83075,124 28,120.170966 28,115.448276 L28,104.758621" id="Stroke-3329"></path>
                <path d="M87,62 L87,110.76 C87,113.1026 85.1105556,115 82.7777778,115 L70.1111111,115 L53.2222222,115 C50.8894444,115 49,113.1026 49,110.76 L49,104.4" id="Stroke-3330"></path>
                <path d="M92,62 L83,62 L83,47.2222222 C83,44.8894444 85.01375,43 87.5,43 C89.98625,43 92,44.8894444 92,47.2222222 L92,62 Z" id="Stroke-3331"></path>
                <path d="M109,62 L100,62 L100,47.2222222 C100,44.8894444 102.01375,43 104.5,43 C106.98625,43 109,44.8894444 109,47.2222222 L109,62 Z" id="Stroke-3332"></path>
                <path d="M87,36 L87,42" id="Stroke-3333"></path>
                <path d="M105,36 L105,42" id="Stroke-3334"></path>
                <path d="M28,34 L19,34 L19,31.8571429 C19,29.4892857 21.01375,27.5714286 23.5,27.5714286 C25.98625,27.5714286 28,25.6535714 28,23.2857143 C28,20.9178571 25.98625,19 23.5,19 C21.01375,19 19,20.9178571 19,23.2857143" id="Stroke-3339"></path>
                <path d="M43,34 L34,34 L34,31.8571429 C34,29.4892857 36.01375,27.5714286 38.5,27.5714286 C40.98625,27.5714286 43,25.6535714 43,23.2857143 C43,20.9178571 40.98625,19 38.5,19 C36.01375,19 34,20.9178571 34,23.2857143" id="Stroke-3340"></path>
                <path d="M55.37425,34 L51.628,34 C50.17675,34 49,32.8792857 49,31.4992857 L49,21.5007143 C49,20.1207143 50.17675,19 51.628,19 L55.37425,19 C56.8255,19 58,20.1207143 58,21.5007143 L58,31.4992857 C58,32.8792857 56.8255,34 55.37425,34 Z" id="Stroke-3341"></path>
            </g>
        </g>
    </g>
</svg>