<?xml version="1.0" encoding="UTF-8"?>
<svg width="101px" height="110px" viewBox="0 0 101 110" version="1.1" xmlns="http://www.w3.org/2000/svg" xmlns:xlink="http://www.w3.org/1999/xlink">
    <!-- Generator: Sketch 49 (51002) - http://www.bohemiancoding.com/sketch -->
    <title>36-atom-outline-</title>
    <desc>Created with Sketch.</desc>
    <defs></defs>
    <g id="Page-1" stroke="none" stroke-width="1" fill="none" fill-rule="evenodd">
        <g id="Homepage" transform="translate(-650.000000, -1750.000000)" stroke="#ABB2BF" stroke-width="2">
            <g id="36-atom-outline-" transform="translate(651.000000, 1751.000000)">
                <path d="M64,54 C64,60.6275605 58.4041431,66 51.5009698,66 C44.5958569,66 39,60.6275605 39,54 C39,47.3724395 44.5958569,42 51.5009698,42 C58.4041431,42 64,47.3724395 64,54 Z" id="Stroke-395"></path>
                <path d="M57.2994135,98.0006897 C57.2994135,94.6862069 60.1206592,92.0011034 63.5988269,92.0011034 C64.3535053,92.0011034 65.0651708,92.1482069 65.7357788,92.3791034 C69.5912857,82.5883448 72,69.0362069 72,54 C72,24.1771034 62.5978028,0 51,0 C39.4021972,0 30,24.1771034 30,54 C30,83.8247586 39.4021972,108 51,108 C54.1946746,108 57.2212085,106.145379 59.9329671,102.862552 C58.3434503,101.773241 57.2994135,100.008 57.2994135,98.0006897 Z" id="Stroke-396"></path>
                <path d="M85.2278771,23.9144753 C88.1688425,22.0134792 88.8829041,18.2729295 86.8234214,15.5582847 C84.7659559,12.8455018 80.7115385,12.1845286 77.7725901,14.0855247 C74.8316247,15.9865208 74.1175631,19.7270705 76.1750287,22.4417153 C78.2345113,25.1544982 82.2869116,25.8154714 85.2278771,23.9144753 Z" id="Stroke-397"></path>
                <path d="M10.2278771,34.0859893 C7.2869116,32.1850741 3.23451132,32.8441573 1.17502866,35.5586866 C-0.88243689,38.2732158 -0.168375319,42.0136063 2.77259014,43.9145215 C5.71153847,45.8154367 9.76595587,45.1544916 11.8234214,42.4418242 C13.8829041,39.7272949 13.1688425,35.9869045 10.2278771,34.0859893 Z" id="Stroke-398"></path>
                <path d="M96.977883,22.9978306 C95.0649826,20.5824746 91.8437672,19.2313559 87.4891972,19 C87.4639252,20.8526984 86.5482991,22.6702306 84.8336872,23.8140544 C81.9993287,25.7037697 78.0938237,25.0467188 76.1089951,22.350034 C75.6793702,21.7651662 75.3974895,21.1284746 75.2147531,20.4769763 C64.6413128,23.0700137 51.6786911,28.927946 38.8210456,37.4992209 C13.3157071,54.5029569 -2.2266085,75.7340287 4.61628719,84.5699748 C12.2465047,94.4257377 37.2677861,87.0723206 62.7731246,70.0685845 C88.2784631,53.0648484 104.993013,33.116414 96.977883,22.9978306 Z" id="Stroke-399"></path>
                <path d="M57,99 C57,102.314711 59.9110801,105 63.5,105 C67.0909373,105 70,102.314711 70,99 C70,95.6852886 67.0909373,93 63.5,93 C59.9110801,93 57,95.6852886 57,99 Z" id="Stroke-400"></path>
                <path d="M62.8694048,38.0125255 C37.2900982,20.8117327 11.790727,13.6857703 4.54390672,23.3430783 C2.68004871,25.8257442 2.57671767,29.291366 3.8420355,33.31306 C5.68444745,32.6952019 7.79591002,32.8936654 9.51744414,34.050745 C12.3600226,35.9623602 13.0501959,39.723805 11.0596112,42.453614 C10.6287402,43.0452599 10.0964879,43.518951 9.51354486,43.9102611 C15.7056087,52.5827409 25.9529285,62.2868564 38.8478624,70.9593362 C64.4252193,88.1582566 92.0497006,94.8180171 97.2493965,86.3140441 C104.507915,74.4418087 88.4487113,55.2114459 62.8694048,38.0125255 Z" id="Stroke-401"></path>
            </g>
        </g>
    </g>
</svg>