<?xml version="1.0" encoding="utf-8"?>
<!-- Generator: Adobe Illustrator 22.0.1, SVG Export Plug-In . SVG Version: 6.00 Build 0)  -->
<svg version="1.1" id="Calque_1" xmlns="http://www.w3.org/2000/svg" xmlns:xlink="http://www.w3.org/1999/xlink" x="0px" y="0px"
	 viewBox="0 0 900 250" style="enable-background:new 0 0 900 250;" xml:space="preserve">
<style type="text/css">
	.st0{fill:none;}
	.st1{opacity:0.4;fill:#FFFFFF;}
	.st2{fill:#56B6C2;}
	.st3{fill:#98C379;}
	.st4{fill:#E06C75;}
</style>
<rect class="st0" width="900" height="250"/>
<g>
	<path class="st1" d="M139.1,90H86.9c-1.6,0-2.9,1.3-2.9,2.9v52.2c0,1.6,1.3,2.9,2.9,2.9h52.2c1.6,0,2.9-1.3,2.9-2.9V92.9
		C142,91.3,140.7,90,139.1,90z"/>
	<path class="st1" d="M106,76H95.7c0.2-0.3,0.3-0.6,0.3-1v-3c0-1.1-0.9-2-2-2s-2,0.9-2,2v3c0,0.4,0.1,0.7,0.3,1h-4.4
		c-2.2,0-3.9,1.8-3.9,3.9v3.2V86h58v-2.9v-3.2c0-2.2-1.8-3.9-3.9-3.9H134v-4c0-1.1-0.9-2-2-2s-2,0.9-2,2v4h-10v-8h-14V76z"/>
	<polygon class="st1" points="36,147 80,147 80,92 70.3,92 70,89 47,89 46.7,92 36,92 	"/>
	<path class="st1" d="M140.3,152H85.7c-0.9,0-1.7,0.8-1.7,1.7v2.6c0,0.9,0.8,1.7,1.7,1.7H86v36h54v-36h0.3c0.9,0,1.7-0.8,1.7-1.7
		v-2.6C142,152.8,141.2,152,140.3,152z"/>
	<circle class="st1" cx="113" cy="201" r="3"/>
	<path class="st1" d="M848.2,123H800v-4h-2c0-17-14-24-26-24c0,0-0.4,0-1,0.1V95h-7v-5h-6v5h-10.2l-1.8-0.5V93h-4v-2h-6v3h-92v-3h-6
		v3h-16V78h3v-6h-6c0-0.9,0-2.6,0-6c0-9-4-19-17-19v-4h-10v-6.7c4.7-1.6,8-6.1,8-11.3c0-6.6-5.4-12-12-12s-12,5.4-12,12
		c0,5.2,3.3,9.7,8,11.3V43h-10v4h-8v-1.6c0-1.3-1.1-2.4-2.4-2.4H546v-0.7c0-0.7-0.6-1.3-1.3-1.3H540v-6.4c5.7-1.4,10-6.5,10-12.6
		c0-7.2-5.8-13-13-13s-13,5.8-13,13c0,6.1,4.3,11.3,10,12.6V41h-4.7c-0.7,0-1.3,0.6-1.3,1.3V43h-17.6c-1.3,0-2.4,1.1-2.4,2.4V47h-8
		v-4h-10v-6.7c4.7-1.6,8-6.1,8-11.3c0-6.6-5.4-12-12-12s-12,5.4-12,12c0,5.2,3.3,9.7,8,11.3V43h-10v4c-13,0-17,10-17,19
		c0,3.4,0,5.1,0,6h-6v5h3v17h-16v-3h-6v3h-37v-2h-5v-4h2l5-4h18v-4h-20l-5,4h-2v-2c0-1.1-0.9-2-2-2s-2,0.9-2,2v2h-2v8h-5v2h-37v-3
		h-6v3h-65v-3h-6v3h-46v-3h-6v1.2c0-1.2-1-2.2-2.2-2.2H203V78h-7v12h-36V79h-7v11h-4.8c-1.2,0-2.2,1-2.2,2.2v21.5
		c0,1.2,1,2.2,2.2,2.2h58.5c1.2,0,2.2-1,2.2-2.2V111h6v-4h46v4h6v-4h35v17h-3v6h3v4h-35v-3h-6v3h-46v-3h-6v-7.6
		c0-1.8-1.5-3.4-3.4-3.4h-56.3c-1.8,0-3.4,1.5-3.4,3.4v51.3c0,1.8,1.5,3.4,3.4,3.4H175v21.7c0,0.1,0,0.2,0,0.3c0,0.1,0,0.2,0,0.3
		v3.7h0.5c2.1,9.6,11.3,22,27.5,22.9v0.1h18v3h6v-2h92v3h6v-3h92v3h6v-3h92v3h6v-3h25v-0.6c14.3-2.7,22.2-14.6,23.7-23.4h0.3v-22h3
		v-6h-3v-12.1c3.6-2.3,6-6.3,6-10.9s-2.4-8.6-6-10.9V130h3v-6h-3v-17h16v4h6v-4h46v3h6v-3h92v4h6v-2h4v-2h24.5
		c12.5,0,15.5,7,15.5,12h-2v4h-8.2c-2.7,0-4.8,2.2-4.8,4.8v69.3c0,2.7,2.2,4.8,4.8,4.8h2.2v16h69v-16h1.2c2.7,0,4.8-2.2,4.8-4.8
		v-69.3C853,125.2,850.8,123,848.2,123z M553,72v6h3v16h-16v-3h-6v3h-16V78h3v-6h-6V57h13v0.7c0,0.7,0.6,1.3,1.3,1.3h15.3
		c0.7,0,1.3-0.6,1.3-1.3V57h13v15H553z M466,77h3v-5h-6c0-1.9,0-6,0-9c0-4,3-8,8-8c0.3,0,0.7,0,1-0.1V59h28v-4h7v17h-6v6h3v16h-16
		v-3h-6v3h-16V77z M215,151v-3h46v3h6v-3h35c0,6-7,13-15.2,13H267v-3h-6v3h-46v-3h-6v-7H215z M556,124h-3v6h3v12.1
		c-3.6,2.3-6,6.3-6,10.9s2.4,8.6,6,10.9V176h-3v6h3v19c0,6-7,13-15.2,13H521v-3h-6v3h-92v-3h-6v3h-92v-3h-6v3h-92v-4h-6v4h-15.2
		c-1-0.6-1.6-1-1.6-1c-8.1,0-15-6.9-15.2-12.9V178h16.6c0.9,0,1.8-0.4,2.4-1h7v-2h46v3h6v-3h25v-0.6c16-3,24-17.5,24-26.4
		c0-0.7,0-1.4-0.1-2h0.1v-16h3v-6h-3v-17h16v4h6v-4h37v3h18v-3h37v4h6v-4h46v4h6v-4h46v4h6v-4h16V124z M586,91v3h-16V78h3v-6h-6V55
		h7v4h28v-4.1c0.3,0.1,0.7,0.1,1,0.1c5,0,8,4,8,8c0,3,0,7.1,0,9h-6v6h3v16h-16v-3H586z"/>
	<circle class="st2" cx="156.5" cy="64.5" r="3.5"/>
	<circle class="st2" cx="199.5" cy="64.5" r="3.5"/>
	<path class="st3" d="M201.1,156h-48.1c-1.1,0-1.9-0.9-1.9-1.9v-27.1c0-1.1,0.9-1.9,1.9-1.9h48.1c1.1,0,1.9,0.9,1.9,1.9v27.1
		C203,155.1,202.1,156,201.1,156z"/>
	<path class="st3" d="M181,110h-30c0-8.3,6.7-15,15-15S181,101.7,181,110z"/>
	<circle class="st4" cx="114" cy="168" r="3"/>
	<circle class="st4" cx="104" cy="182" r="3"/>
	<circle class="st4" cx="98" cy="168" r="3"/>
	<path class="st1" d="M752,79c1-2,4,1,8,1s8-2,10-1s1,6,0,7s-5,0-8,0s-5.8,1.5-8,1C750,86,751,81,752,79z"/>
</g>
</svg>
