<?xml version="1.0" encoding="UTF-8"?>
<svg width="198px" height="80px" viewBox="0 0 198 80" version="1.1" xmlns="http://www.w3.org/2000/svg" xmlns:xlink="http://www.w3.org/1999/xlink">
  <g id="Page-1" stroke="none" stroke-width="1" fill="#161821" fill-rule="evenodd">
      <g id="Homepage" transform="translate(-405.000000, -56.000000)" fill="#161821">
          <g id="header" transform="translate(405.000000, 56.000000)">
              <path d="M172.141883,79.4698716 C171.402676,78.0080023 170.593697,76.5276708 169.714945,75.0283976 C168.836193,73.5286449 167.827247,72.2605086 166.688106,71.2249479 C166.334927,71.615531 165.887519,72.1581274 165.345641,72.8527371 C164.803525,73.5475866 164.262127,74.2860739 163.72001,75.0672401 C163.178133,75.8484063 162.670063,76.6583447 162.197959,77.496336 C161.725855,78.3350467 161.374354,78.9929718 161.144176,79.4698716 L154.402841,79.4698716 C155.506976,77.4205692 156.810838,75.3043713 158.314427,73.1219973 C159.817536,70.9396233 161.494478,68.6229788 163.345492,66.1706253 L154.781676,53.2240788 L161.939249,53.2240788 L166.940582,60.8240248 L172.050771,53.2240788 L178.792585,53.2240788 L170.275045,65.8915347 C172.50801,68.6896345 174.347515,71.254919 175.791401,73.5873882 C177.235288,75.919138 178.374908,77.8804454 179.209303,79.4698716 L172.141883,79.4698716 Z M133.535059,66.3281533 C133.535059,67.6157108 133.692587,68.7771501 134.008602,69.812471 C134.323897,70.8480316 134.778499,71.7380528 135.371926,72.4822946 C135.964874,73.2272557 136.691133,73.8019811 137.549744,74.2057514 C138.407637,74.6097616 139.392366,74.811407 140.503694,74.811407 C141.589126,74.811407 142.567622,74.6097616 143.438702,74.2057514 C144.310021,73.8019811 145.042034,73.2272557 145.635462,72.4822946 C146.22841,71.7380528 146.682771,70.8480316 146.998786,69.812471 C147.314322,68.7771501 147.472089,67.6157108 147.472089,66.3281533 C147.472089,65.0403561 147.314322,63.8729226 146.998786,62.824894 C146.682771,61.7775846 146.22841,60.8810897 145.635462,60.1358889 C145.042034,59.3916471 144.310021,58.8169217 143.438702,58.4126718 C142.567622,58.0091412 141.589126,57.8067765 140.503694,57.8067765 C139.392366,57.8067765 138.407637,58.0153752 137.549744,58.4316135 C136.691133,58.8483314 135.964874,59.4295305 135.371926,60.1737723 C134.778499,60.9187334 134.323897,61.8152283 134.008602,62.8625377 C133.692587,63.9108061 133.535059,65.0660113 133.535059,66.3281533 Z M153.569645,66.3281533 C153.569645,68.5755046 153.234928,70.5509583 152.565974,72.2549939 C151.89654,73.9595091 150.981103,75.3863722 149.820383,76.5348639 C148.658704,77.6840749 147.276438,78.5484408 145.673105,79.1291604 C144.069533,79.7094004 142.346316,80 140.503694,80 C138.710464,80 137.019616,79.7094004 135.428991,79.1291604 C133.838126,78.5484408 132.449386,77.6840749 131.263011,76.5348639 C130.075677,75.3863722 129.142018,73.9595091 128.460116,72.2549939 C127.778454,70.5509583 127.437743,68.5755046 127.437743,66.3281533 C127.437743,64.0810418 127.790922,62.1051086 128.498239,60.401073 C129.204598,58.6965578 130.157918,57.2641801 131.35748,56.1025011 C132.556323,54.9415414 133.945303,54.0702222 135.52346,53.4892629 C137.100898,52.9090228 138.761295,52.6184232 140.503694,52.6184232 C142.296204,52.6184232 143.987772,52.9090228 145.578637,53.4892629 C147.169501,54.0702222 148.557522,54.9415414 149.744377,56.1025011 C150.930992,57.2641801 151.86561,58.6965578 152.547032,60.401073 C153.228934,62.1051086 153.569645,64.0810418 153.569645,66.3281533 Z M108.880131,68.0324287 L108.880131,74.811407 C109.309077,74.8624777 109.776386,74.9001214 110.281339,74.9250573 C110.786291,74.9504728 111.342075,74.9631805 111.94797,74.9631805 C113.714825,74.9631805 115.141928,74.7107042 116.2276,74.2057514 C117.312793,73.700559 117.855869,72.7664204 117.855869,71.4028562 C117.855869,70.1910656 117.401508,69.32646 116.492545,68.8087995 C115.583582,68.2916186 114.282837,68.0324287 112.591749,68.0324287 L108.880131,68.0324287 Z M108.880131,63.5254979 L111.758553,63.5254979 C113.576479,63.5254979 114.876504,63.2924428 115.659588,62.824894 C116.441474,62.3580645 116.833496,61.6071091 116.833496,60.5717882 C116.833496,59.5110518 116.429486,58.7665703 115.621465,58.3369049 C114.813205,57.9079588 113.62683,57.6933659 112.061621,57.6933659 C111.556188,57.6933659 111.013592,57.6995999 110.433112,57.7123076 C109.851913,57.7252551 109.334732,57.756425 108.880131,57.8067765 L108.880131,63.5254979 Z M111.872443,79.8105828 C110.433112,79.8105828 108.999775,79.7662256 107.573631,79.6782305 C106.147008,79.5895161 104.66332,79.3816367 103.123526,79.0531537 L103.123526,53.6029132 C104.335556,53.3758523 105.660997,53.205137 107.100088,53.0917265 C108.539419,52.9780762 109.877328,52.9210112 111.115014,52.9210112 C112.781166,52.9210112 114.314966,53.0413751 115.716174,53.2811437 C117.117621,53.5211521 118.322938,53.9311564 119.333084,54.511876 C120.342509,55.0928354 121.132068,55.8562587 121.700079,56.803105 C122.268091,57.7499513 122.552217,58.918104 122.552217,60.3061246 C122.552217,62.4021819 121.542072,64.0558661 119.522501,65.2676567 C121.188653,65.8989675 122.324916,66.7575789 122.931052,67.8430115 C123.536707,68.9289236 123.839775,70.1531822 123.839775,71.5165066 C123.839775,74.2688106 122.836343,76.3394524 120.829,77.727473 C118.821657,79.1164526 115.835818,79.8105828 111.872443,79.8105828 Z M197.236307,41.9954744 L197.236307,47.0701773 L179.701308,47.0701773 L179.701308,20.8246242 L185.609447,20.8246242 L185.609447,41.9954744 L197.236307,41.9954744 Z M154.743552,33.9286988 C154.743552,35.2162563 154.90108,36.3776955 155.217096,37.4127767 C155.532631,38.4483374 155.986993,39.3385983 156.58042,40.0828401 C157.173368,40.8278012 157.899627,41.4025266 158.758238,41.8062969 C159.61613,42.2103071 160.60086,42.4119525 161.712188,42.4119525 C162.797381,42.4119525 163.776116,42.2103071 164.647195,41.8062969 C165.518515,41.4025266 166.250528,40.8278012 166.843956,40.0828401 C167.436903,39.3385983 167.891265,38.4483374 168.20728,37.4127767 C168.522815,36.3776955 168.680583,35.2162563 168.680583,33.9286988 C168.680583,32.6406618 168.522815,31.4732283 168.20728,30.4254395 C167.891265,29.3781301 167.436903,28.4813955 166.843956,27.7364343 C166.250528,26.9919528 165.518515,26.4174671 164.647195,26.0132172 C163.776116,25.6096867 162.797381,25.4073219 161.712188,25.4073219 C160.60086,25.4073219 159.61613,25.6156809 158.758238,26.032159 C157.899627,26.4488768 157.173368,27.030076 156.58042,27.7743178 C155.986993,28.5192789 155.532631,29.4157738 155.217096,30.4630831 C154.90108,31.5111118 154.743552,32.666317 154.743552,33.9286988 Z M174.778139,33.9286988 C174.778139,36.1760501 174.443422,38.151264 173.774707,39.8555394 C173.105273,41.5598148 172.189597,42.9866779 171.028877,44.1351696 C169.867198,45.2843806 168.484932,46.1487465 166.881839,46.7294661 C165.278027,47.3099459 163.555049,47.6003057 161.712188,47.6003057 C159.918958,47.6003057 158.22811,47.3099459 156.637485,46.7294661 C155.04662,46.1487465 153.65788,45.2843806 152.471505,44.1351696 C151.284171,42.9866779 150.350512,41.5598148 149.66861,39.8555394 C148.986948,38.151264 148.646236,36.1760501 148.646236,33.9286988 C148.646236,31.6815873 148.999416,29.705654 149.706733,28.0013787 C150.413091,26.2971033 151.366651,24.8647255 152.565974,23.7030466 C153.764817,22.5420869 155.153797,21.6707677 156.731954,21.0898083 C158.309631,20.5093285 159.969789,20.2187289 161.712188,20.2187289 C163.504938,20.2187289 165.196266,20.5093285 166.786891,21.0898083 C168.377995,21.6707677 169.766016,22.5420869 170.95287,23.7030466 C172.139485,24.8647255 173.074103,26.2971033 173.755526,28.0013787 C174.437428,29.705654 174.778139,31.6815873 174.778139,33.9286988 Z M124.824744,33.9286988 C124.824744,35.2162563 124.982272,36.3776955 125.298287,37.4127767 C125.613583,38.4483374 126.067944,39.3385983 126.661372,40.0828401 C127.25432,40.8278012 127.980579,41.4025266 128.83895,41.8062969 C129.697322,42.2103071 130.682052,42.4119525 131.793379,42.4119525 C132.878572,42.4119525 133.857068,42.2103071 134.728387,41.8062969 C135.599467,41.4025266 136.33148,40.8278012 136.924907,40.0828401 C137.518095,39.3385983 137.972217,38.4483374 138.288232,37.4127767 C138.603767,36.3776955 138.761535,35.2162563 138.761535,33.9286988 C138.761535,32.6406618 138.603767,31.4732283 138.288232,30.4254395 C137.972217,29.3781301 137.518095,28.4813955 136.924907,27.7364343 C136.33148,26.9919528 135.599467,26.4174671 134.728387,26.0132172 C133.857068,25.6096867 132.878572,25.4073219 131.793379,25.4073219 C130.682052,25.4073219 129.697322,25.6156809 128.83895,26.032159 C127.980579,26.4488768 127.25432,27.030076 126.661372,27.7743178 C126.067944,28.5192789 125.613583,29.4157738 125.298287,30.4630831 C124.982272,31.5111118 124.824744,32.666317 124.824744,33.9286988 Z M144.859331,33.9286988 C144.859331,36.1760501 144.524374,38.151264 143.855659,39.8555394 C143.186225,41.5598148 142.270789,42.9866779 141.109829,44.1351696 C139.94791,45.2843806 138.565884,46.1487465 136.962551,46.7294661 C135.358979,47.3099459 133.636001,47.6003057 131.793379,47.6003057 C130.00015,47.6003057 128.309062,47.3099459 126.718437,46.7294661 C125.127572,46.1487465 123.738832,45.2843806 122.552457,44.1351696 C121.365362,42.9866779 120.431464,41.5598148 119.749562,39.8555394 C119.068139,38.151264 118.727428,36.1760501 118.727428,33.9286988 C118.727428,31.6815873 119.080607,29.705654 119.787685,28.0013787 C120.494283,26.2971033 121.447603,24.8647255 122.647165,23.7030466 C123.845769,22.5420869 125.234748,21.6707677 126.813145,21.0898083 C128.390583,20.5093285 130.050981,20.2187289 131.793379,20.2187289 C133.58565,20.2187289 135.277457,20.5093285 136.868082,21.0898083 C138.458947,21.6707677 139.847207,22.5420869 141.034062,23.7030466 C142.220437,24.8647255 143.154816,26.2971033 143.836718,28.0013787 C144.51838,29.705654 144.859331,31.6815873 144.859331,33.9286988 Z M116.947146,20.8246242 L116.947146,25.8616835 L109.031664,25.8616835 L109.031664,47.0701773 L103.123526,47.0701773 L103.123526,25.8616835 L95.208284,25.8616835 L95.208284,20.8246242 L116.947146,20.8246242 Z M15.9446134,66.3612414 C15.9446134,67.4205392 15.086002,68.2793904 14.0264645,68.2793904 C12.9671667,68.2793904 12.1083155,67.4205392 12.1083155,66.3612414 C12.1083155,65.3017039 12.9671667,64.4430924 14.0264645,64.4430924 C15.086002,64.4430924 15.9446134,65.3017039 15.9446134,66.3612414 Z M66.0162144,70.2749846 L65.5599347,73.1805008 L67.5102126,70.9787055 L66.0162144,70.2749846 Z M70.7912065,59.6697787 L70.2076097,60.9072245 L72.0646176,61.7819005 L72.6472554,60.5439751 L70.7912065,59.6697787 Z M71.773059,62.4009831 L67.9830364,70.4452204 L66.1267477,69.5707842 L69.916051,61.5258276 L71.773059,62.4009831 Z M73.1905711,71.6270399 L73.1905711,69.2897754 L77.2460176,66.9923124 L73.1905711,64.6948495 L73.1905711,62.3774857 L79.8429516,66.2531058 L79.8429516,67.7315191 L73.1905711,71.6270399 Z M57.9921176,67.7315191 L57.9921176,66.2531058 L64.6444981,62.3774857 L64.6444981,64.6948495 L60.5892913,66.9923124 L64.6444981,69.2897754 L64.6444981,71.6270399 L57.9921176,67.7315191 Z M77.9439841,76.1047189 L12.6885555,76.1047189 C10.2184592,76.1047189 7.87376182,75.0708366 6.08628673,73.1939279 C4.37817506,71.4004586 3.39848047,69.0751824 3.39848047,66.8144041 C3.39848047,66.5269215 3.40831098,66.2380003 3.42701293,65.9493189 C3.69291634,61.8336905 5.90046605,57.713986 11.2868682,56.8055027 C12.0006594,56.6851388 12.7667201,56.6177639 13.5948809,56.6177639 L17.9035231,56.6177639 L22.5933974,56.6177639 L65.8088145,56.6177639 L76.4914657,56.6177639 L77.0376587,56.6177639 C78.754402,56.6177639 80.3124185,56.9136383 81.6651931,57.4627085 C83.7073025,58.2913488 85.2794653,59.6985509 86.2251128,61.534699 C86.878722,62.8035546 87.2342989,64.2764532 87.2342989,65.9078389 C87.2342989,72.2060811 82.4120724,76.1047189 77.9439841,76.1047189 Z M26.1877688,41.1399799 L29.5649099,44.3567158 L21.1356041,53.2195232 L14.6978166,53.2195232 L26.1877688,41.1399799 Z M32.7416044,31.4535673 L39.686023,29.0048104 L41.028008,30.2832567 L38.920202,37.3386882 L32.1306739,42.1062475 L28.3094814,38.4667995 L32.7416044,31.4535673 Z M56.4681482,24.0708516 C57.5164167,23.9375403 58.557492,23.6709176 59.5659588,23.2635507 C61.0129625,22.6789948 62.3014791,21.8232606 63.3842742,20.7704365 L79.6508969,53.41973 C78.8153032,53.2902549 77.9442238,53.2195232 77.0376587,53.2195232 L68.110833,53.2195232 L56.4681482,24.0708516 Z M50.7976203,19.727443 C48.505672,18.4835234 46.9059358,16.3035471 46.4086556,13.747134 C46.0935997,12.1260584 46.245613,10.4819649 46.8224963,8.98245193 L49.5062265,14.4832237 C49.7555859,14.9941706 50.2437548,15.3466305 50.807211,15.4221576 L51.6701383,15.5379659 C55.0482384,15.9956842 58.3414605,14.3889946 60.0610811,11.4467938 C60.0721104,11.4278521 60.0829,11.4086706 60.0934498,11.3892494 L60.5245538,10.5812291 C60.781346,10.0997737 60.7911765,9.52408925 60.5511681,9.03400219 L58.0748378,3.97680239 C61.2663979,5.20993242 63.5379659,8.28328663 63.6321949,11.945033 C63.723307,15.4473333 61.5279855,18.8060122 58.2927875,20.1125114 C55.7845679,21.1264929 53.1224169,20.9895851 50.7976203,19.727443 Z M84.1851613,54.900541 L65.6596784,17.7172229 C66.5883023,15.945093 67.0831847,13.9351126 67.0292368,11.8572777 C66.8606794,5.28210277 61.6147817,0.073848736 55.0866014,0.000239768623 C55.0801277,0 55.0738937,0 55.0674199,0 C54.485022,0 53.9424256,0.298511936 53.6309661,0.791715994 C53.3161499,1.29043473 53.2821028,1.91671037 53.5415324,2.44635926 L57.1172019,9.74827292 L57.111927,9.7583432 C56.0888343,11.4844375 54.1548606,12.4293657 52.1611845,12.1749712 L48.502555,4.67644723 C48.2503184,4.15878677 47.7525588,3.80440875 47.1811902,3.73463608 C46.6114999,3.66630202 46.0418097,3.88952661 45.6723262,4.33118041 C43.3225937,7.13983006 42.3752679,10.8085298 43.0729946,14.3959479 C43.764727,17.9521961 45.9893003,20.9840704 49.1763049,22.7142408 C50.3130479,23.3311654 51.5260374,23.7517196 52.7713956,23.9771021 L64.4514843,53.2195232 L25.8254784,53.2195232 L33.0799179,45.5922435 L41.3557717,39.7807316 C41.66843,39.5611035 41.8978885,39.2426908 42.0074628,38.8765641 L44.582338,30.2578412 C44.7652815,29.6452324 44.5890516,28.9820323 44.1260584,28.5410978 L41.2754492,25.8257182 C40.812456,25.3847837 40.1411038,25.2409225 39.5385653,25.4535973 L31.0553116,28.4447109 C30.6949394,28.5717882 30.3880355,28.816592 30.1839924,29.1395603 L24.7829644,37.6861129 L9.55358079,53.6971423 C3.1858057,55.2983171 0,60.736749 0,66.8144041 C0,73.1586819 5.43795238,79.5029596 12.6885555,79.5029596 L77.9439841,79.5029596 C84.2882618,79.5029596 90.6325396,74.0650073 90.6325396,65.9078389 C90.6325396,61.0741035 88.2132742,57.0488678 84.1851613,54.900541 Z" id="logo"></path>
          </g>
      </g>
  </g>
</svg>
