<?xml version="1.0" encoding="UTF-8" standalone="no"?>
<svg width="38px" height="75px" viewBox="0 0 38 75" version="1.1" xmlns="http://www.w3.org/2000/svg" xmlns:xlink="http://www.w3.org/1999/xlink" xmlns:sketch="http://www.bohemiancoding.com/sketch/ns">
    <!-- Generator: Sketch 3.3.2 (12043) - http://www.bohemiancoding.com/sketch -->
    <title>task</title>
    <desc>Created with Sketch.</desc>
    <defs></defs>
    <g id="Page-1" stroke="none" stroke-width="1" fill="none" fill-rule="evenodd" sketch:type="MSPage">
        <path d="M22.344,14.062 L22.344,7.777 C22.344,7.293 22.738,6.898 23.227,6.898 L35.266,6.898 C35.332,6.898 35.395,6.891 35.453,6.879 L35.469,6.879 C36.684,6.879 37.5,5.496 37.5,3.437 C37.5,1.379 36.684,0 35.469,0 L35.453,0 L35.438,0 L22.582,0 C18.641,0 15.438,3.207 15.438,7.145 L15.438,14.074 C8.07,14.629 0.465,17.098 0.465,21.406 L0.465,27.746 C0.465,28.883 0.992,29.898 1.91,30.785 C1.91,30.836 1.906,30.887 1.914,30.937 L5.918,66.742 C5.977,70.121 10.543,74.953 18.762,74.953 C26.977,74.953 31.543,70.125 31.602,66.746 L35.801,31 C36.863,30.062 37.477,28.977 37.477,27.746 L37.477,21.406 C37.477,17.062 29.773,14.594 22.344,14.062 L22.344,14.062 Z M34.82,2.113 L35.16,2.113 C35.258,2.34 35.387,2.797 35.387,3.441 C35.387,4.105 35.254,4.57 35.156,4.789 L34.832,4.789 C34.73,4.57 34.602,4.105 34.602,3.445 C34.598,2.793 34.723,2.336 34.82,2.113 L34.82,2.113 Z M17.551,7.145 C17.551,4.371 19.809,2.113 22.586,2.113 L32.613,2.113 C32.531,2.512 32.484,2.957 32.484,3.441 C32.484,3.93 32.531,4.383 32.621,4.785 L23.227,4.785 C21.578,4.785 20.23,6.129 20.23,7.777 L20.23,26.738 C19.816,26.75 19.395,26.758 18.969,26.758 C18.488,26.758 18.016,26.75 17.547,26.73 L17.547,7.145 L17.551,7.145 Z M22.344,24.883 C24.59,25.016 26.723,25.277 28.602,25.652 C26.781,26.113 24.672,26.461 22.344,26.637 L22.344,24.883 Z M15.441,16.191 L15.441,20.406 C15.434,21.656 14.547,22.695 13.367,22.937 C13.195,22.953 13.027,22.973 12.855,22.988 L12.844,22.988 C10.129,23.277 7.664,23.762 5.688,24.398 C3.715,23.488 2.578,22.422 2.578,21.402 C2.578,19.32 7.469,16.801 15.441,16.191 L15.441,16.191 Z M15.441,24.891 L15.441,26.621 C13.176,26.445 11.117,26.102 9.34,25.652 C11.172,25.285 13.246,25.027 15.441,24.891 L15.441,24.891 Z M29.496,66.555 C29.492,66.598 29.488,66.637 29.488,66.676 C29.488,68.887 25.902,72.836 18.762,72.836 C11.617,72.836 8.031,68.883 8.031,66.676 C8.031,66.637 8.027,66.598 8.023,66.559 L4.199,32.367 C7.797,34.23 13.488,35.207 18.973,35.207 C24.328,35.207 29.891,34.273 33.496,32.492 L29.496,66.555 Z M35.363,27.746 C35.363,30.273 28.352,33.098 18.973,33.098 C9.59,33.098 2.578,30.273 2.578,27.746 L2.578,25.019 C5.887,27.543 12.57,28.875 18.973,28.875 C25.371,28.875 32.055,27.543 35.363,25.019 L35.363,27.746 Z M32.23,24.414 C32.172,24.383 32.113,24.355 32.051,24.336 C30.062,23.715 27.586,23.246 24.879,22.969 L24.922,22.957 C23.602,22.957 22.512,21.965 22.348,20.691 L22.348,16.18 C30.414,16.769 35.367,19.301 35.367,21.406 C35.363,22.43 34.219,23.5 32.23,24.414 L32.23,24.414 Z" id="task" fill="#000000" sketch:type="MSShapeGroup"></path>
    </g>
</svg>