<?xml version="1.0" encoding="UTF-8" standalone="no"?>
<svg width="68px" height="68px" viewBox="0 0 68 68" version="1.1" xmlns="http://www.w3.org/2000/svg" xmlns:xlink="http://www.w3.org/1999/xlink" xmlns:sketch="http://www.bohemiancoding.com/sketch/ns">
    <!-- Generator: Sketch 3.3.2 (12043) - http://www.bohemiancoding.com/sketch -->
    <title>sub</title>
    <desc>Created with Sketch.</desc>
    <defs></defs>
    <g id="Page-1" stroke="none" stroke-width="1" fill="none" fill-rule="evenodd" sketch:type="MSPage">
        <path d="M65.274,24.629 C63.836,23.188 61.918,22.395 59.883,22.395 C57.848,22.395 55.934,23.188 54.492,24.629 C53.055,26.066 52.262,27.98 52.262,30.016 C52.262,30.371 52.316,30.711 52.363,31.059 L44.629,33.094 C44.172,31.121 43.207,29.238 41.668,27.699 C39.91,25.941 37.711,24.926 35.43,24.582 L35.43,15.039 C36.824,14.727 38.106,14.043 39.141,13.008 C40.578,11.57 41.371,9.656 41.371,7.621 C41.371,5.586 40.578,3.672 39.141,2.234 C37.703,0.793 35.789,0 33.754,0 C31.719,0 29.805,0.793 28.363,2.234 C26.926,3.672 26.133,5.586 26.133,7.621 C26.133,9.656 26.926,11.57 28.363,13.008 C29.758,14.402 31.598,15.172 33.563,15.223 L33.563,24.441 C30.762,24.488 27.973,25.566 25.836,27.703 C24.274,29.266 23.293,31.18 22.848,33.188 L15.133,31.156 C15.188,30.781 15.242,30.402 15.242,30.02 C15.242,27.984 14.449,26.07 13.012,24.633 C11.574,23.191 9.656,22.398 7.621,22.398 C5.586,22.398 3.672,23.191 2.231,24.633 C0.793,26.07 0,27.984 0,30.02 C0,32.055 0.793,33.969 2.231,35.406 C3.668,36.848 5.586,37.641 7.621,37.641 C9.656,37.641 11.57,36.848 13.012,35.406 C13.723,34.695 14.277,33.863 14.652,32.961 L22.609,35.055 C22.457,38.105 23.504,41.203 25.836,43.535 C26.387,44.086 26.984,44.566 27.609,44.977 L21.797,52.867 C20.867,52.473 19.863,52.262 18.824,52.262 C16.789,52.262 14.875,53.055 13.434,54.496 C11.996,55.934 11.203,57.848 11.203,59.883 C11.203,61.918 11.996,63.832 13.434,65.27 C14.871,66.707 16.789,67.5 18.824,67.5 C20.859,67.5 22.774,66.707 24.215,65.266 C25.652,63.828 26.445,61.914 26.445,59.879 C26.445,57.844 25.652,55.93 24.215,54.492 C23.965,54.242 23.684,54.039 23.41,53.828 L29.285,45.852 C32.504,47.254 36.219,47.055 39.301,45.289 L45.734,54.02 C45.543,54.176 45.34,54.312 45.164,54.488 C43.727,55.926 42.934,57.84 42.934,59.875 C42.934,61.91 43.727,63.824 45.164,65.262 C46.602,66.707 48.516,67.5 50.551,67.5 C52.586,67.5 54.5,66.707 55.942,65.266 C57.379,63.828 58.172,61.914 58.172,59.879 C58.172,57.844 57.379,55.93 55.942,54.492 C54.504,53.051 52.586,52.258 50.551,52.258 C49.406,52.258 48.309,52.535 47.305,53.012 L40.828,44.219 C41.109,43.988 41.406,43.793 41.672,43.531 C44.027,41.176 45.07,38.039 44.887,34.957 L52.82,32.867 C53.199,33.805 53.762,34.668 54.496,35.402 C55.934,36.844 57.852,37.637 59.887,37.637 C61.922,37.637 63.836,36.844 65.277,35.402 C66.715,33.965 67.508,32.051 67.508,30.016 C67.504,27.98 66.711,26.066 65.274,24.629 L65.274,24.629 Z M11.473,33.867 C9.414,35.922 5.828,35.922 3.774,33.867 C2.746,32.84 2.18,31.473 2.18,30.016 C2.18,28.562 2.746,27.195 3.774,26.164 C4.801,25.137 6.168,24.57 7.625,24.57 C9.078,24.57 10.445,25.137 11.473,26.164 C12.5,27.191 13.066,28.559 13.066,30.016 C13.066,31.473 12.5,32.84 11.473,33.867 L11.473,33.867 Z M24.266,59.879 C24.266,61.332 23.699,62.699 22.672,63.73 C20.613,65.785 17.027,65.785 14.973,63.73 C13.945,62.703 13.379,61.336 13.379,59.879 C13.379,58.426 13.945,57.059 14.973,56.027 C16,55 17.367,54.434 18.824,54.434 C20.277,54.434 21.645,55 22.672,56.027 C23.699,57.059 24.266,58.426 24.266,59.879 L24.266,59.879 Z M29.906,11.469 C28.879,10.441 28.313,9.074 28.313,7.617 C28.313,6.164 28.879,4.797 29.906,3.766 C30.934,2.738 32.301,2.172 33.758,2.172 C35.211,2.172 36.578,2.738 37.606,3.766 C38.633,4.793 39.199,6.16 39.199,7.617 C39.199,9.07 38.633,10.438 37.606,11.469 C35.543,13.527 31.961,13.523 29.906,11.469 L29.906,11.469 Z M50.551,54.434 C52.004,54.434 53.371,55 54.399,56.027 C55.426,57.055 55.992,58.422 55.992,59.879 C55.992,61.332 55.426,62.699 54.399,63.73 C52.34,65.785 48.754,65.785 46.699,63.73 C45.672,62.703 45.106,61.336 45.106,59.879 C45.106,58.426 45.672,57.059 46.699,56.027 C47.731,55.004 49.098,54.434 50.551,54.434 L50.551,54.434 Z M63.731,33.867 C61.672,35.922 58.086,35.922 56.031,33.867 C55.004,32.84 54.438,31.473 54.438,30.016 C54.438,28.562 55.004,27.195 56.031,26.164 C57.059,25.137 58.426,24.57 59.883,24.57 C61.336,24.57 62.703,25.137 63.731,26.164 C64.758,27.191 65.324,28.559 65.324,30.016 C65.328,31.473 64.762,32.84 63.731,33.867 L63.731,33.867 Z" id="sub" fill="#000000" sketch:type="MSShapeGroup"></path>
    </g>
</svg>