<?xml version="1.0" encoding="UTF-8" standalone="no"?>
<svg width="62px" height="72px" viewBox="0 0 62 72" version="1.1" xmlns="http://www.w3.org/2000/svg" xmlns:xlink="http://www.w3.org/1999/xlink" xmlns:sketch="http://www.bohemiancoding.com/sketch/ns">
    <!-- Generator: Sketch 3.3.2 (12043) - http://www.bohemiancoding.com/sketch -->
    <title>atomic</title>
    <desc>Created with Sketch.</desc>
    <defs></defs>
    <g id="Page-1" stroke="none" stroke-width="1" fill="none" fill-rule="evenodd" sketch:type="MSPage">
        <path d="M51.4292284,35.949 C58.8472284,28.531 63.2612284,20.949 60.1792284,16.367 C57.4292284,12.199 50.0972284,12.785 41.6792284,15.867 C41.5972284,15.449 41.5112284,15.035 41.4292284,14.699 C41.1792284,13.949 40.4292284,13.449 39.5972284,13.699 C38.8472284,13.949 38.3472284,14.699 38.5972284,15.531 C38.7652284,16.031 38.8472284,16.531 38.9292284,17.031 C36.3472284,18.113 33.6792284,19.449 31.0112284,20.949 C28.4292284,19.531 25.7612284,18.199 23.1792284,17.117 C25.1792284,9.617 28.1792284,5.367 31.0112284,5.367 C32.7612284,5.367 34.2612284,5.867 35.2612284,7.285 C34.9292284,7.785 34.7612284,8.285 34.7612284,8.953 C34.7612284,10.621 36.0932284,11.953 37.7612284,11.953 C39.4292284,11.953 40.7612284,10.621 40.7612284,8.953 C40.7612284,7.371 39.5112284,6.121 37.9292284,6.035 C35.4292284,1.867 32.7612284,0.953 31.0112284,0.953 C26.0112284,0.953 22.4292284,7.285 20.2612284,16.035 C11.8432284,12.953 4.51122844,12.367 1.76122844,16.535 C-1.32077156,20.949 3.09722844,28.531 10.5152284,35.949 C10.4332284,36.031 10.3472284,36.117 10.2652284,36.199 C9.68322844,36.781 9.68322844,37.699 10.2652284,38.281 C10.8472284,38.863 11.7652284,38.863 12.3472284,38.281 L12.5972284,38.031 C14.3472284,39.613 16.2652284,41.199 18.1792284,42.781 C18.4292284,46.363 18.8472284,49.949 19.5112284,53.199 C14.5112284,55.031 10.1792284,55.867 7.26122844,55.281 C6.01122844,55.031 5.17922844,54.531 4.67922844,53.863 C3.51122844,52.195 4.01122844,49.031 6.59722844,45.113 C6.76522844,45.113 6.92922844,45.195 7.09722844,45.195 C8.76522844,45.195 10.0972284,43.863 10.0972284,42.195 C10.0972284,40.527 8.76522844,39.195 7.09722844,39.195 C5.42922844,39.195 4.17922844,40.449 4.17922844,42.113 C4.17922844,42.445 4.26122844,42.781 4.34722844,43.113 C0.679228441,48.363 -0.234771559,52.695 1.76522844,55.531 C2.68322844,56.949 4.18322844,57.781 6.26522844,58.199 C9.76522844,58.867 14.6832284,58.031 20.2652284,56.031 C22.3472284,64.781 26.0152284,71.113 30.9332284,71.113 C35.9332284,71.113 39.5152284,64.781 41.6832284,56.031 C41.7652284,56.113 41.9332284,56.113 42.0152284,56.199 C42.7652284,56.449 43.5972284,56.031 43.9332284,55.281 C44.1832284,54.531 43.7652284,53.699 43.0152284,53.363 C42.7652284,53.281 42.5152284,53.195 42.3472284,53.113 C43.0152284,49.863 43.4292284,46.281 43.6792284,42.695 C45.6792284,41.113 47.5972284,39.527 49.3472284,37.945 C54.0152284,42.527 57.0152284,46.863 57.6792284,50.277 C57.9292284,51.527 57.7612284,52.859 57.2612284,53.609 C56.5932284,54.609 55.4292284,55.359 53.5112284,55.527 C53.0932284,54.445 52.0112284,53.609 50.7612284,53.609 C49.0932284,53.609 47.7612284,54.941 47.7612284,56.609 C47.7612284,58.277 49.0932284,59.609 50.7612284,59.609 C51.6792284,59.609 52.4292284,59.191 53.0112284,58.609 C57.2612284,58.609 59.2612284,57.109 60.2612284,55.691 C61.1792284,54.273 61.4292284,52.609 61.0932284,50.523 C60.1792284,46.281 56.6792284,41.199 51.4292284,35.949 L51.4292284,35.949 Z M56.6792284,18.699 C58.4292284,21.367 55.8472284,27.117 49.2612284,33.867 C47.5112284,32.285 45.6792284,30.699 43.6792284,29.199 C43.4292284,25.531 43.0112284,22.117 42.3472284,18.867 C49.7652284,16.199 55.0972284,16.281 56.6792284,18.699 L56.6792284,18.699 Z M39.5972284,19.863 C40.0152284,22.031 40.3472284,24.363 40.5972284,26.781 C39.8472284,26.199 39.0972284,25.699 38.2652284,25.199 C36.8472284,24.281 35.5152284,23.367 34.0152284,22.531 C35.9292284,21.531 37.7652284,20.613 39.5972284,19.863 L39.5972284,19.863 Z M40.9292284,35.949 C40.9292284,37.781 40.8472284,39.531 40.7612284,41.199 C39.4292284,42.199 38.0112284,43.199 36.5112284,44.281 C34.6792284,45.531 32.7612284,46.699 30.9292284,47.781 C29.0972284,46.699 27.1792284,45.531 25.3472284,44.281 C23.8472284,43.281 22.4292284,42.281 21.0972284,41.199 C21.0152284,39.531 20.9292284,37.781 20.9292284,35.949 C20.9292284,34.117 21.0112284,32.367 21.0972284,30.699 C22.5152284,29.617 23.9292284,28.617 25.3472284,27.617 C27.2652284,26.367 29.0972284,25.199 30.9292284,24.117 C32.7612284,25.199 34.5972284,26.285 36.5112284,27.617 C38.0112284,28.617 39.4292284,29.617 40.7612284,30.617 C40.9292284,32.449 40.9292284,34.199 40.9292284,35.949 L40.9292284,35.949 Z M28.0152284,22.531 C26.5972284,23.363 25.1832284,24.281 23.7652284,25.199 C23.0152284,25.699 22.1792284,26.281 21.4292284,26.863 C21.6792284,24.363 22.0112284,22.031 22.4292284,19.863 C24.2652284,20.613 26.0972284,21.531 28.0152284,22.531 L28.0152284,22.531 Z M4.67922844,18.199 C6.26122844,15.781 11.9292284,15.949 19.6792284,18.781 C19.0112284,22.031 18.5972284,25.613 18.3472284,29.199 C16.3472284,30.699 14.5152284,32.367 12.7652284,33.949 C5.76522844,26.949 2.84722844,20.781 4.67922844,18.199 L4.67922844,18.199 Z M14.8472284,35.949 C15.9292284,35.031 17.0152284,34.031 18.0972284,33.117 C18.0972284,34.035 18.0152284,35.035 18.0152284,35.949 C18.0152284,36.867 18.0152284,37.867 18.0972284,38.781 C16.9292284,37.863 15.8472284,36.863 14.8472284,35.949 L14.8472284,35.949 Z M21.4292284,45.031 C22.1792284,45.613 23.0112284,46.113 23.7612284,46.699 C25.1792284,47.617 26.5932284,48.531 28.0112284,49.367 C26.0932284,50.367 24.2612284,51.285 22.4292284,52.035 C22.0152284,49.863 21.6792284,47.531 21.4292284,45.031 L21.4292284,45.031 Z M31.0152284,67.363 C28.1832284,67.363 25.0972284,62.781 23.0972284,54.945 C25.6792284,53.863 28.2652284,52.613 31.0152284,51.113 C33.6832284,52.613 36.3472284,53.863 38.9332284,54.945 C36.9292284,62.781 33.8472284,67.363 31.0152284,67.363 L31.0152284,67.363 Z M39.5152284,52.031 C37.6832284,51.281 35.8472284,50.363 33.9332284,49.363 C35.3512284,48.531 36.7652284,47.613 38.1832284,46.695 C38.9332284,46.195 39.7652284,45.613 40.5152284,45.027 C40.2652284,47.531 39.9292284,49.863 39.5152284,52.031 L39.5152284,52.031 Z M43.8472284,38.781 C43.8472284,37.863 43.9292284,36.863 43.9292284,35.949 L43.9292284,33.031 C45.0972284,33.949 46.1792284,34.949 47.2612284,35.863 C46.1792284,36.863 45.0152284,37.781 43.8472284,38.781 L43.8472284,38.781 Z" id="atomic" fill="#000000" sketch:type="MSShapeGroup"></path>
    </g>
</svg>