<?xml version="1.0" encoding="UTF-8" standalone="no"?>
<svg width="90px" height="63px" viewBox="0 0 90 63" version="1.1" xmlns="http://www.w3.org/2000/svg" xmlns:xlink="http://www.w3.org/1999/xlink" xmlns:sketch="http://www.bohemiancoding.com/sketch/ns">
    <!-- Generator: Sketch 3.3.2 (12043) - http://www.bohemiancoding.com/sketch -->
    <title>template</title>
    <desc>Created with Sketch.</desc>
    <defs></defs>
    <g id="Page-1" stroke="none" stroke-width="1" fill="none" fill-rule="evenodd" sketch:type="MSPage">
        <g id="template" sketch:type="MSLayerGroup" fill="#000000">
            <path d="M79.0063636,36.8070652 L54.8809091,36.7906304 C54.5986364,36.7906304 54.3695455,36.5605435 54.3695455,36.2770435 L54.3804545,18.8041304 C54.3804545,18.6712826 54.4336364,18.5370652 54.5290909,18.4411957 C54.6259091,18.3453261 54.7527273,18.2905435 54.8918182,18.2905435 L79.0159091,18.3069783 C79.155,18.3069783 79.2831818,18.3603913 79.3786364,18.4576304 C79.4740909,18.5535 79.5272727,18.6822391 79.5272727,18.8205652 L79.5163636,36.288 C79.5163636,36.5769783 79.2886364,36.8070652 79.0063636,36.8070652 L79.0063636,36.8070652 Z M55.3868182,35.7689348 L78.4895455,35.7853696 L78.4990909,19.3451087 L55.3977273,19.3231957 L55.3868182,35.7689348 Z" id="Fill-1" sketch:type="MSShapeGroup"></path>
            <path d="M76.4536364,36.518087 C76.2940909,36.518087 76.14,36.4427609 76.0390909,36.3044348 L69.8222727,27.7172609 L66.0463636,31.836913 C65.9386364,31.9546957 65.7790909,32.013587 65.625,32.0026304 C65.4654545,31.9861957 65.3209091,31.9012826 65.2363636,31.761587 L59.52,22.6197391 L55.1795455,25.7163261 C54.9504545,25.8820435 54.63,25.8286304 54.465,25.5944348 C54.3,25.3643478 54.3531818,25.0425 54.5822727,24.8767826 L59.3659091,21.4638261 C59.4831818,21.3775435 59.6222727,21.3460435 59.76,21.3775435 C59.8990909,21.4049348 60.0218182,21.4898478 60.0954545,21.6076304 L65.7422727,30.6440217 L69.4922727,26.5572391 C69.5986364,26.4449348 69.7472727,26.3860435 69.8972727,26.3915217 C70.0513636,26.4011087 70.1904545,26.4764348 70.2804545,26.5996957 L76.8640909,35.6936087 C77.0290909,35.9236957 76.9813636,36.2455435 76.7522727,36.4112609 C76.6622727,36.486587 76.5559091,36.518087 76.4536364,36.518087 L76.4536364,36.518087 Z" id="Fill-2" sketch:type="MSShapeGroup"></path>
            <path d="M73.7263636,24.9726522 L73.7263636,24.9726522 C73.1031818,24.9726522 72.5181818,24.7275 72.075,24.2878696 C71.6331818,23.8441304 71.3931818,23.2552174 71.3931818,22.6293261 C71.3931818,21.335087 72.4377273,20.286 73.7263636,20.286 C74.3495455,20.286 74.9413636,20.5325217 75.3777273,20.9707826 C75.8209091,21.4158913 76.0595455,22.0034348 76.0595455,22.6293261 C76.065,23.9194565 75.0163636,24.9726522 73.7263636,24.9726522 L73.7263636,24.9726522 Z M73.7263636,21.3090652 C73.3759091,21.3090652 73.0445455,21.4473913 72.8004545,21.693913 C72.555,21.9404348 72.4159091,22.2718696 72.4159091,22.6252174 C72.4159091,22.9771957 72.3368182,23.31 72.5822727,23.5551522 C72.8318182,23.8071522 73.2954545,23.9454783 73.2954545,23.9454783 L73.2954545,24.4590652 L73.2954545,23.9454783 C74.3181818,23.9454783 74.8240909,23.3579348 74.8240909,22.6293261 C74.8240909,22.2773478 74.7981818,21.9445435 74.5472727,21.6993913 C74.3018182,21.4473913 74.0781818,21.3090652 73.7263636,21.3090652 L73.7263636,21.3090652 Z" id="Fill-3" sketch:type="MSShapeGroup"></path>
            <path d="M88.6363636,63 L1.70454545,63 C1.14,63 0.681818182,62.5398261 0.681818182,61.9728261 L0.681818182,9.58695652 C0.681818182,9.01995652 1.14,8.55978261 1.70454545,8.55978261 L88.6363636,8.55978261 C89.2009091,8.55978261 89.6590909,9.01995652 89.6590909,9.58695652 L89.6590909,61.9728261 C89.6590909,62.5398261 89.2009091,63 88.6363636,63 L88.6363636,63 Z M2.72727273,60.9456522 L87.6136364,60.9456522 L87.6136364,10.6141304 L2.72727273,10.6141304 L2.72727273,60.9456522 Z" id="Fill-4" sketch:type="MSShapeGroup"></path>
            <path d="M88.6363636,10.6141304 C88.0718182,10.6141304 87.6136364,10.1539565 87.6136364,9.58695652 L87.6136364,4.45108696 C87.6136364,3.24176087 86.7395455,2.39673913 85.4931818,2.39673913 L5.10272727,2.39673913 C3.79227273,2.39673913 2.72727273,3.31708696 2.72727273,4.45108696 L2.72727273,9.58695652 C2.72727273,10.1539565 2.26909091,10.6141304 1.70454545,10.6141304 C1.14,10.6141304 0.681818182,10.1539565 0.681818182,9.58695652 L0.681818182,4.45108696 C0.681818182,2.18308696 2.66318182,0.342391304 5.10272727,0.342391304 L85.4986364,0.342391304 C87.87,0.342391304 89.6590909,2.10776087 89.6590909,4.45108696 L89.6590909,9.58695652 C89.6590909,10.1539565 89.2009091,10.6141304 88.6363636,10.6141304 L88.6363636,10.6141304 Z" id="Fill-5" sketch:type="MSShapeGroup"></path>
            <path d="M82.5,41.4293478 L8.86363636,41.4293478 C8.29909091,41.4293478 7.84090909,40.9691739 7.84090909,40.4021739 L7.84090909,14.7228261 C7.84090909,14.1558261 8.29909091,13.6956522 8.86363636,13.6956522 L82.5,13.6956522 C83.0645455,13.6956522 83.5227273,14.1558261 83.5227273,14.7228261 L83.5227273,40.4021739 C83.5227273,40.9691739 83.0645455,41.4293478 82.5,41.4293478 L82.5,41.4293478 Z M9.88636364,39.375 L81.4772727,39.375 L81.4772727,15.75 L9.88636364,15.75 L9.88636364,39.375 Z" id="Fill-6" sketch:type="MSShapeGroup"></path>
            <path d="M48.75,20.8858696 L17.0454545,20.8858696 C16.7631818,20.8858696 16.5340909,20.6557826 16.5340909,20.3722826 C16.5340909,20.0887826 16.7631818,19.8586957 17.0454545,19.8586957 L48.75,19.8586957 C49.0322727,19.8586957 49.2613636,20.0887826 49.2613636,20.3722826 C49.2613636,20.6557826 49.0322727,20.8858696 48.75,20.8858696 L48.75,20.8858696 Z" id="Fill-7" sketch:type="MSShapeGroup"></path>
            <path d="M32.3863636,24.9945652 L17.0454545,24.9945652 C16.7631818,24.9945652 16.5340909,24.7644783 16.5340909,24.4809783 C16.5340909,24.1974783 16.7631818,23.9673913 17.0454545,23.9673913 L32.3863636,23.9673913 C32.6686364,23.9673913 32.8977273,24.1974783 32.8977273,24.4809783 C32.8977273,24.7644783 32.6686364,24.9945652 32.3863636,24.9945652 L32.3863636,24.9945652 Z" id="Fill-8" sketch:type="MSShapeGroup"></path>
            <path d="M40.5681818,29.1032609 L17.0454545,29.1032609 C16.7631818,29.1032609 16.5340909,28.8731739 16.5340909,28.5896739 C16.5340909,28.3061739 16.7631818,28.076087 17.0454545,28.076087 L40.5681818,28.076087 C40.8504545,28.076087 41.0795455,28.3061739 41.0795455,28.5896739 C41.0795455,28.8731739 40.8504545,29.1032609 40.5681818,29.1032609 L40.5681818,29.1032609 Z" id="Fill-9" sketch:type="MSShapeGroup"></path>
            <path d="M56.9318182,48.6195652 L33.4090909,48.6195652 C32.8445455,48.6195652 32.3863636,48.1593913 32.3863636,47.5923913 C32.3863636,47.0253913 32.8445455,46.5652174 33.4090909,46.5652174 L56.9318182,46.5652174 C57.4963636,46.5652174 57.9545455,47.0253913 57.9545455,47.5923913 C57.9545455,48.1593913 57.4963636,48.6195652 56.9318182,48.6195652 L56.9318182,48.6195652 Z" id="Fill-10" sketch:type="MSShapeGroup"></path>
            <path d="M52.8409091,53.7554348 L38.5227273,53.7554348 C37.9581818,53.7554348 37.5,53.2952609 37.5,52.7282609 C37.5,52.1612609 37.9581818,51.701087 38.5227273,51.701087 L52.8409091,51.701087 C53.4054545,51.701087 53.8636364,52.1612609 53.8636364,52.7282609 C53.8636364,53.2952609 53.4054545,53.7554348 52.8409091,53.7554348 L52.8409091,53.7554348 Z" id="Fill-11" sketch:type="MSShapeGroup"></path>
            <path d="M8.66181818,5.50565217 C8.66181818,7.2491087 6.05181818,7.2491087 6.05181818,5.50565217 C6.05181818,3.75534783 8.66181818,3.75534783 8.66181818,5.50565217" id="Fill-12" sketch:type="MSShapeGroup"></path>
            <path d="M12.8536364,5.50565217 C12.8536364,7.2491087 10.2436364,7.2491087 10.2436364,5.50565217 C10.2436364,3.75534783 12.8536364,3.75534783 12.8536364,5.50565217" id="Fill-13" sketch:type="MSShapeGroup"></path>
            <path d="M17.0454545,5.50565217 C17.0454545,7.2491087 14.4354545,7.2491087 14.4354545,5.50565217 C14.4354545,3.75534783 17.0454545,3.75534783 17.0454545,5.50565217" id="Fill-14" sketch:type="MSShapeGroup"></path>
            <path d="M43.38,35.0088261 C43.38,36.3783913 41.3345455,36.3783913 41.3345455,35.0088261 C41.3345455,33.6392609 43.38,33.6392609 43.38,35.0088261" id="Fill-15" sketch:type="MSShapeGroup"></path>
            <path d="M46.4481818,35.0088261 C46.4481818,36.3783913 44.4027273,36.3783913 44.4027273,35.0088261 C44.4027273,33.6392609 46.4481818,33.6392609 46.4481818,35.0088261" id="Fill-16" sketch:type="MSShapeGroup"></path>
            <path d="M49.5163636,35.0088261 C49.5163636,36.3783913 47.4709091,36.3783913 47.4709091,35.0088261 C47.4709091,33.6392609 49.5163636,33.6392609 49.5163636,35.0088261" id="Fill-17" sketch:type="MSShapeGroup"></path>
        </g>
    </g>
</svg>