<?xml version="1.0" encoding="UTF-8" standalone="no"?>
<svg width="58px" height="67px" viewBox="0 0 58 67" version="1.1" xmlns="http://www.w3.org/2000/svg" xmlns:xlink="http://www.w3.org/1999/xlink" xmlns:sketch="http://www.bohemiancoding.com/sketch/ns">
    <!-- Generator: Sketch 3.3.2 (12043) - http://www.bohemiancoding.com/sketch -->
    <title>styleguide</title>
    <desc>Created with Sketch.</desc>
    <defs></defs>
    <g id="Page-1" stroke="none" stroke-width="1" fill="none" fill-rule="evenodd" sketch:type="MSPage">
        <g id="styleguide" sketch:type="MSLayerGroup" fill="#000000">
            <path d="M4.09,62.828 C3.297,62.031 3.297,60.754 4.086,59.965 C4.879,59.172 6.16,59.172 6.953,59.965 C7.742,60.754 7.746,62.039 6.953,62.832 C6.164,63.621 4.879,63.617 4.09,62.828 L4.09,62.828 Z" id="Fill-1" sketch:type="MSShapeGroup"></path>
            <path d="M15.086,17.34 L5.395,17.34 C4.176,17.34 3.188,16.352 3.188,15.141 L3.188,5.449 C3.188,4.23 4.176,3.242 5.395,3.242 L15.082,3.242 C16.301,3.242 17.289,4.23 17.289,5.449 L17.289,15.137 C17.293,16.352 16.301,17.34 15.086,17.34 L15.086,17.34 Z M5.395,3.992 C4.59,3.992 3.938,4.645 3.938,5.449 L3.938,15.137 C3.938,15.938 4.59,16.586 5.395,16.586 L15.082,16.586 C15.887,16.586 16.539,15.938 16.539,15.137 L16.539,5.449 C16.539,4.645 15.887,3.992 15.082,3.992 L5.395,3.992 Z" id="Fill-2" sketch:type="MSShapeGroup"></path>
            <path d="M56.75,25.984 L47.66,16.895 C47.652,16.633 47.609,16.379 47.539,16.121 C47.285,15.176 46.684,14.387 45.844,13.902 L34.742,7.488 C34.375,6.355 33.461,5.426 32.23,5.098 L19.852,1.781 C19.215,0.762 18.074,0.086 16.785,0.086 L3.703,0.086 C1.691,0.086 0.059,1.727 0.059,3.738 L0.059,63.238 C0.059,65.25 1.695,66.883 3.703,66.883 L19.52,66.883 C20.645,66.883 21.648,66.371 22.309,65.578 C22.332,65.555 22.348,65.539 22.359,65.527 L56.75,31.137 C57.434,30.453 57.816,29.539 57.816,28.562 C57.816,27.582 57.434,26.668 56.75,25.984 L56.75,25.984 Z M18.926,63.238 C18.926,63.68 18.789,64.094 18.559,64.438 L18.551,64.445 C18.168,65.008 17.516,65.383 16.781,65.383 L3.703,65.383 C2.52,65.383 1.559,64.422 1.559,63.238 L1.559,3.738 C1.559,2.555 2.52,1.586 3.703,1.586 L16.781,1.586 C17.957,1.586 18.926,2.555 18.926,3.738 L18.926,63.238 Z M34.812,9.566 C34.836,9.477 34.859,9.387 34.871,9.305 L45.094,15.199 C45.59,15.484 45.941,15.949 46.09,16.504 C46.238,17.059 46.156,17.637 45.871,18.133 L20.938,61.324 L26.195,41.703 L26.512,41.883 C26.855,42.086 27.238,42.176 27.613,42.176 C28.371,42.176 29.113,41.785 29.52,41.082 L34.363,32.691 C34.973,31.641 34.609,30.285 33.562,29.676 L29.977,27.613 L30.555,25.453 L34.926,27.98 C35.27,28.184 35.652,28.273 36.027,28.273 C36.785,28.273 37.527,27.883 37.941,27.18 L42.777,18.789 C43.387,17.738 43.023,16.391 41.977,15.773 L34.332,11.359 L34.812,9.566 Z M52.578,27.777 C53.141,28.34 53.141,29.27 52.57,29.832 L45.723,36.688 C45.164,37.25 44.238,37.25 43.672,36.68 L39.383,32.391 L45.898,21.094 L52.578,27.777 Z M37.387,35.848 L40.484,38.945 C41.055,39.516 41.055,40.438 40.484,41.008 L33.629,47.855 C33.066,48.418 32.145,48.418 31.574,47.848 L30.863,47.137 L37.387,35.848 Z M26.398,40.953 L29.773,28.352 L33.188,30.324 C33.879,30.73 34.117,31.621 33.719,32.312 L28.875,40.703 C28.469,41.395 27.578,41.633 26.887,41.227 L26.398,40.953 Z M34.129,12.109 L41.598,16.422 C42.289,16.828 42.527,17.719 42.129,18.41 L37.285,26.801 C36.887,27.492 35.996,27.73 35.297,27.324 L30.75,24.707 L34.129,12.109 Z M20.938,37.781 C21.125,37.832 21.32,37.855 21.508,37.855 C22.484,37.855 23.375,37.211 23.637,36.227 L26.141,26.867 C26.457,25.691 25.758,24.48 24.578,24.168 L20.422,23.051 L20.422,20.809 L25.176,22.074 C25.363,22.125 25.559,22.148 25.746,22.148 C26.723,22.148 27.613,21.504 27.875,20.52 L30.379,11.16 C30.695,9.988 29.996,8.773 28.82,8.461 L20.422,6.211 L20.422,3.734 C20.422,3.652 20.422,3.562 20.406,3.48 L31.836,6.547 C32.383,6.688 32.848,7.051 33.133,7.543 C33.426,8.047 33.5,8.621 33.352,9.172 L20.426,57.449 L20.426,37.648 L20.938,37.781 Z M20.426,36.867 L20.426,23.832 L24.387,24.891 C25.168,25.102 25.625,25.902 25.414,26.676 L22.91,36.035 C22.699,36.809 21.906,37.273 21.125,37.055 L20.426,36.867 Z M20.426,20.031 L20.426,6.996 L28.629,9.195 C29.41,9.398 29.867,10.199 29.664,10.98 L27.152,20.332 C26.949,21.105 26.148,21.562 25.375,21.359 L20.426,20.031 Z M55.684,30.078 L22.016,63.754 L22.008,63.754 L21.977,63.785 C21.887,63.867 21.812,63.949 21.73,64.031 L21.293,64.469 C20.965,64.777 20.715,65.008 20.453,65.16 L30.473,47.812 L31.043,48.383 C31.469,48.816 32.039,49.027 32.602,49.027 C33.164,49.027 33.727,48.816 34.152,48.391 L41,41.535 C41.863,40.68 41.863,39.277 41.008,38.414 L37.773,35.172 L38.988,33.062 L43.137,37.211 C43.57,37.637 44.133,37.855 44.703,37.855 C45.266,37.855 45.828,37.637 46.254,37.211 L53.102,30.363 C53.965,29.5 53.965,28.105 53.102,27.242 L46.285,20.418 L47.176,18.879 C47.223,18.805 47.258,18.723 47.297,18.645 L55.684,27.035 C56.09,27.441 56.312,27.98 56.312,28.559 C56.316,29.137 56.09,29.676 55.684,30.078 L55.684,30.078 Z" id="Fill-3" sketch:type="MSShapeGroup"></path>
            <path d="M15.086,36.281 L5.398,36.281 C5.09,36.281 4.789,36.348 4.52,36.461 C4.379,36.52 4.234,36.602 4.105,36.699 C3.902,36.84 3.723,37.027 3.574,37.234 C3.492,37.371 3.41,37.512 3.348,37.66 C3.25,37.914 3.191,38.191 3.191,38.484 L3.191,48.176 C3.191,49.383 4.18,50.375 5.395,50.375 L15.086,50.375 C15.379,50.375 15.656,50.316 15.91,50.219 C16.059,50.16 16.203,50.078 16.336,49.992 C16.539,49.844 16.727,49.664 16.867,49.461 C16.965,49.332 17.039,49.191 17.105,49.047 C17.219,48.777 17.285,48.484 17.285,48.176 L17.285,38.488 C17.293,37.273 16.301,36.281 15.086,36.281 L15.086,36.281 Z M5.398,49.625 C4.598,49.625 3.945,48.973 3.945,48.176 L3.945,47.906 L5.664,49.625 L5.398,49.625 Z M6.727,49.625 L3.945,46.844 L3.945,46.191 L7.379,49.625 L6.727,49.625 Z M8.441,49.625 L3.941,45.125 L3.941,44.473 L9.094,49.625 L8.441,49.625 Z M10.16,49.625 L3.941,43.406 L3.941,42.754 L10.82,49.625 L10.16,49.625 Z M11.879,49.625 L3.941,41.691 L3.941,41.039 L12.539,49.625 L11.879,49.625 Z M13.594,49.625 L3.941,39.973 L3.941,39.32 L14.254,49.625 L13.594,49.625 Z M15.305,49.609 L3.957,38.27 C3.988,38.098 4.039,37.934 4.129,37.789 L15.785,49.438 C15.641,49.527 15.477,49.578 15.305,49.609 L15.305,49.609 Z M16.512,48.453 C16.48,48.617 16.422,48.777 16.332,48.918 L4.648,37.242 C4.789,37.16 4.949,37.094 5.121,37.062 L16.512,48.449 L16.512,48.453 Z M16.543,47.414 L6.156,37.031 L6.816,37.031 L16.543,46.758 L16.543,47.414 Z M16.543,45.695 L7.871,37.031 L8.531,37.031 L16.543,45.043 L16.543,45.695 Z M16.543,43.977 L9.59,37.031 L10.25,37.031 L16.543,43.316 L16.543,43.977 Z M16.543,42.262 L11.316,37.035 L11.969,37.035 L16.543,41.609 L16.543,42.262 Z M16.543,40.543 L13.031,37.031 L13.684,37.031 L16.543,39.891 L16.543,40.543 Z M16.543,38.824 L14.75,37.031 L15.086,37.031 C15.887,37.031 16.539,37.684 16.539,38.484 L16.539,38.824 L16.543,38.824 Z" id="Fill-4" sketch:type="MSShapeGroup"></path>
            <path d="M15.086,19.762 L5.398,19.762 C4.184,19.762 3.195,20.75 3.195,21.965 L3.195,31.656 C3.195,32.871 4.184,33.859 5.398,33.859 L15.09,33.859 C16.305,33.859 17.293,32.871 17.293,31.656 L17.293,21.965 C17.293,20.75 16.301,19.762 15.086,19.762 L15.086,19.762 Z M5.398,33.109 C4.598,33.109 3.945,32.457 3.945,31.656 L3.945,31.41 L5.648,33.113 L5.398,33.113 L5.398,33.109 Z M6.703,33.109 L3.941,30.348 L3.941,28.809 L8.238,33.105 L6.703,33.105 L6.703,33.109 Z M9.305,33.109 L3.941,27.746 L3.941,26.207 L10.84,33.105 L9.305,33.105 L9.305,33.109 Z M11.906,33.109 L3.941,25.152 L3.941,23.613 L13.438,33.109 L11.906,33.109 Z M15.086,33.109 L14.5,33.109 L3.941,22.551 L3.941,21.965 C3.941,21.695 4.016,21.441 4.152,21.223 L15.828,32.898 C15.613,33.035 15.359,33.109 15.086,33.109 L15.086,33.109 Z M16.543,31.656 C16.543,31.91 16.477,32.152 16.355,32.359 L4.691,20.699 C4.902,20.578 5.141,20.512 5.395,20.512 L6.031,20.512 L16.539,31.02 L16.539,31.656 L16.543,31.656 Z M16.543,29.953 L7.102,20.512 L8.641,20.512 L16.547,28.418 L16.547,29.953 L16.543,29.953 Z M16.543,27.352 L9.695,20.512 L11.234,20.512 L16.543,25.82 L16.543,27.352 Z M16.543,24.754 L12.297,20.508 L13.836,20.508 L16.543,23.215 L16.543,24.754 Z M16.543,22.152 L14.895,20.512 L15.09,20.512 C15.891,20.512 16.543,21.164 16.543,21.965 L16.543,22.152 Z" id="Fill-5" sketch:type="MSShapeGroup"></path>
        </g>
    </g>
</svg>