<?xml version="1.0" encoding="UTF-8" standalone="no"?>
<svg width="96px" height="72px" viewBox="0 0 96 72" version="1.1" xmlns="http://www.w3.org/2000/svg" xmlns:xlink="http://www.w3.org/1999/xlink" xmlns:sketch="http://www.bohemiancoding.com/sketch/ns">
    <!-- Generator: Sketch 3.3.2 (12043) - http://www.bohemiancoding.com/sketch -->
    <title>sass</title>
    <desc>Created with Sketch.</desc>
    <defs></defs>
    <g id="Page-1" stroke="none" stroke-width="1" fill="none" fill-rule="evenodd" sketch:type="MSPage">
        <path d="M67.8504526,54.4258686 C67.5459854,54.2091679 67.5966131,53.5087883 68.5979562,51.3274161 C68.9910657,50.4709489 69.888,49.0290219 71.4472993,47.6510365 C71.6279124,48.2177518 71.7381022,48.7611679 71.7349489,49.2670949 C71.7148029,52.6421606 69.3067445,53.9025985 67.8504526,54.4258686 L67.8504526,54.4258686 Z M55.0327007,57.3477372 C54.6245255,57.5612847 54.2503358,57.6954745 54.0763796,57.5919416 C53.9488467,57.5157372 54.2447299,57.2345693 54.2447299,57.2345693 C54.2447299,57.2345693 56.326073,54.9957372 57.1457518,53.9761752 C57.6225985,53.3833577 58.1754745,52.6796496 58.777927,51.8925547 C58.7828321,51.9712117 58.7854599,52.0491679 58.7854599,52.1262482 C58.7793285,54.8086423 56.1882044,56.6196788 55.0327007,57.3477372 L55.0327007,57.3477372 Z M38.394219,49.4088175 C37.4314161,51.7560876 35.416292,57.7611679 34.1898394,57.4393577 C33.1369927,57.1630949 32.4958248,52.5981898 33.9796204,48.105635 C34.7264234,45.8442044 36.3218102,43.1420146 37.2590365,42.0931971 C38.7678832,40.4054891 40.4291387,39.8534891 40.8327591,40.5377518 C41.3472701,41.409635 38.9978978,47.9374599 38.394219,49.4088175 L38.394219,49.4088175 Z M18.2552409,63.0996788 C15.4908613,66.1154453 11.6287883,67.2551825 9.97261314,66.2951825 C8.18435036,65.2582774 8.89261314,60.8184526 12.2850219,57.618219 C14.3527007,55.6679124 17.0219562,53.8715912 18.7927007,52.7651387 C19.1956204,52.5226861 19.7877372,52.1665401 20.5072117,51.7354161 C20.6265109,51.6674453 20.693781,51.629781 20.693781,51.629781 L20.6911533,51.6252263 C20.830073,51.5421898 20.9723212,51.4568759 21.1192993,51.3691095 C22.353635,55.9242044 21.1567883,59.9344818 18.2552409,63.0996788 L18.2552409,63.0996788 Z M82.584,41.412438 C79.2301314,41.4301314 76.3252555,42.2352701 73.890219,43.4354453 C72.9995912,41.6580438 72.0982774,40.094365 71.9469197,38.9316788 C71.7701606,37.574365 71.5653723,36.7646715 71.7787445,35.1477372 C71.992292,33.5308029 72.9277664,31.2411679 72.9141022,31.0696642 C72.900438,30.8981606 72.7042336,30.0744526 70.7698686,30.060438 C68.8353285,30.0465985 67.1805547,30.4325255 66.985927,30.9433577 C66.7911241,31.4541898 66.4186861,32.6037372 66.1869197,33.8023358 C65.8481168,35.556438 62.3246715,41.8122044 60.3240876,45.0849635 C59.669781,43.807708 59.1134015,42.6814599 58.9974307,41.7908321 C58.8208467,40.4335182 58.6158832,39.6238248 58.8292555,38.0067153 C59.0428029,36.3899562 59.9782774,34.0999708 59.9646131,33.9284672 C59.9509489,33.7569635 59.7549197,32.9334307 57.8203796,32.9194161 C55.8858394,32.9055766 54.2310657,33.2915036 54.036438,33.8023358 C53.841635,34.3131679 53.6336934,35.5066861 53.2374307,36.6613139 C52.8411679,37.8161168 48.1574891,48.251562 46.9308613,50.9563796 C46.3058102,52.3345401 45.7618686,53.4416934 45.3778686,54.1979562 C45.3768175,54.1960292 45.3754161,54.1937518 45.3754161,54.1937518 C45.3754161,54.1937518 45.3517664,54.2440292 45.3109489,54.3289927 C44.9823066,54.9726131 44.7866277,55.3287591 44.7866277,55.3287591 C44.7866277,55.3287591 44.7887299,55.3336642 44.7924088,55.342073 C44.5317372,55.8147153 44.2523212,56.2537226 44.113927,56.2537226 C44.0172263,56.2537226 43.8236496,54.995562 44.156146,53.2686131 C44.8530219,49.6486423 46.5272409,44.0032117 46.5105985,43.8087591 C46.5018394,43.7090803 46.8217226,42.7254307 45.4172847,42.2110949 C44.0520876,41.7114745 43.5659562,42.5448175 43.4414015,42.5474453 C43.3207007,42.550073 43.2310073,42.841927 43.2310073,42.841927 C43.2310073,42.841927 44.7519416,36.4933139 40.3299854,36.4933139 C37.5654307,36.4933139 33.7347153,39.5174891 31.8476496,42.2587445 C30.6567591,42.9083212 28.1083796,44.2994453 25.4046131,45.7849927 C24.3661314,46.3553869 23.3064526,46.9385693 22.3016058,47.492146 C22.2332847,47.4164672 22.1651387,47.3406131 22.0948905,47.265635 C16.7330803,41.5450511 6.82108029,37.4988613 7.24151825,29.8081752 C7.39445255,27.0122628 8.36636496,19.6503942 26.2875328,10.720292 C40.9678248,3.4050219 52.7201168,5.4180438 54.7511825,9.87941606 C57.6525547,16.2530803 48.4701898,28.0992701 33.2245839,29.8081752 C27.4158832,30.4593285 24.3573723,28.2082336 23.5965547,27.369635 C22.7957956,26.4870657 22.6763212,26.4472993 22.3772847,26.6128467 C21.8902774,26.8828029 22.1989489,27.6620146 22.3772847,28.1264234 C22.8325839,29.3111825 24.7003796,31.4119708 27.8850219,32.4569343 C30.6865401,33.376292 37.5063942,33.8813431 45.753635,30.6910949 C54.9910073,27.118073 62.2039708,17.1785693 60.0853139,8.87036496 C57.9307445,0.420437956 43.9201752,-2.35743066 30.6600876,2.35357664 C22.768292,5.15719708 14.2251679,9.55760584 8.08256934,15.3030657 C0.778861314,22.1346569 -0.385751825,28.0805255 0.0940729927,30.5649635 C1.79929927,39.3925839 13.9665985,45.1411971 18.8389489,49.401635 C18.5984234,49.5342482 18.3729635,49.6588029 18.1678248,49.7719708 C15.7250803,50.9803796 6.45021898,55.8341606 4.13027737,60.9626277 C1.49886131,66.7799124 4.54931387,70.953635 6.56881752,71.5156204 C12.8261606,73.2567591 19.2471241,70.1250219 22.6978686,64.9779854 C26.1479124,59.8321752 25.7265985,53.1317956 24.1431241,50.0732847 C24.1235036,50.0352701 24.101781,49.9981314 24.081635,49.9604672 C24.712292,49.5871533 25.355562,49.2075328 25.9930511,48.8331679 C27.2363212,48.1031825 28.4566423,47.422073 29.5157956,46.8457226 C28.9233285,48.4694891 28.4892263,50.4157664 28.2634161,53.2265693 C27.9981898,56.5287591 29.3514745,60.7970803 31.1223942,62.4763796 C31.9021314,63.2156496 32.8402336,63.2329927 33.4348029,63.2329927 C35.4954745,63.2329927 36.435854,61.5186569 37.4710073,59.4910949 C38.7409051,57.0043796 39.8675036,54.1094891 39.8675036,54.1094891 C39.8675036,54.1094891 38.4534307,61.929635 42.306219,61.929635 C43.7099562,61.929635 45.1221022,60.1093139 45.7510073,59.1811971 C45.7527591,59.1913577 45.753635,59.1967883 45.753635,59.1967883 C45.753635,59.1967883 45.7902482,59.1363504 45.8617226,59.0151241 C46.0074745,58.792292 46.0899854,58.6503942 46.0899854,58.6503942 C46.0899854,58.6503942 46.0927883,58.6356788 46.0973431,58.6101022 C46.6616058,57.6303066 47.9131095,55.3965547 49.7900146,51.7129927 C52.2148905,46.9538102 54.5407883,40.9918248 54.5407883,40.9918248 C54.5407883,40.9918248 54.7571387,42.4495182 55.4657518,44.859854 C55.8826861,46.2781314 56.7684088,47.8458394 57.4672117,49.3492555 C56.9047007,50.1296934 56.5588905,50.5779854 56.5588905,50.5779854 C56.5588905,50.5779854 56.562219,50.586219 56.5683504,50.6012847 C56.1188321,51.1979562 55.6148321,51.841927 55.0875328,52.469781 C53.1736642,54.7492555 50.8940146,57.352292 50.5886715,58.1036496 C50.2291971,58.9888467 50.3141606,59.64 51.0091095,60.1637956 C51.5167883,60.5463942 52.4205547,60.605781 53.363562,60.5421898 C55.0835036,60.4265693 56.2936642,60 56.8906861,59.7402044 C57.8214307,59.4110365 58.9052847,58.8933723 59.9225693,58.1456934 C61.8,56.7654307 62.9323796,54.7909489 62.8235912,52.1754745 C62.7633285,50.734073 62.3036496,49.3054599 61.722219,47.9567299 C61.8926715,47.7118248 62.0634745,47.4646423 62.2348029,47.2143066 C65.1945109,42.8874745 67.4902774,38.1328467 67.4902774,38.1328467 C67.4902774,38.1328467 67.7066277,39.590365 68.4154161,42.0008759 C68.7740146,43.2210219 69.4815766,44.5518832 70.1178394,45.8573431 C67.3348905,48.1185985 65.6089927,50.7459854 65.0096934,52.469781 C63.9016642,55.6575766 64.7695182,57.1021314 66.3973139,57.4309489 C67.1346569,57.5800292 68.1759416,57.2421022 68.9593577,56.9104818 C69.934073,56.5872701 71.1053431,56.0489343 72.1993577,55.2448467 C74.0767883,53.8645839 75.8818686,51.9317956 75.7730803,49.3164964 C75.7233285,48.125781 75.4004672,46.944 74.9623358,45.8086423 C77.3213431,44.8260438 80.3756496,44.2796496 84.265927,44.7338978 C92.6116204,45.708438 94.2488759,50.9194161 93.936,53.100438 C93.6229489,55.281635 91.8723504,56.4804088 91.2870657,56.8425109 C90.7019562,57.204438 90.5232701,57.3300438 90.5724964,57.5992993 C90.6436204,57.9906569 90.9142774,57.9755912 91.4131971,57.8915036 C92.1002628,57.7755328 95.7957372,56.1174307 95.953927,52.091562 C96.1548613,46.980438 91.2579854,41.3661898 82.584,41.412438 L82.584,41.412438 Z" id="sass" fill="#0A0B09" sketch:type="MSShapeGroup"></path>
    </g>
</svg>