<?xml version="1.0" encoding="UTF-8" standalone="no"?>
<svg width="75px" height="68px" viewBox="0 0 75 68" version="1.1" xmlns="http://www.w3.org/2000/svg" xmlns:xlink="http://www.w3.org/1999/xlink" xmlns:sketch="http://www.bohemiancoding.com/sketch/ns">
    <!-- Generator: Sketch 3.3.2 (12043) - http://www.bohemiancoding.com/sketch -->
    <title>responsive</title>
    <desc>Created with Sketch.</desc>
    <defs></defs>
    <g id="Page-1" stroke="none" stroke-width="1" fill="none" fill-rule="evenodd" sketch:type="MSPage">
        <path d="M10.086,4.5 C10.086,5.195 9.52,5.762 8.824,5.762 C8.129,5.762 7.562,5.195 7.562,4.5 C7.562,3.805 8.129,3.238 8.824,3.238 C9.52,3.238 10.086,3.805 10.086,4.5 L10.086,4.5 Z M5.496,3.238 C4.801,3.238 4.234,3.805 4.234,4.5 C4.234,5.195 4.801,5.762 5.496,5.762 C6.191,5.762 6.758,5.195 6.758,4.5 C6.758,3.805 6.195,3.238 5.496,3.238 L5.496,3.238 Z M12.148,3.238 C11.453,3.238 10.887,3.805 10.887,4.5 C10.887,5.195 11.453,5.762 12.148,5.762 C12.844,5.762 13.41,5.195 13.41,4.5 C13.41,3.805 12.844,3.238 12.148,3.238 L12.148,3.238 Z M67.023,3.469 L19.945,3.469 C19.375,3.469 18.914,3.93 18.914,4.5 C18.914,5.07 19.375,5.531 19.945,5.531 L67.02,5.531 C67.59,5.531 68.051,5.07 68.051,4.5 C68.051,3.93 67.594,3.469 67.023,3.469 L67.023,3.469 Z M68.121,32.797 L46.324,32.797 L46.324,13.187 L68.121,13.187 L68.121,32.797 Z M66.055,15.25 L48.387,15.25 L48.387,30.73 L66.055,30.73 L66.055,15.25 Z M75,3.441 L75,50.687 C75,52.586 73.461,54.129 71.559,54.129 L34.625,54.129 L34.625,52.066 L42.871,52.066 L42.871,15.254 L8.945,15.254 L8.945,17.273 C8.102,17.445 7.379,17.93 6.883,18.59 L6.883,13.187 L44.941,13.187 L44.941,52.062 L46.328,52.062 L46.328,33.656 L68.121,33.656 L68.121,52.062 L71.562,52.062 C72.32,52.062 72.938,51.445 72.938,50.687 L72.938,8.945 L2.062,8.945 L2.062,50.687 C2.062,51.445 2.68,52.062 3.438,52.062 L5.496,52.062 L5.496,54.125 L3.441,54.125 C1.543,54.125 0,52.586 0,50.683 L0,3.441 C0,1.543 1.539,0 3.441,0 L71.562,0 C73.461,0 75,1.539 75,3.441 L75,3.441 Z M66.055,35.723 L48.387,35.723 L48.387,52.062 L66.055,52.062 L66.055,35.723 Z M72.938,3.441 C72.938,2.683 72.32,2.066 71.562,2.066 L3.441,2.066 C2.684,2.066 2.066,2.683 2.066,3.441 L2.066,6.883 L72.938,6.883 L72.938,3.441 Z M33.078,21.781 L33.078,63.969 C33.078,65.867 31.539,67.41 29.637,67.41 L10.43,67.41 C8.531,67.41 6.988,65.871 6.988,63.969 L6.988,21.781 C6.988,19.883 8.527,18.34 10.43,18.34 L29.637,18.34 C31.539,18.34 33.078,19.879 33.078,21.781 L33.078,21.781 Z M9.051,21.781 L9.051,24.254 L31.012,24.254 L31.012,21.781 C31.012,21.023 30.395,20.406 29.637,20.406 L10.43,20.406 C9.668,20.402 9.051,21.019 9.051,21.781 L9.051,21.781 Z M27.055,58.141 L27.055,48.449 L12.953,48.449 L12.953,58.141 L27.055,58.141 Z M29.121,46.383 L29.121,58.398 L31.012,58.398 L31.012,26.316 L9.051,26.316 L9.051,58.398 L10.887,58.398 L10.887,46.383 L29.121,46.383 Z M31.012,63.969 L31.012,60.465 L9.051,60.465 L9.051,63.969 C9.051,64.726 9.668,65.344 10.426,65.344 L29.633,65.344 C30.395,65.344 31.012,64.726 31.012,63.969 L31.012,63.969 Z M20.035,61.437 C19.148,61.437 18.43,62.156 18.43,63.043 C18.43,63.93 19.148,64.648 20.035,64.648 C20.922,64.648 21.641,63.93 21.641,63.043 C21.641,62.156 20.918,61.437 20.035,61.437 L20.035,61.437 Z M18.77,22.879 L21.293,22.879 C21.484,22.879 21.637,22.726 21.637,22.535 C21.637,22.344 21.484,22.191 21.293,22.191 L18.77,22.191 C18.578,22.191 18.426,22.344 18.426,22.535 C18.426,22.726 18.582,22.879 18.77,22.879 L18.77,22.879 Z M29.121,45.066 L10.887,45.066 L10.887,29.414 L29.121,29.414 L29.121,45.066 Z M27.055,31.48 L12.953,31.48 L12.953,43.004 L27.059,43.004 L27.059,31.48 L27.055,31.48 Z" id="responsive" fill="#000000" sketch:type="MSShapeGroup"></path>
    </g>
</svg>