<?xml version="1.0" encoding="UTF-8"?>
<svg width="118px" height="117px" viewBox="0 0 118 117" version="1.1" xmlns="http://www.w3.org/2000/svg" xmlns:xlink="http://www.w3.org/1999/xlink">
    <!-- Generator: Sketch 49 (51002) - http://www.bohemiancoding.com/sketch -->
    <title>177-sink-tap-outline-</title>
    <desc>Created with Sketch.</desc>
    <defs></defs>
    <g id="Page-1" stroke="none" stroke-width="1" fill="none" fill-rule="evenodd">
        <g id="Homepage" transform="translate(-1127.000000, -2093.000000)" stroke="#ABB2BF" stroke-width="2">
            <g id="177-sink-tap-outline-" transform="translate(1128.000000, 2094.000000)">
                <path d="M115.502175,115.488275 L115.502175,67.9139233 C115.502175,37.8330571 90.0003402,24.3041009 71.8923526,24.3041009 L71.8923526,48.0912767 C77.0343471,48.0912767 91.7149991,51.7326969 91.7149991,67.9139233 L91.7149991,115.488275" id="Stroke-2058"></path>
                <path d="M44.1406474,24.3041009 L44.1406474,48.0912767 C27.959421,48.0912767 24.3180009,62.7719288 24.3180009,67.9139233 L0.530825,67.9139233 C0.530825,49.8059357 14.0597813,24.3041009 44.1406474,24.3041009 Z" id="Stroke-2059"></path>
                <polygon id="Stroke-2060" points="44.1396563 48.0920696 71.8913615 48.0920696 71.8913615 24.3048938 44.1396563 24.3048938"></polygon>
                <polygon id="Stroke-2061" points="50.0864502 24.3048938 65.9445675 24.3048938 65.9445675 16.3758351 50.0864502 16.3758351"></polygon>
                <polygon id="Stroke-2062" points="115.502175 8.44598362 79.8214112 8.44598362 69.9100879 16.3750422 50.0874414 16.3750422 50.0874414 8.44598362 65.9455586 8.44598362 75.8568819 0.516925 115.502175 0.516925"></polygon>
                <path d="M61.9810293,8.44598362 L54.0519707,8.44598362 L54.0519707,4.48145431 C54.0519707,2.29105187 55.8260976,0.516925 58.0165,0.516925 C60.2069024,0.516925 61.9810293,2.29105187 61.9810293,4.48145431 L61.9810293,8.44598362 Z" id="Stroke-2063"></path>
                <path d="M7,75.8429819 L7,115.488275" id="Stroke-2064" stroke-dasharray="2,4,2,4,2,4"></path>
                <path d="M17,75.8429819 L17,115.488275" id="Stroke-2065" stroke-dasharray="2,4,2,4,2,4"></path>
            </g>
        </g>
    </g>
</svg>