<?xml version="1.0" encoding="UTF-8"?>
<svg width="114px" height="114px" viewBox="0 0 114 114" version="1.1" xmlns="http://www.w3.org/2000/svg" xmlns:xlink="http://www.w3.org/1999/xlink">
    <!-- Generator: Sketch 49 (51002) - http://www.bohemiancoding.com/sketch -->
    <title>56-document-folder-outline-</title>
    <desc>Created with Sketch.</desc>
    <defs></defs>
    <g id="Page-1" stroke="none" stroke-width="1" fill="none" fill-rule="evenodd" stroke-linejoin="round">
        <g id="Homepage" transform="translate(-1112.000000, -3445.000000)" stroke="#ABB2BF" stroke-width="2">
            <g id="56-document-folder-outline-" transform="translate(1113.000000, 3446.000000)">
                <path d="M89.0136187,111.567686 L3.00748794,111.567686 C1.02830353,111.567686 -0.410928617,109.688421 0.105965173,107.776491 L19.6403231,54.2212982 C19.9938861,52.9108091 21.1833183,52 22.5418458,52 L108.547977,52 C110.527161,52 111.449499,53.8907936 111.449499,55.7892734 L91.9151414,109.346388 C91.5615784,110.656877 90.3721462,111.567686 89.0136187,111.567686 Z" id="Path"></path>
                <path d="M33,29.4507678 L79.1169181,29.4507678 M33,16 L52.2153825,16 M33,42.9015356 L79.1169181,42.9015356" id="Stroke-72" stroke-linecap="round"></path>
                <path d="M96.591885,34.4507678 L92.2338362,34.4507678 L92.2338362,51.7446121 L99.9199892,51.7446121 L99.9199892,37.778872 C99.9199892,35.9399599 98.4288755,34.4507678 96.591885,34.4507678 Z M7.68615302,21 L3.32810426,21 C1.49111369,21 0,22.4891921 0,24.3281043 L0,106.431591 C0.13258614,106.435434 0.265172279,106.44312 0.393915342,106.450806 L7.68615302,86.5648068 L7.68615302,21 Z" id="Stroke-73"></path>
                <path d="M19.42466,54.1028311 C19.778223,52.7904205 20.9676552,51.8815329 22.3261827,51.8815329 L92.0184537,51.8815329 L92.0184537,0 L19,0 L19,55.2653617 L19.42466,54.1028311 Z" id="Stroke-74"></path>
                <polygon id="Path" points="18.7646148 55.4222852 18.7646148 4 13 4 13 71.2269374"></polygon>
                <polygon id="Path" points="13.7646148 71.3838609 13.7646148 8 8 8 8 87.188513"></polygon>
            </g>
        </g>
    </g>
</svg>